G04 MADE WITH FRITZING*
G04 WWW.FRITZING.ORG*
G04 DOUBLE SIDED*
G04 HOLES PLATED*
G04 CONTOUR ON CENTER OF CONTOUR VECTOR*
%ASAXBY*%
%FSLAX23Y23*%
%MOIN*%
%OFA0B0*%
%SFA1.0B1.0*%
%ADD10C,0.075000*%
%ADD11C,0.039370*%
%ADD12C,0.079391*%
%ADD13C,0.082000*%
%ADD14C,0.074000*%
%ADD15C,0.078000*%
%ADD16C,0.080000*%
%ADD17R,0.082000X0.082000*%
%ADD18R,0.080000X0.079986*%
%ADD19C,0.024000*%
%ADD20C,0.032000*%
%ADD21R,0.001000X0.001000*%
%LNCOPPER1*%
G90*
G70*
G54D10*
X103Y2264D03*
G54D11*
X722Y1847D03*
X422Y747D03*
X722Y747D03*
X722Y2147D03*
X922Y2147D03*
X922Y1947D03*
X1322Y2147D03*
X1122Y1747D03*
X1422Y1947D03*
X2022Y2147D03*
X1622Y2047D03*
X1722Y1847D03*
X1822Y1947D03*
X1822Y1247D03*
X1822Y647D03*
X1822Y1047D03*
X1622Y1147D03*
X1622Y847D03*
X822Y447D03*
X622Y247D03*
X922Y447D03*
X722Y247D03*
X1122Y2247D03*
G54D12*
X1122Y1547D03*
X1022Y1547D03*
X922Y1547D03*
X822Y1547D03*
X722Y1547D03*
X622Y1547D03*
X522Y1547D03*
X422Y1547D03*
X422Y647D03*
X522Y647D03*
X622Y647D03*
X722Y647D03*
X822Y647D03*
X922Y647D03*
X1022Y647D03*
X1122Y647D03*
G54D13*
X1372Y447D03*
X1372Y347D03*
X1372Y247D03*
G54D14*
X1822Y2047D03*
X1929Y2047D03*
X2036Y2047D03*
X1822Y2047D03*
X1929Y2047D03*
X2036Y2047D03*
G54D15*
X722Y2047D03*
X622Y2047D03*
X522Y2047D03*
X422Y2047D03*
X322Y2047D03*
X222Y2047D03*
X822Y2047D03*
X922Y2047D03*
X1022Y2047D03*
X1322Y2047D03*
X1422Y2047D03*
X1522Y2047D03*
X422Y147D03*
X522Y147D03*
X622Y147D03*
X722Y147D03*
G54D10*
X1122Y1847D03*
X1522Y1847D03*
X1072Y97D03*
X1072Y497D03*
X822Y1047D03*
X422Y1047D03*
G54D16*
X1722Y1647D03*
X1722Y1447D03*
X1722Y1247D03*
X1722Y1047D03*
X1722Y847D03*
X1722Y647D03*
G54D17*
X1372Y447D03*
G54D18*
X1722Y1647D03*
X1722Y1247D03*
X1722Y847D03*
G54D19*
X672Y1948D02*
X772Y1948D01*
D02*
X772Y1948D02*
X809Y2021D01*
D02*
X636Y2021D02*
X672Y1948D01*
D02*
X422Y766D02*
X422Y1019D01*
D02*
X731Y2164D02*
X772Y2246D01*
D02*
X1403Y1947D02*
X1322Y1947D01*
D02*
X1322Y2166D02*
X1322Y2247D01*
D02*
X2009Y2161D02*
X1922Y2247D01*
G54D20*
D02*
X1622Y1947D02*
X1705Y1865D01*
D02*
X1622Y2023D02*
X1622Y1947D01*
G54D19*
D02*
X1922Y747D02*
X1922Y947D01*
D02*
X1922Y947D02*
X1836Y1034D01*
D02*
X1836Y661D02*
X1922Y747D01*
G54D20*
D02*
X1922Y1847D02*
X1840Y1930D01*
D02*
X1922Y1347D02*
X1922Y1847D01*
D02*
X1840Y1265D02*
X1922Y1347D01*
G54D19*
D02*
X636Y261D02*
X809Y434D01*
D02*
X909Y434D02*
X736Y261D01*
D02*
X1123Y1396D02*
X1123Y1197D01*
D02*
X1221Y1449D02*
X1123Y1396D01*
D02*
X1222Y1548D02*
X1221Y1449D01*
D02*
X1123Y1197D02*
X1023Y1048D01*
D02*
X1023Y1048D02*
X851Y1048D01*
D02*
X921Y1846D02*
X1222Y1548D01*
D02*
X922Y1928D02*
X921Y1846D01*
D02*
X941Y2147D02*
X1121Y2148D01*
D02*
X1121Y2148D02*
X1322Y1947D01*
D02*
X1522Y1347D02*
X1136Y1734D01*
D02*
X1523Y948D02*
X1522Y1347D01*
D02*
X1609Y861D02*
X1523Y948D01*
D02*
X1322Y2247D02*
X1141Y2247D01*
D02*
X1103Y2247D02*
X772Y2246D01*
D02*
X822Y847D02*
X822Y1019D01*
D02*
X736Y761D02*
X821Y847D01*
D02*
X272Y1747D02*
X272Y1098D01*
D02*
X322Y1796D02*
X272Y1747D01*
D02*
X623Y1796D02*
X322Y1796D01*
D02*
X705Y1839D02*
X623Y1796D01*
D02*
X322Y1048D02*
X394Y1048D01*
D02*
X272Y1098D02*
X322Y1048D01*
D02*
X1622Y1347D02*
X1622Y1166D01*
D02*
X1622Y1747D02*
X1622Y1347D01*
D02*
X1922Y2247D02*
X1322Y2247D01*
D02*
X1441Y1947D02*
X1523Y1947D01*
D02*
X1621Y1867D02*
X1622Y1747D01*
D02*
X1523Y1947D02*
X1621Y1867D01*
G36*
X1712Y340D02*
X1712Y338D01*
X1708Y338D01*
X1708Y336D01*
X1654Y336D01*
X1654Y316D01*
X1692Y316D01*
X1692Y314D01*
X1718Y314D01*
X1718Y316D01*
X1740Y316D01*
X1740Y336D01*
X1736Y336D01*
X1736Y338D01*
X1732Y338D01*
X1732Y340D01*
X1712Y340D01*
G37*
D02*
G36*
X664Y244D02*
X664Y242D01*
X662Y242D01*
X662Y240D01*
X660Y240D01*
X660Y232D01*
X658Y232D01*
X658Y228D01*
X656Y228D01*
X656Y226D01*
X654Y226D01*
X654Y222D01*
X652Y222D01*
X652Y220D01*
X650Y220D01*
X650Y198D01*
X654Y198D01*
X654Y196D01*
X656Y196D01*
X656Y194D01*
X658Y194D01*
X658Y192D01*
X662Y192D01*
X662Y190D01*
X684Y190D01*
X684Y192D01*
X686Y192D01*
X686Y194D01*
X688Y194D01*
X688Y196D01*
X690Y196D01*
X690Y198D01*
X694Y198D01*
X694Y220D01*
X692Y220D01*
X692Y224D01*
X690Y224D01*
X690Y226D01*
X688Y226D01*
X688Y230D01*
X686Y230D01*
X686Y234D01*
X684Y234D01*
X684Y244D01*
X664Y244D01*
G37*
D02*
G36*
X1832Y232D02*
X1832Y230D01*
X1826Y230D01*
X1826Y228D01*
X1854Y228D01*
X1854Y232D01*
X1832Y232D01*
G37*
D02*
G36*
X1766Y230D02*
X1766Y228D01*
X1792Y228D01*
X1792Y230D01*
X1766Y230D01*
G37*
D02*
G36*
X1752Y228D02*
X1752Y226D01*
X1854Y226D01*
X1854Y228D01*
X1752Y228D01*
G37*
D02*
G36*
X1752Y228D02*
X1752Y226D01*
X1854Y226D01*
X1854Y228D01*
X1752Y228D01*
G37*
D02*
G36*
X1752Y226D02*
X1752Y176D01*
X1754Y176D01*
X1754Y174D01*
X1760Y174D01*
X1760Y172D01*
X1762Y172D01*
X1762Y170D01*
X1764Y170D01*
X1764Y168D01*
X1784Y168D01*
X1784Y170D01*
X1790Y170D01*
X1790Y172D01*
X1828Y172D01*
X1828Y198D01*
X1830Y198D01*
X1830Y202D01*
X1832Y202D01*
X1832Y206D01*
X1834Y206D01*
X1834Y208D01*
X1836Y208D01*
X1836Y210D01*
X1838Y210D01*
X1838Y212D01*
X1840Y212D01*
X1840Y214D01*
X1844Y214D01*
X1844Y216D01*
X1850Y216D01*
X1850Y218D01*
X1854Y218D01*
X1854Y226D01*
X1752Y226D01*
G37*
D02*
G36*
X40Y2322D02*
X40Y2184D01*
X212Y2184D01*
X212Y2186D01*
X202Y2186D01*
X202Y2188D01*
X198Y2188D01*
X198Y2190D01*
X194Y2190D01*
X194Y2192D01*
X190Y2192D01*
X190Y2194D01*
X186Y2194D01*
X186Y2196D01*
X184Y2196D01*
X184Y2198D01*
X182Y2198D01*
X182Y2200D01*
X180Y2200D01*
X180Y2202D01*
X176Y2202D01*
X176Y2206D01*
X174Y2206D01*
X174Y2208D01*
X172Y2208D01*
X172Y2210D01*
X170Y2210D01*
X170Y2214D01*
X168Y2214D01*
X168Y2216D01*
X166Y2216D01*
X166Y2220D01*
X164Y2220D01*
X164Y2226D01*
X162Y2226D01*
X162Y2232D01*
X160Y2232D01*
X160Y2246D01*
X158Y2246D01*
X158Y2248D01*
X160Y2248D01*
X160Y2262D01*
X162Y2262D01*
X162Y2270D01*
X164Y2270D01*
X164Y2274D01*
X166Y2274D01*
X166Y2278D01*
X168Y2278D01*
X168Y2282D01*
X170Y2282D01*
X170Y2284D01*
X172Y2284D01*
X172Y2286D01*
X174Y2286D01*
X174Y2290D01*
X176Y2290D01*
X176Y2292D01*
X178Y2292D01*
X178Y2294D01*
X180Y2294D01*
X180Y2296D01*
X184Y2296D01*
X184Y2298D01*
X186Y2298D01*
X186Y2300D01*
X190Y2300D01*
X190Y2302D01*
X192Y2302D01*
X192Y2322D01*
X40Y2322D01*
G37*
D02*
G36*
X252Y2322D02*
X252Y2302D01*
X256Y2302D01*
X256Y2300D01*
X258Y2300D01*
X258Y2298D01*
X262Y2298D01*
X262Y2296D01*
X264Y2296D01*
X264Y2294D01*
X266Y2294D01*
X266Y2292D01*
X268Y2292D01*
X268Y2290D01*
X270Y2290D01*
X270Y2288D01*
X272Y2288D01*
X272Y2286D01*
X1134Y2286D01*
X1134Y2284D01*
X1140Y2284D01*
X1140Y2282D01*
X1142Y2282D01*
X1142Y2280D01*
X1924Y2280D01*
X1924Y2278D01*
X1934Y2278D01*
X1934Y2276D01*
X1938Y2276D01*
X1938Y2274D01*
X1940Y2274D01*
X1940Y2272D01*
X1944Y2272D01*
X1944Y2270D01*
X1946Y2270D01*
X1946Y2268D01*
X1948Y2268D01*
X1948Y2266D01*
X1950Y2266D01*
X1950Y2264D01*
X1952Y2264D01*
X1952Y2262D01*
X1954Y2262D01*
X1954Y2260D01*
X1956Y2260D01*
X1956Y2258D01*
X1958Y2258D01*
X1958Y2256D01*
X1960Y2256D01*
X1960Y2254D01*
X1962Y2254D01*
X1962Y2252D01*
X1964Y2252D01*
X1964Y2250D01*
X1966Y2250D01*
X1966Y2248D01*
X1968Y2248D01*
X1968Y2246D01*
X1970Y2246D01*
X1970Y2244D01*
X1972Y2244D01*
X1972Y2242D01*
X1974Y2242D01*
X1974Y2240D01*
X1976Y2240D01*
X1976Y2238D01*
X1978Y2238D01*
X1978Y2236D01*
X1980Y2236D01*
X1980Y2234D01*
X1982Y2234D01*
X1982Y2232D01*
X1984Y2232D01*
X1984Y2230D01*
X1986Y2230D01*
X1986Y2228D01*
X1988Y2228D01*
X1988Y2226D01*
X1990Y2226D01*
X1990Y2224D01*
X1992Y2224D01*
X1992Y2222D01*
X1994Y2222D01*
X1994Y2220D01*
X1996Y2220D01*
X1996Y2218D01*
X1998Y2218D01*
X1998Y2216D01*
X2000Y2216D01*
X2000Y2214D01*
X2002Y2214D01*
X2002Y2212D01*
X2004Y2212D01*
X2004Y2210D01*
X2006Y2210D01*
X2006Y2208D01*
X2008Y2208D01*
X2008Y2206D01*
X2010Y2206D01*
X2010Y2204D01*
X2012Y2204D01*
X2012Y2202D01*
X2014Y2202D01*
X2014Y2200D01*
X2016Y2200D01*
X2016Y2198D01*
X2018Y2198D01*
X2018Y2196D01*
X2020Y2196D01*
X2020Y2194D01*
X2022Y2194D01*
X2022Y2192D01*
X2024Y2192D01*
X2024Y2190D01*
X2026Y2190D01*
X2026Y2188D01*
X2028Y2188D01*
X2028Y2186D01*
X2034Y2186D01*
X2034Y2184D01*
X2212Y2184D01*
X2212Y2186D01*
X2202Y2186D01*
X2202Y2188D01*
X2198Y2188D01*
X2198Y2190D01*
X2194Y2190D01*
X2194Y2192D01*
X2190Y2192D01*
X2190Y2194D01*
X2186Y2194D01*
X2186Y2196D01*
X2184Y2196D01*
X2184Y2198D01*
X2182Y2198D01*
X2182Y2200D01*
X2180Y2200D01*
X2180Y2202D01*
X2176Y2202D01*
X2176Y2206D01*
X2174Y2206D01*
X2174Y2208D01*
X2172Y2208D01*
X2172Y2210D01*
X2170Y2210D01*
X2170Y2214D01*
X2168Y2214D01*
X2168Y2216D01*
X2166Y2216D01*
X2166Y2220D01*
X2164Y2220D01*
X2164Y2226D01*
X2162Y2226D01*
X2162Y2232D01*
X2160Y2232D01*
X2160Y2246D01*
X2158Y2246D01*
X2158Y2248D01*
X2160Y2248D01*
X2160Y2262D01*
X2162Y2262D01*
X2162Y2270D01*
X2164Y2270D01*
X2164Y2274D01*
X2166Y2274D01*
X2166Y2278D01*
X2168Y2278D01*
X2168Y2282D01*
X2170Y2282D01*
X2170Y2284D01*
X2172Y2284D01*
X2172Y2286D01*
X2174Y2286D01*
X2174Y2290D01*
X2176Y2290D01*
X2176Y2292D01*
X2178Y2292D01*
X2178Y2294D01*
X2180Y2294D01*
X2180Y2296D01*
X2184Y2296D01*
X2184Y2298D01*
X2186Y2298D01*
X2186Y2300D01*
X2190Y2300D01*
X2190Y2302D01*
X2192Y2302D01*
X2192Y2322D01*
X252Y2322D01*
G37*
D02*
G36*
X2252Y2322D02*
X2252Y2302D01*
X2256Y2302D01*
X2256Y2300D01*
X2258Y2300D01*
X2258Y2298D01*
X2262Y2298D01*
X2262Y2296D01*
X2264Y2296D01*
X2264Y2294D01*
X2266Y2294D01*
X2266Y2292D01*
X2268Y2292D01*
X2268Y2290D01*
X2270Y2290D01*
X2270Y2288D01*
X2272Y2288D01*
X2272Y2284D01*
X2274Y2284D01*
X2274Y2282D01*
X2276Y2282D01*
X2276Y2278D01*
X2278Y2278D01*
X2278Y2274D01*
X2280Y2274D01*
X2280Y2270D01*
X2282Y2270D01*
X2282Y2264D01*
X2284Y2264D01*
X2284Y2254D01*
X2286Y2254D01*
X2286Y2240D01*
X2284Y2240D01*
X2284Y2230D01*
X2282Y2230D01*
X2282Y2224D01*
X2280Y2224D01*
X2280Y2220D01*
X2278Y2220D01*
X2278Y2216D01*
X2276Y2216D01*
X2276Y2212D01*
X2274Y2212D01*
X2274Y2210D01*
X2272Y2210D01*
X2272Y2206D01*
X2270Y2206D01*
X2270Y2204D01*
X2268Y2204D01*
X2268Y2202D01*
X2266Y2202D01*
X2266Y2200D01*
X2264Y2200D01*
X2264Y2198D01*
X2260Y2198D01*
X2260Y2196D01*
X2258Y2196D01*
X2258Y2194D01*
X2254Y2194D01*
X2254Y2192D01*
X2252Y2192D01*
X2252Y2190D01*
X2248Y2190D01*
X2248Y2188D01*
X2242Y2188D01*
X2242Y2186D01*
X2234Y2186D01*
X2234Y2184D01*
X2322Y2184D01*
X2322Y2322D01*
X2252Y2322D01*
G37*
D02*
G36*
X272Y2286D02*
X272Y2284D01*
X274Y2284D01*
X274Y2282D01*
X276Y2282D01*
X276Y2278D01*
X278Y2278D01*
X278Y2274D01*
X280Y2274D01*
X280Y2270D01*
X282Y2270D01*
X282Y2264D01*
X284Y2264D01*
X284Y2254D01*
X286Y2254D01*
X286Y2240D01*
X284Y2240D01*
X284Y2230D01*
X282Y2230D01*
X282Y2224D01*
X280Y2224D01*
X280Y2220D01*
X278Y2220D01*
X278Y2216D01*
X276Y2216D01*
X276Y2212D01*
X274Y2212D01*
X274Y2210D01*
X272Y2210D01*
X272Y2206D01*
X270Y2206D01*
X270Y2204D01*
X268Y2204D01*
X268Y2202D01*
X266Y2202D01*
X266Y2200D01*
X264Y2200D01*
X264Y2198D01*
X260Y2198D01*
X260Y2196D01*
X258Y2196D01*
X258Y2194D01*
X254Y2194D01*
X254Y2192D01*
X252Y2192D01*
X252Y2190D01*
X248Y2190D01*
X248Y2188D01*
X242Y2188D01*
X242Y2186D01*
X234Y2186D01*
X234Y2184D01*
X706Y2184D01*
X706Y2188D01*
X708Y2188D01*
X708Y2192D01*
X710Y2192D01*
X710Y2196D01*
X712Y2196D01*
X712Y2200D01*
X714Y2200D01*
X714Y2204D01*
X716Y2204D01*
X716Y2208D01*
X718Y2208D01*
X718Y2212D01*
X720Y2212D01*
X720Y2216D01*
X722Y2216D01*
X722Y2220D01*
X724Y2220D01*
X724Y2224D01*
X726Y2224D01*
X726Y2228D01*
X728Y2228D01*
X728Y2232D01*
X730Y2232D01*
X730Y2236D01*
X732Y2236D01*
X732Y2240D01*
X734Y2240D01*
X734Y2244D01*
X736Y2244D01*
X736Y2248D01*
X738Y2248D01*
X738Y2252D01*
X740Y2252D01*
X740Y2256D01*
X742Y2256D01*
X742Y2260D01*
X744Y2260D01*
X744Y2264D01*
X746Y2264D01*
X746Y2266D01*
X748Y2266D01*
X748Y2268D01*
X750Y2268D01*
X750Y2270D01*
X752Y2270D01*
X752Y2272D01*
X754Y2272D01*
X754Y2274D01*
X758Y2274D01*
X758Y2276D01*
X764Y2276D01*
X764Y2278D01*
X1056Y2278D01*
X1056Y2280D01*
X1102Y2280D01*
X1102Y2282D01*
X1106Y2282D01*
X1106Y2284D01*
X1110Y2284D01*
X1110Y2286D01*
X272Y2286D01*
G37*
D02*
G36*
X1060Y2216D02*
X1060Y2214D01*
X790Y2214D01*
X790Y2210D01*
X788Y2210D01*
X788Y2208D01*
X1112Y2208D01*
X1112Y2210D01*
X1106Y2210D01*
X1106Y2212D01*
X1102Y2212D01*
X1102Y2214D01*
X1100Y2214D01*
X1100Y2216D01*
X1060Y2216D01*
G37*
D02*
G36*
X1146Y2216D02*
X1146Y2214D01*
X1142Y2214D01*
X1142Y2212D01*
X1138Y2212D01*
X1138Y2210D01*
X1132Y2210D01*
X1132Y2208D01*
X1290Y2208D01*
X1290Y2216D01*
X1146Y2216D01*
G37*
D02*
G36*
X1354Y2216D02*
X1354Y2170D01*
X1356Y2170D01*
X1356Y2166D01*
X1358Y2166D01*
X1358Y2162D01*
X1360Y2162D01*
X1360Y2154D01*
X1362Y2154D01*
X1362Y2140D01*
X1360Y2140D01*
X1360Y2132D01*
X1358Y2132D01*
X1358Y2128D01*
X1356Y2128D01*
X1356Y2126D01*
X1354Y2126D01*
X1354Y2122D01*
X1352Y2122D01*
X1352Y2120D01*
X1350Y2120D01*
X1350Y2106D01*
X1534Y2106D01*
X1534Y2104D01*
X1940Y2104D01*
X1940Y2102D01*
X1948Y2102D01*
X1948Y2100D01*
X1952Y2100D01*
X1952Y2098D01*
X1956Y2098D01*
X1956Y2096D01*
X1960Y2096D01*
X1960Y2094D01*
X1962Y2094D01*
X1962Y2092D01*
X1966Y2092D01*
X1966Y2090D01*
X1968Y2090D01*
X1968Y2088D01*
X1970Y2088D01*
X1970Y2086D01*
X1972Y2086D01*
X1972Y2084D01*
X1994Y2084D01*
X1994Y2086D01*
X1996Y2086D01*
X1996Y2088D01*
X1998Y2088D01*
X1998Y2090D01*
X2000Y2090D01*
X2000Y2092D01*
X2002Y2092D01*
X2002Y2114D01*
X2000Y2114D01*
X2000Y2116D01*
X1996Y2116D01*
X1996Y2118D01*
X1994Y2118D01*
X1994Y2120D01*
X1992Y2120D01*
X1992Y2124D01*
X1990Y2124D01*
X1990Y2126D01*
X1988Y2126D01*
X1988Y2130D01*
X1986Y2130D01*
X1986Y2134D01*
X1984Y2134D01*
X1984Y2142D01*
X1982Y2142D01*
X1982Y2144D01*
X1980Y2144D01*
X1980Y2146D01*
X1978Y2146D01*
X1978Y2148D01*
X1976Y2148D01*
X1976Y2150D01*
X1974Y2150D01*
X1974Y2152D01*
X1972Y2152D01*
X1972Y2154D01*
X1970Y2154D01*
X1970Y2156D01*
X1968Y2156D01*
X1968Y2158D01*
X1966Y2158D01*
X1966Y2160D01*
X1964Y2160D01*
X1964Y2162D01*
X1962Y2162D01*
X1962Y2164D01*
X1960Y2164D01*
X1960Y2166D01*
X1958Y2166D01*
X1958Y2168D01*
X1956Y2168D01*
X1956Y2170D01*
X1954Y2170D01*
X1954Y2172D01*
X1952Y2172D01*
X1952Y2174D01*
X1950Y2174D01*
X1950Y2176D01*
X1948Y2176D01*
X1948Y2178D01*
X1946Y2178D01*
X1946Y2180D01*
X1944Y2180D01*
X1944Y2182D01*
X1942Y2182D01*
X1942Y2184D01*
X1940Y2184D01*
X1940Y2186D01*
X1938Y2186D01*
X1938Y2188D01*
X1936Y2188D01*
X1936Y2190D01*
X1934Y2190D01*
X1934Y2192D01*
X1932Y2192D01*
X1932Y2194D01*
X1930Y2194D01*
X1930Y2196D01*
X1928Y2196D01*
X1928Y2198D01*
X1926Y2198D01*
X1926Y2200D01*
X1924Y2200D01*
X1924Y2202D01*
X1922Y2202D01*
X1922Y2204D01*
X1920Y2204D01*
X1920Y2206D01*
X1918Y2206D01*
X1918Y2208D01*
X1916Y2208D01*
X1916Y2210D01*
X1914Y2210D01*
X1914Y2212D01*
X1912Y2212D01*
X1912Y2214D01*
X1910Y2214D01*
X1910Y2216D01*
X1354Y2216D01*
G37*
D02*
G36*
X788Y2208D02*
X788Y2206D01*
X1290Y2206D01*
X1290Y2208D01*
X788Y2208D01*
G37*
D02*
G36*
X788Y2208D02*
X788Y2206D01*
X1290Y2206D01*
X1290Y2208D01*
X788Y2208D01*
G37*
D02*
G36*
X786Y2206D02*
X786Y2202D01*
X784Y2202D01*
X784Y2198D01*
X782Y2198D01*
X782Y2194D01*
X780Y2194D01*
X780Y2190D01*
X778Y2190D01*
X778Y2186D01*
X934Y2186D01*
X934Y2184D01*
X940Y2184D01*
X940Y2182D01*
X942Y2182D01*
X942Y2180D01*
X946Y2180D01*
X946Y2178D01*
X948Y2178D01*
X948Y2176D01*
X950Y2176D01*
X950Y2174D01*
X952Y2174D01*
X952Y2172D01*
X954Y2172D01*
X954Y2170D01*
X956Y2170D01*
X956Y2166D01*
X958Y2166D01*
X958Y2162D01*
X960Y2162D01*
X960Y2154D01*
X962Y2154D01*
X962Y2140D01*
X960Y2140D01*
X960Y2132D01*
X958Y2132D01*
X958Y2128D01*
X956Y2128D01*
X956Y2126D01*
X954Y2126D01*
X954Y2122D01*
X952Y2122D01*
X952Y2120D01*
X950Y2120D01*
X950Y2106D01*
X1034Y2106D01*
X1034Y2104D01*
X1042Y2104D01*
X1042Y2102D01*
X1046Y2102D01*
X1046Y2100D01*
X1050Y2100D01*
X1050Y2098D01*
X1054Y2098D01*
X1054Y2096D01*
X1056Y2096D01*
X1056Y2094D01*
X1058Y2094D01*
X1058Y2092D01*
X1062Y2092D01*
X1062Y2090D01*
X1064Y2090D01*
X1064Y2088D01*
X1066Y2088D01*
X1066Y2086D01*
X1068Y2086D01*
X1068Y2082D01*
X1070Y2082D01*
X1070Y2080D01*
X1072Y2080D01*
X1072Y2076D01*
X1074Y2076D01*
X1074Y2074D01*
X1076Y2074D01*
X1076Y2068D01*
X1078Y2068D01*
X1078Y2062D01*
X1080Y2062D01*
X1080Y2050D01*
X1082Y2050D01*
X1082Y2044D01*
X1080Y2044D01*
X1080Y2032D01*
X1078Y2032D01*
X1078Y2026D01*
X1076Y2026D01*
X1076Y2022D01*
X1074Y2022D01*
X1074Y2018D01*
X1072Y2018D01*
X1072Y2014D01*
X1070Y2014D01*
X1070Y2012D01*
X1068Y2012D01*
X1068Y2010D01*
X1066Y2010D01*
X1066Y2006D01*
X1064Y2006D01*
X1064Y2004D01*
X1060Y2004D01*
X1060Y2002D01*
X1058Y2002D01*
X1058Y2000D01*
X1056Y2000D01*
X1056Y1998D01*
X1052Y1998D01*
X1052Y1996D01*
X1050Y1996D01*
X1050Y1994D01*
X1046Y1994D01*
X1046Y1992D01*
X1040Y1992D01*
X1040Y1990D01*
X1030Y1990D01*
X1030Y1988D01*
X1314Y1988D01*
X1314Y1990D01*
X1304Y1990D01*
X1304Y1992D01*
X1298Y1992D01*
X1298Y1994D01*
X1294Y1994D01*
X1294Y1996D01*
X1292Y1996D01*
X1292Y1998D01*
X1288Y1998D01*
X1288Y2000D01*
X1286Y2000D01*
X1286Y2002D01*
X1284Y2002D01*
X1284Y2004D01*
X1282Y2004D01*
X1282Y2006D01*
X1280Y2006D01*
X1280Y2008D01*
X1278Y2008D01*
X1278Y2010D01*
X1276Y2010D01*
X1276Y2012D01*
X1274Y2012D01*
X1274Y2014D01*
X1272Y2014D01*
X1272Y2018D01*
X1270Y2018D01*
X1270Y2022D01*
X1268Y2022D01*
X1268Y2026D01*
X1266Y2026D01*
X1266Y2034D01*
X1264Y2034D01*
X1264Y2060D01*
X1266Y2060D01*
X1266Y2068D01*
X1268Y2068D01*
X1268Y2072D01*
X1270Y2072D01*
X1270Y2076D01*
X1272Y2076D01*
X1272Y2080D01*
X1274Y2080D01*
X1274Y2082D01*
X1276Y2082D01*
X1276Y2084D01*
X1278Y2084D01*
X1278Y2088D01*
X1280Y2088D01*
X1280Y2090D01*
X1284Y2090D01*
X1284Y2092D01*
X1286Y2092D01*
X1286Y2094D01*
X1288Y2094D01*
X1288Y2096D01*
X1290Y2096D01*
X1290Y2098D01*
X1294Y2098D01*
X1294Y2120D01*
X1292Y2120D01*
X1292Y2124D01*
X1290Y2124D01*
X1290Y2126D01*
X1288Y2126D01*
X1288Y2130D01*
X1286Y2130D01*
X1286Y2134D01*
X1284Y2134D01*
X1284Y2144D01*
X1282Y2144D01*
X1282Y2152D01*
X1284Y2152D01*
X1284Y2160D01*
X1286Y2160D01*
X1286Y2166D01*
X1288Y2166D01*
X1288Y2168D01*
X1290Y2168D01*
X1290Y2206D01*
X786Y2206D01*
G37*
D02*
G36*
X776Y2186D02*
X776Y2182D01*
X774Y2182D01*
X774Y2178D01*
X772Y2178D01*
X772Y2174D01*
X770Y2174D01*
X770Y2170D01*
X768Y2170D01*
X768Y2166D01*
X766Y2166D01*
X766Y2162D01*
X764Y2162D01*
X764Y2158D01*
X762Y2158D01*
X762Y2140D01*
X760Y2140D01*
X760Y2132D01*
X758Y2132D01*
X758Y2128D01*
X756Y2128D01*
X756Y2126D01*
X754Y2126D01*
X754Y2122D01*
X752Y2122D01*
X752Y2120D01*
X750Y2120D01*
X750Y2106D01*
X834Y2106D01*
X834Y2104D01*
X842Y2104D01*
X842Y2102D01*
X846Y2102D01*
X846Y2100D01*
X850Y2100D01*
X850Y2098D01*
X854Y2098D01*
X854Y2096D01*
X856Y2096D01*
X856Y2094D01*
X858Y2094D01*
X858Y2092D01*
X862Y2092D01*
X862Y2090D01*
X884Y2090D01*
X884Y2092D01*
X886Y2092D01*
X886Y2094D01*
X888Y2094D01*
X888Y2096D01*
X890Y2096D01*
X890Y2098D01*
X894Y2098D01*
X894Y2120D01*
X892Y2120D01*
X892Y2124D01*
X890Y2124D01*
X890Y2126D01*
X888Y2126D01*
X888Y2130D01*
X886Y2130D01*
X886Y2134D01*
X884Y2134D01*
X884Y2144D01*
X882Y2144D01*
X882Y2152D01*
X884Y2152D01*
X884Y2160D01*
X886Y2160D01*
X886Y2166D01*
X888Y2166D01*
X888Y2168D01*
X890Y2168D01*
X890Y2172D01*
X892Y2172D01*
X892Y2174D01*
X894Y2174D01*
X894Y2176D01*
X896Y2176D01*
X896Y2178D01*
X898Y2178D01*
X898Y2180D01*
X902Y2180D01*
X902Y2182D01*
X906Y2182D01*
X906Y2184D01*
X910Y2184D01*
X910Y2186D01*
X776Y2186D01*
G37*
D02*
G36*
X40Y2184D02*
X40Y2182D01*
X704Y2182D01*
X704Y2184D01*
X40Y2184D01*
G37*
D02*
G36*
X40Y2184D02*
X40Y2182D01*
X704Y2182D01*
X704Y2184D01*
X40Y2184D01*
G37*
D02*
G36*
X2040Y2184D02*
X2040Y2182D01*
X2322Y2182D01*
X2322Y2184D01*
X2040Y2184D01*
G37*
D02*
G36*
X2040Y2184D02*
X2040Y2182D01*
X2322Y2182D01*
X2322Y2184D01*
X2040Y2184D01*
G37*
D02*
G36*
X40Y2182D02*
X40Y2106D01*
X634Y2106D01*
X634Y2104D01*
X642Y2104D01*
X642Y2102D01*
X646Y2102D01*
X646Y2100D01*
X650Y2100D01*
X650Y2098D01*
X654Y2098D01*
X654Y2096D01*
X656Y2096D01*
X656Y2094D01*
X658Y2094D01*
X658Y2092D01*
X662Y2092D01*
X662Y2090D01*
X684Y2090D01*
X684Y2092D01*
X686Y2092D01*
X686Y2094D01*
X688Y2094D01*
X688Y2096D01*
X690Y2096D01*
X690Y2098D01*
X694Y2098D01*
X694Y2120D01*
X692Y2120D01*
X692Y2124D01*
X690Y2124D01*
X690Y2126D01*
X688Y2126D01*
X688Y2130D01*
X686Y2130D01*
X686Y2134D01*
X684Y2134D01*
X684Y2144D01*
X682Y2144D01*
X682Y2152D01*
X684Y2152D01*
X684Y2160D01*
X686Y2160D01*
X686Y2166D01*
X688Y2166D01*
X688Y2168D01*
X690Y2168D01*
X690Y2172D01*
X692Y2172D01*
X692Y2174D01*
X694Y2174D01*
X694Y2176D01*
X696Y2176D01*
X696Y2178D01*
X698Y2178D01*
X698Y2180D01*
X702Y2180D01*
X702Y2182D01*
X40Y2182D01*
G37*
D02*
G36*
X2042Y2182D02*
X2042Y2180D01*
X2046Y2180D01*
X2046Y2178D01*
X2048Y2178D01*
X2048Y2176D01*
X2050Y2176D01*
X2050Y2174D01*
X2052Y2174D01*
X2052Y2172D01*
X2054Y2172D01*
X2054Y2170D01*
X2056Y2170D01*
X2056Y2166D01*
X2058Y2166D01*
X2058Y2162D01*
X2060Y2162D01*
X2060Y2154D01*
X2062Y2154D01*
X2062Y2140D01*
X2060Y2140D01*
X2060Y2132D01*
X2058Y2132D01*
X2058Y2128D01*
X2056Y2128D01*
X2056Y2126D01*
X2054Y2126D01*
X2054Y2122D01*
X2052Y2122D01*
X2052Y2102D01*
X2054Y2102D01*
X2054Y2100D01*
X2060Y2100D01*
X2060Y2098D01*
X2064Y2098D01*
X2064Y2096D01*
X2066Y2096D01*
X2066Y2094D01*
X2070Y2094D01*
X2070Y2092D01*
X2072Y2092D01*
X2072Y2090D01*
X2074Y2090D01*
X2074Y2088D01*
X2076Y2088D01*
X2076Y2086D01*
X2078Y2086D01*
X2078Y2084D01*
X2080Y2084D01*
X2080Y2082D01*
X2082Y2082D01*
X2082Y2080D01*
X2084Y2080D01*
X2084Y2076D01*
X2086Y2076D01*
X2086Y2072D01*
X2088Y2072D01*
X2088Y2068D01*
X2090Y2068D01*
X2090Y2062D01*
X2092Y2062D01*
X2092Y2050D01*
X2094Y2050D01*
X2094Y2044D01*
X2092Y2044D01*
X2092Y2032D01*
X2090Y2032D01*
X2090Y2026D01*
X2088Y2026D01*
X2088Y2022D01*
X2086Y2022D01*
X2086Y2018D01*
X2084Y2018D01*
X2084Y2014D01*
X2082Y2014D01*
X2082Y2012D01*
X2080Y2012D01*
X2080Y2010D01*
X2078Y2010D01*
X2078Y2008D01*
X2076Y2008D01*
X2076Y2006D01*
X2074Y2006D01*
X2074Y2004D01*
X2072Y2004D01*
X2072Y2002D01*
X2070Y2002D01*
X2070Y2000D01*
X2066Y2000D01*
X2066Y1998D01*
X2064Y1998D01*
X2064Y1996D01*
X2060Y1996D01*
X2060Y1994D01*
X2054Y1994D01*
X2054Y1992D01*
X2044Y1992D01*
X2044Y1990D01*
X2322Y1990D01*
X2322Y2182D01*
X2042Y2182D01*
G37*
D02*
G36*
X40Y2106D02*
X40Y1988D01*
X214Y1988D01*
X214Y1990D01*
X204Y1990D01*
X204Y1992D01*
X198Y1992D01*
X198Y1994D01*
X194Y1994D01*
X194Y1996D01*
X192Y1996D01*
X192Y1998D01*
X188Y1998D01*
X188Y2000D01*
X186Y2000D01*
X186Y2002D01*
X184Y2002D01*
X184Y2004D01*
X182Y2004D01*
X182Y2006D01*
X180Y2006D01*
X180Y2008D01*
X178Y2008D01*
X178Y2010D01*
X176Y2010D01*
X176Y2012D01*
X174Y2012D01*
X174Y2014D01*
X172Y2014D01*
X172Y2018D01*
X170Y2018D01*
X170Y2022D01*
X168Y2022D01*
X168Y2026D01*
X166Y2026D01*
X166Y2034D01*
X164Y2034D01*
X164Y2060D01*
X166Y2060D01*
X166Y2068D01*
X168Y2068D01*
X168Y2072D01*
X170Y2072D01*
X170Y2076D01*
X172Y2076D01*
X172Y2080D01*
X174Y2080D01*
X174Y2082D01*
X176Y2082D01*
X176Y2084D01*
X178Y2084D01*
X178Y2088D01*
X180Y2088D01*
X180Y2090D01*
X184Y2090D01*
X184Y2092D01*
X186Y2092D01*
X186Y2094D01*
X188Y2094D01*
X188Y2096D01*
X190Y2096D01*
X190Y2098D01*
X194Y2098D01*
X194Y2100D01*
X198Y2100D01*
X198Y2102D01*
X204Y2102D01*
X204Y2104D01*
X212Y2104D01*
X212Y2106D01*
X40Y2106D01*
G37*
D02*
G36*
X234Y2106D02*
X234Y2104D01*
X242Y2104D01*
X242Y2102D01*
X246Y2102D01*
X246Y2100D01*
X250Y2100D01*
X250Y2098D01*
X254Y2098D01*
X254Y2096D01*
X256Y2096D01*
X256Y2094D01*
X258Y2094D01*
X258Y2092D01*
X262Y2092D01*
X262Y2090D01*
X284Y2090D01*
X284Y2092D01*
X286Y2092D01*
X286Y2094D01*
X288Y2094D01*
X288Y2096D01*
X290Y2096D01*
X290Y2098D01*
X294Y2098D01*
X294Y2100D01*
X298Y2100D01*
X298Y2102D01*
X304Y2102D01*
X304Y2104D01*
X312Y2104D01*
X312Y2106D01*
X234Y2106D01*
G37*
D02*
G36*
X334Y2106D02*
X334Y2104D01*
X342Y2104D01*
X342Y2102D01*
X346Y2102D01*
X346Y2100D01*
X350Y2100D01*
X350Y2098D01*
X354Y2098D01*
X354Y2096D01*
X356Y2096D01*
X356Y2094D01*
X358Y2094D01*
X358Y2092D01*
X362Y2092D01*
X362Y2090D01*
X384Y2090D01*
X384Y2092D01*
X386Y2092D01*
X386Y2094D01*
X388Y2094D01*
X388Y2096D01*
X390Y2096D01*
X390Y2098D01*
X394Y2098D01*
X394Y2100D01*
X398Y2100D01*
X398Y2102D01*
X404Y2102D01*
X404Y2104D01*
X412Y2104D01*
X412Y2106D01*
X334Y2106D01*
G37*
D02*
G36*
X434Y2106D02*
X434Y2104D01*
X442Y2104D01*
X442Y2102D01*
X446Y2102D01*
X446Y2100D01*
X450Y2100D01*
X450Y2098D01*
X454Y2098D01*
X454Y2096D01*
X456Y2096D01*
X456Y2094D01*
X458Y2094D01*
X458Y2092D01*
X462Y2092D01*
X462Y2090D01*
X484Y2090D01*
X484Y2092D01*
X486Y2092D01*
X486Y2094D01*
X488Y2094D01*
X488Y2096D01*
X490Y2096D01*
X490Y2098D01*
X494Y2098D01*
X494Y2100D01*
X498Y2100D01*
X498Y2102D01*
X504Y2102D01*
X504Y2104D01*
X512Y2104D01*
X512Y2106D01*
X434Y2106D01*
G37*
D02*
G36*
X534Y2106D02*
X534Y2104D01*
X542Y2104D01*
X542Y2102D01*
X546Y2102D01*
X546Y2100D01*
X550Y2100D01*
X550Y2098D01*
X554Y2098D01*
X554Y2096D01*
X556Y2096D01*
X556Y2094D01*
X558Y2094D01*
X558Y2092D01*
X562Y2092D01*
X562Y2090D01*
X584Y2090D01*
X584Y2092D01*
X586Y2092D01*
X586Y2094D01*
X588Y2094D01*
X588Y2096D01*
X590Y2096D01*
X590Y2098D01*
X594Y2098D01*
X594Y2100D01*
X598Y2100D01*
X598Y2102D01*
X604Y2102D01*
X604Y2104D01*
X612Y2104D01*
X612Y2106D01*
X534Y2106D01*
G37*
D02*
G36*
X750Y2106D02*
X750Y2098D01*
X754Y2098D01*
X754Y2096D01*
X756Y2096D01*
X756Y2094D01*
X758Y2094D01*
X758Y2092D01*
X762Y2092D01*
X762Y2090D01*
X784Y2090D01*
X784Y2092D01*
X786Y2092D01*
X786Y2094D01*
X788Y2094D01*
X788Y2096D01*
X790Y2096D01*
X790Y2098D01*
X794Y2098D01*
X794Y2100D01*
X798Y2100D01*
X798Y2102D01*
X804Y2102D01*
X804Y2104D01*
X812Y2104D01*
X812Y2106D01*
X750Y2106D01*
G37*
D02*
G36*
X950Y2106D02*
X950Y2098D01*
X954Y2098D01*
X954Y2096D01*
X956Y2096D01*
X956Y2094D01*
X958Y2094D01*
X958Y2092D01*
X962Y2092D01*
X962Y2090D01*
X984Y2090D01*
X984Y2092D01*
X986Y2092D01*
X986Y2094D01*
X988Y2094D01*
X988Y2096D01*
X990Y2096D01*
X990Y2098D01*
X994Y2098D01*
X994Y2100D01*
X998Y2100D01*
X998Y2102D01*
X1004Y2102D01*
X1004Y2104D01*
X1012Y2104D01*
X1012Y2106D01*
X950Y2106D01*
G37*
D02*
G36*
X1350Y2106D02*
X1350Y2098D01*
X1354Y2098D01*
X1354Y2096D01*
X1356Y2096D01*
X1356Y2094D01*
X1358Y2094D01*
X1358Y2092D01*
X1362Y2092D01*
X1362Y2090D01*
X1384Y2090D01*
X1384Y2092D01*
X1386Y2092D01*
X1386Y2094D01*
X1388Y2094D01*
X1388Y2096D01*
X1390Y2096D01*
X1390Y2098D01*
X1394Y2098D01*
X1394Y2100D01*
X1398Y2100D01*
X1398Y2102D01*
X1404Y2102D01*
X1404Y2104D01*
X1412Y2104D01*
X1412Y2106D01*
X1350Y2106D01*
G37*
D02*
G36*
X1434Y2106D02*
X1434Y2104D01*
X1442Y2104D01*
X1442Y2102D01*
X1446Y2102D01*
X1446Y2100D01*
X1450Y2100D01*
X1450Y2098D01*
X1454Y2098D01*
X1454Y2096D01*
X1456Y2096D01*
X1456Y2094D01*
X1458Y2094D01*
X1458Y2092D01*
X1462Y2092D01*
X1462Y2090D01*
X1484Y2090D01*
X1484Y2092D01*
X1486Y2092D01*
X1486Y2094D01*
X1488Y2094D01*
X1488Y2096D01*
X1490Y2096D01*
X1490Y2098D01*
X1494Y2098D01*
X1494Y2100D01*
X1498Y2100D01*
X1498Y2102D01*
X1504Y2102D01*
X1504Y2104D01*
X1512Y2104D01*
X1512Y2106D01*
X1434Y2106D01*
G37*
D02*
G36*
X1542Y2104D02*
X1542Y2102D01*
X1546Y2102D01*
X1546Y2100D01*
X1550Y2100D01*
X1550Y2098D01*
X1554Y2098D01*
X1554Y2096D01*
X1556Y2096D01*
X1556Y2094D01*
X1558Y2094D01*
X1558Y2092D01*
X1562Y2092D01*
X1562Y2090D01*
X1564Y2090D01*
X1564Y2088D01*
X1566Y2088D01*
X1566Y2086D01*
X1634Y2086D01*
X1634Y2084D01*
X1640Y2084D01*
X1640Y2082D01*
X1642Y2082D01*
X1642Y2080D01*
X1646Y2080D01*
X1646Y2078D01*
X1648Y2078D01*
X1648Y2076D01*
X1650Y2076D01*
X1650Y2074D01*
X1652Y2074D01*
X1652Y2072D01*
X1654Y2072D01*
X1654Y2070D01*
X1656Y2070D01*
X1656Y2066D01*
X1658Y2066D01*
X1658Y2062D01*
X1660Y2062D01*
X1660Y2054D01*
X1662Y2054D01*
X1662Y2040D01*
X1660Y2040D01*
X1660Y2032D01*
X1658Y2032D01*
X1658Y1962D01*
X1660Y1962D01*
X1660Y1960D01*
X1662Y1960D01*
X1662Y1958D01*
X1664Y1958D01*
X1664Y1956D01*
X1666Y1956D01*
X1666Y1954D01*
X1668Y1954D01*
X1668Y1952D01*
X1670Y1952D01*
X1670Y1950D01*
X1672Y1950D01*
X1672Y1948D01*
X1674Y1948D01*
X1674Y1946D01*
X1676Y1946D01*
X1676Y1944D01*
X1678Y1944D01*
X1678Y1942D01*
X1680Y1942D01*
X1680Y1940D01*
X1682Y1940D01*
X1682Y1938D01*
X1684Y1938D01*
X1684Y1936D01*
X1686Y1936D01*
X1686Y1934D01*
X1688Y1934D01*
X1688Y1932D01*
X1690Y1932D01*
X1690Y1930D01*
X1692Y1930D01*
X1692Y1928D01*
X1694Y1928D01*
X1694Y1926D01*
X1696Y1926D01*
X1696Y1924D01*
X1698Y1924D01*
X1698Y1922D01*
X1700Y1922D01*
X1700Y1920D01*
X1702Y1920D01*
X1702Y1918D01*
X1704Y1918D01*
X1704Y1916D01*
X1706Y1916D01*
X1706Y1914D01*
X1708Y1914D01*
X1708Y1912D01*
X1710Y1912D01*
X1710Y1910D01*
X1712Y1910D01*
X1712Y1908D01*
X1714Y1908D01*
X1714Y1906D01*
X1716Y1906D01*
X1716Y1904D01*
X1718Y1904D01*
X1718Y1902D01*
X1720Y1902D01*
X1720Y1900D01*
X1722Y1900D01*
X1722Y1898D01*
X1724Y1898D01*
X1724Y1896D01*
X1726Y1896D01*
X1726Y1894D01*
X1728Y1894D01*
X1728Y1892D01*
X1730Y1892D01*
X1730Y1890D01*
X1732Y1890D01*
X1732Y1886D01*
X1734Y1886D01*
X1734Y1884D01*
X1740Y1884D01*
X1740Y1882D01*
X1742Y1882D01*
X1742Y1880D01*
X1746Y1880D01*
X1746Y1878D01*
X1748Y1878D01*
X1748Y1876D01*
X1750Y1876D01*
X1750Y1874D01*
X1752Y1874D01*
X1752Y1872D01*
X1754Y1872D01*
X1754Y1870D01*
X1756Y1870D01*
X1756Y1866D01*
X1758Y1866D01*
X1758Y1862D01*
X1760Y1862D01*
X1760Y1854D01*
X1762Y1854D01*
X1762Y1840D01*
X1760Y1840D01*
X1760Y1832D01*
X1758Y1832D01*
X1758Y1828D01*
X1756Y1828D01*
X1756Y1826D01*
X1754Y1826D01*
X1754Y1822D01*
X1752Y1822D01*
X1752Y1820D01*
X1750Y1820D01*
X1750Y1818D01*
X1748Y1818D01*
X1748Y1816D01*
X1746Y1816D01*
X1746Y1814D01*
X1742Y1814D01*
X1742Y1812D01*
X1738Y1812D01*
X1738Y1810D01*
X1732Y1810D01*
X1732Y1808D01*
X1886Y1808D01*
X1886Y1834D01*
X1884Y1834D01*
X1884Y1836D01*
X1882Y1836D01*
X1882Y1838D01*
X1880Y1838D01*
X1880Y1840D01*
X1878Y1840D01*
X1878Y1842D01*
X1876Y1842D01*
X1876Y1844D01*
X1874Y1844D01*
X1874Y1846D01*
X1872Y1846D01*
X1872Y1848D01*
X1870Y1848D01*
X1870Y1850D01*
X1868Y1850D01*
X1868Y1852D01*
X1866Y1852D01*
X1866Y1854D01*
X1864Y1854D01*
X1864Y1856D01*
X1862Y1856D01*
X1862Y1858D01*
X1860Y1858D01*
X1860Y1860D01*
X1858Y1860D01*
X1858Y1862D01*
X1856Y1862D01*
X1856Y1864D01*
X1854Y1864D01*
X1854Y1866D01*
X1852Y1866D01*
X1852Y1868D01*
X1850Y1868D01*
X1850Y1870D01*
X1848Y1870D01*
X1848Y1872D01*
X1846Y1872D01*
X1846Y1874D01*
X1844Y1874D01*
X1844Y1876D01*
X1842Y1876D01*
X1842Y1878D01*
X1840Y1878D01*
X1840Y1880D01*
X1838Y1880D01*
X1838Y1882D01*
X1836Y1882D01*
X1836Y1884D01*
X1834Y1884D01*
X1834Y1886D01*
X1832Y1886D01*
X1832Y1888D01*
X1830Y1888D01*
X1830Y1890D01*
X1828Y1890D01*
X1828Y1892D01*
X1826Y1892D01*
X1826Y1894D01*
X1824Y1894D01*
X1824Y1896D01*
X1822Y1896D01*
X1822Y1898D01*
X1820Y1898D01*
X1820Y1900D01*
X1818Y1900D01*
X1818Y1902D01*
X1816Y1902D01*
X1816Y1904D01*
X1814Y1904D01*
X1814Y1906D01*
X1812Y1906D01*
X1812Y1908D01*
X1810Y1908D01*
X1810Y1910D01*
X1806Y1910D01*
X1806Y1912D01*
X1802Y1912D01*
X1802Y1914D01*
X1800Y1914D01*
X1800Y1916D01*
X1796Y1916D01*
X1796Y1918D01*
X1794Y1918D01*
X1794Y1920D01*
X1792Y1920D01*
X1792Y1924D01*
X1790Y1924D01*
X1790Y1926D01*
X1788Y1926D01*
X1788Y1930D01*
X1786Y1930D01*
X1786Y1934D01*
X1784Y1934D01*
X1784Y1944D01*
X1782Y1944D01*
X1782Y1952D01*
X1784Y1952D01*
X1784Y1960D01*
X1786Y1960D01*
X1786Y1966D01*
X1788Y1966D01*
X1788Y1968D01*
X1790Y1968D01*
X1790Y1972D01*
X1792Y1972D01*
X1792Y1974D01*
X1794Y1974D01*
X1794Y1976D01*
X1796Y1976D01*
X1796Y1998D01*
X1792Y1998D01*
X1792Y2000D01*
X1790Y2000D01*
X1790Y2002D01*
X1786Y2002D01*
X1786Y2004D01*
X1784Y2004D01*
X1784Y2006D01*
X1782Y2006D01*
X1782Y2008D01*
X1780Y2008D01*
X1780Y2010D01*
X1778Y2010D01*
X1778Y2012D01*
X1776Y2012D01*
X1776Y2016D01*
X1774Y2016D01*
X1774Y2018D01*
X1772Y2018D01*
X1772Y2022D01*
X1770Y2022D01*
X1770Y2028D01*
X1768Y2028D01*
X1768Y2034D01*
X1766Y2034D01*
X1766Y2060D01*
X1768Y2060D01*
X1768Y2068D01*
X1770Y2068D01*
X1770Y2072D01*
X1772Y2072D01*
X1772Y2076D01*
X1774Y2076D01*
X1774Y2078D01*
X1776Y2078D01*
X1776Y2082D01*
X1778Y2082D01*
X1778Y2084D01*
X1780Y2084D01*
X1780Y2086D01*
X1782Y2086D01*
X1782Y2088D01*
X1784Y2088D01*
X1784Y2090D01*
X1786Y2090D01*
X1786Y2092D01*
X1788Y2092D01*
X1788Y2094D01*
X1792Y2094D01*
X1792Y2096D01*
X1794Y2096D01*
X1794Y2098D01*
X1798Y2098D01*
X1798Y2100D01*
X1804Y2100D01*
X1804Y2102D01*
X1812Y2102D01*
X1812Y2104D01*
X1542Y2104D01*
G37*
D02*
G36*
X1832Y2104D02*
X1832Y2102D01*
X1840Y2102D01*
X1840Y2100D01*
X1846Y2100D01*
X1846Y2098D01*
X1850Y2098D01*
X1850Y2096D01*
X1852Y2096D01*
X1852Y2094D01*
X1856Y2094D01*
X1856Y2092D01*
X1858Y2092D01*
X1858Y2090D01*
X1860Y2090D01*
X1860Y2088D01*
X1862Y2088D01*
X1862Y2086D01*
X1864Y2086D01*
X1864Y2084D01*
X1866Y2084D01*
X1866Y2082D01*
X1886Y2082D01*
X1886Y2086D01*
X1888Y2086D01*
X1888Y2088D01*
X1890Y2088D01*
X1890Y2090D01*
X1894Y2090D01*
X1894Y2092D01*
X1896Y2092D01*
X1896Y2094D01*
X1898Y2094D01*
X1898Y2096D01*
X1902Y2096D01*
X1902Y2098D01*
X1906Y2098D01*
X1906Y2100D01*
X1910Y2100D01*
X1910Y2102D01*
X1918Y2102D01*
X1918Y2104D01*
X1832Y2104D01*
G37*
D02*
G36*
X1568Y2086D02*
X1568Y2082D01*
X1570Y2082D01*
X1570Y2080D01*
X1572Y2080D01*
X1572Y2076D01*
X1574Y2076D01*
X1574Y2074D01*
X1594Y2074D01*
X1594Y2076D01*
X1596Y2076D01*
X1596Y2078D01*
X1598Y2078D01*
X1598Y2080D01*
X1602Y2080D01*
X1602Y2082D01*
X1606Y2082D01*
X1606Y2084D01*
X1610Y2084D01*
X1610Y2086D01*
X1568Y2086D01*
G37*
D02*
G36*
X1866Y2012D02*
X1866Y2010D01*
X1864Y2010D01*
X1864Y2008D01*
X1862Y2008D01*
X1862Y2006D01*
X1860Y2006D01*
X1860Y2004D01*
X1858Y2004D01*
X1858Y2002D01*
X1856Y2002D01*
X1856Y2000D01*
X1852Y2000D01*
X1852Y1998D01*
X1850Y1998D01*
X1850Y1996D01*
X1848Y1996D01*
X1848Y1990D01*
X1920Y1990D01*
X1920Y1992D01*
X1912Y1992D01*
X1912Y1994D01*
X1906Y1994D01*
X1906Y1996D01*
X1902Y1996D01*
X1902Y1998D01*
X1900Y1998D01*
X1900Y2000D01*
X1896Y2000D01*
X1896Y2002D01*
X1894Y2002D01*
X1894Y2004D01*
X1892Y2004D01*
X1892Y2006D01*
X1888Y2006D01*
X1888Y2010D01*
X1886Y2010D01*
X1886Y2012D01*
X1866Y2012D01*
G37*
D02*
G36*
X1972Y2012D02*
X1972Y2008D01*
X1970Y2008D01*
X1970Y2006D01*
X1968Y2006D01*
X1968Y2004D01*
X1964Y2004D01*
X1964Y2002D01*
X1962Y2002D01*
X1962Y2000D01*
X1960Y2000D01*
X1960Y1998D01*
X1956Y1998D01*
X1956Y1996D01*
X1952Y1996D01*
X1952Y1994D01*
X1946Y1994D01*
X1946Y1992D01*
X1938Y1992D01*
X1938Y1990D01*
X2028Y1990D01*
X2028Y1992D01*
X2018Y1992D01*
X2018Y1994D01*
X2014Y1994D01*
X2014Y1996D01*
X2010Y1996D01*
X2010Y1998D01*
X2006Y1998D01*
X2006Y2000D01*
X2004Y2000D01*
X2004Y2002D01*
X2000Y2002D01*
X2000Y2004D01*
X1998Y2004D01*
X1998Y2006D01*
X1996Y2006D01*
X1996Y2008D01*
X1994Y2008D01*
X1994Y2010D01*
X1992Y2010D01*
X1992Y2012D01*
X1972Y2012D01*
G37*
D02*
G36*
X1566Y2010D02*
X1566Y2006D01*
X1564Y2006D01*
X1564Y2004D01*
X1560Y2004D01*
X1560Y2002D01*
X1558Y2002D01*
X1558Y2000D01*
X1556Y2000D01*
X1556Y1998D01*
X1552Y1998D01*
X1552Y1996D01*
X1550Y1996D01*
X1550Y1994D01*
X1546Y1994D01*
X1546Y1992D01*
X1540Y1992D01*
X1540Y1990D01*
X1530Y1990D01*
X1530Y1988D01*
X1586Y1988D01*
X1586Y2010D01*
X1566Y2010D01*
G37*
D02*
G36*
X260Y2004D02*
X260Y2002D01*
X258Y2002D01*
X258Y2000D01*
X256Y2000D01*
X256Y1998D01*
X252Y1998D01*
X252Y1996D01*
X250Y1996D01*
X250Y1994D01*
X246Y1994D01*
X246Y1992D01*
X240Y1992D01*
X240Y1990D01*
X230Y1990D01*
X230Y1988D01*
X314Y1988D01*
X314Y1990D01*
X304Y1990D01*
X304Y1992D01*
X298Y1992D01*
X298Y1994D01*
X294Y1994D01*
X294Y1996D01*
X292Y1996D01*
X292Y1998D01*
X288Y1998D01*
X288Y2000D01*
X286Y2000D01*
X286Y2002D01*
X284Y2002D01*
X284Y2004D01*
X260Y2004D01*
G37*
D02*
G36*
X360Y2004D02*
X360Y2002D01*
X358Y2002D01*
X358Y2000D01*
X356Y2000D01*
X356Y1998D01*
X352Y1998D01*
X352Y1996D01*
X350Y1996D01*
X350Y1994D01*
X346Y1994D01*
X346Y1992D01*
X340Y1992D01*
X340Y1990D01*
X330Y1990D01*
X330Y1988D01*
X414Y1988D01*
X414Y1990D01*
X404Y1990D01*
X404Y1992D01*
X398Y1992D01*
X398Y1994D01*
X394Y1994D01*
X394Y1996D01*
X392Y1996D01*
X392Y1998D01*
X388Y1998D01*
X388Y2000D01*
X386Y2000D01*
X386Y2002D01*
X384Y2002D01*
X384Y2004D01*
X360Y2004D01*
G37*
D02*
G36*
X460Y2004D02*
X460Y2002D01*
X458Y2002D01*
X458Y2000D01*
X456Y2000D01*
X456Y1998D01*
X452Y1998D01*
X452Y1996D01*
X450Y1996D01*
X450Y1994D01*
X446Y1994D01*
X446Y1992D01*
X440Y1992D01*
X440Y1990D01*
X430Y1990D01*
X430Y1988D01*
X514Y1988D01*
X514Y1990D01*
X504Y1990D01*
X504Y1992D01*
X498Y1992D01*
X498Y1994D01*
X494Y1994D01*
X494Y1996D01*
X492Y1996D01*
X492Y1998D01*
X488Y1998D01*
X488Y2000D01*
X486Y2000D01*
X486Y2002D01*
X484Y2002D01*
X484Y2004D01*
X460Y2004D01*
G37*
D02*
G36*
X560Y2004D02*
X560Y2002D01*
X558Y2002D01*
X558Y2000D01*
X556Y2000D01*
X556Y1998D01*
X552Y1998D01*
X552Y1996D01*
X550Y1996D01*
X550Y1994D01*
X546Y1994D01*
X546Y1992D01*
X540Y1992D01*
X540Y1990D01*
X530Y1990D01*
X530Y1988D01*
X614Y1988D01*
X614Y1990D01*
X604Y1990D01*
X604Y1992D01*
X598Y1992D01*
X598Y1994D01*
X594Y1994D01*
X594Y1996D01*
X592Y1996D01*
X592Y1998D01*
X588Y1998D01*
X588Y2000D01*
X586Y2000D01*
X586Y2002D01*
X584Y2002D01*
X584Y2004D01*
X560Y2004D01*
G37*
D02*
G36*
X660Y2004D02*
X660Y2002D01*
X658Y2002D01*
X658Y2000D01*
X656Y2000D01*
X656Y1998D01*
X652Y1998D01*
X652Y1996D01*
X650Y1996D01*
X650Y1994D01*
X646Y1994D01*
X646Y1992D01*
X640Y1992D01*
X640Y1990D01*
X630Y1990D01*
X630Y1988D01*
X714Y1988D01*
X714Y1990D01*
X704Y1990D01*
X704Y1992D01*
X698Y1992D01*
X698Y1994D01*
X694Y1994D01*
X694Y1996D01*
X692Y1996D01*
X692Y1998D01*
X688Y1998D01*
X688Y2000D01*
X686Y2000D01*
X686Y2002D01*
X684Y2002D01*
X684Y2004D01*
X660Y2004D01*
G37*
D02*
G36*
X760Y2004D02*
X760Y2002D01*
X758Y2002D01*
X758Y2000D01*
X756Y2000D01*
X756Y1998D01*
X752Y1998D01*
X752Y1996D01*
X750Y1996D01*
X750Y1994D01*
X746Y1994D01*
X746Y1992D01*
X740Y1992D01*
X740Y1990D01*
X730Y1990D01*
X730Y1988D01*
X814Y1988D01*
X814Y1990D01*
X804Y1990D01*
X804Y1992D01*
X798Y1992D01*
X798Y1994D01*
X794Y1994D01*
X794Y1996D01*
X792Y1996D01*
X792Y1998D01*
X788Y1998D01*
X788Y2000D01*
X786Y2000D01*
X786Y2002D01*
X784Y2002D01*
X784Y2004D01*
X760Y2004D01*
G37*
D02*
G36*
X860Y2004D02*
X860Y2002D01*
X858Y2002D01*
X858Y2000D01*
X856Y2000D01*
X856Y1998D01*
X852Y1998D01*
X852Y1996D01*
X850Y1996D01*
X850Y1994D01*
X846Y1994D01*
X846Y1992D01*
X840Y1992D01*
X840Y1990D01*
X830Y1990D01*
X830Y1988D01*
X894Y1988D01*
X894Y1996D01*
X892Y1996D01*
X892Y1998D01*
X888Y1998D01*
X888Y2000D01*
X886Y2000D01*
X886Y2002D01*
X884Y2002D01*
X884Y2004D01*
X860Y2004D01*
G37*
D02*
G36*
X960Y2004D02*
X960Y2002D01*
X958Y2002D01*
X958Y2000D01*
X956Y2000D01*
X956Y1998D01*
X952Y1998D01*
X952Y1996D01*
X950Y1996D01*
X950Y1988D01*
X1014Y1988D01*
X1014Y1990D01*
X1004Y1990D01*
X1004Y1992D01*
X998Y1992D01*
X998Y1994D01*
X994Y1994D01*
X994Y1996D01*
X992Y1996D01*
X992Y1998D01*
X988Y1998D01*
X988Y2000D01*
X986Y2000D01*
X986Y2002D01*
X984Y2002D01*
X984Y2004D01*
X960Y2004D01*
G37*
D02*
G36*
X1360Y2004D02*
X1360Y2002D01*
X1358Y2002D01*
X1358Y2000D01*
X1356Y2000D01*
X1356Y1998D01*
X1352Y1998D01*
X1352Y1996D01*
X1350Y1996D01*
X1350Y1994D01*
X1346Y1994D01*
X1346Y1992D01*
X1340Y1992D01*
X1340Y1990D01*
X1330Y1990D01*
X1330Y1988D01*
X1394Y1988D01*
X1394Y1996D01*
X1392Y1996D01*
X1392Y1998D01*
X1388Y1998D01*
X1388Y2000D01*
X1386Y2000D01*
X1386Y2002D01*
X1384Y2002D01*
X1384Y2004D01*
X1360Y2004D01*
G37*
D02*
G36*
X1460Y2004D02*
X1460Y2002D01*
X1458Y2002D01*
X1458Y2000D01*
X1456Y2000D01*
X1456Y1998D01*
X1452Y1998D01*
X1452Y1996D01*
X1450Y1996D01*
X1450Y1988D01*
X1514Y1988D01*
X1514Y1990D01*
X1504Y1990D01*
X1504Y1992D01*
X1498Y1992D01*
X1498Y1994D01*
X1494Y1994D01*
X1494Y1996D01*
X1492Y1996D01*
X1492Y1998D01*
X1488Y1998D01*
X1488Y2000D01*
X1486Y2000D01*
X1486Y2002D01*
X1484Y2002D01*
X1484Y2004D01*
X1460Y2004D01*
G37*
D02*
G36*
X1848Y1990D02*
X1848Y1988D01*
X2322Y1988D01*
X2322Y1990D01*
X1848Y1990D01*
G37*
D02*
G36*
X1848Y1990D02*
X1848Y1988D01*
X2322Y1988D01*
X2322Y1990D01*
X1848Y1990D01*
G37*
D02*
G36*
X1848Y1990D02*
X1848Y1988D01*
X2322Y1988D01*
X2322Y1990D01*
X1848Y1990D01*
G37*
D02*
G36*
X40Y1988D02*
X40Y1986D01*
X894Y1986D01*
X894Y1988D01*
X40Y1988D01*
G37*
D02*
G36*
X40Y1988D02*
X40Y1986D01*
X894Y1986D01*
X894Y1988D01*
X40Y1988D01*
G37*
D02*
G36*
X40Y1988D02*
X40Y1986D01*
X894Y1986D01*
X894Y1988D01*
X40Y1988D01*
G37*
D02*
G36*
X40Y1988D02*
X40Y1986D01*
X894Y1986D01*
X894Y1988D01*
X40Y1988D01*
G37*
D02*
G36*
X40Y1988D02*
X40Y1986D01*
X894Y1986D01*
X894Y1988D01*
X40Y1988D01*
G37*
D02*
G36*
X40Y1988D02*
X40Y1986D01*
X894Y1986D01*
X894Y1988D01*
X40Y1988D01*
G37*
D02*
G36*
X40Y1988D02*
X40Y1986D01*
X894Y1986D01*
X894Y1988D01*
X40Y1988D01*
G37*
D02*
G36*
X40Y1988D02*
X40Y1986D01*
X894Y1986D01*
X894Y1988D01*
X40Y1988D01*
G37*
D02*
G36*
X950Y1988D02*
X950Y1986D01*
X1394Y1986D01*
X1394Y1988D01*
X950Y1988D01*
G37*
D02*
G36*
X950Y1988D02*
X950Y1986D01*
X1394Y1986D01*
X1394Y1988D01*
X950Y1988D01*
G37*
D02*
G36*
X950Y1988D02*
X950Y1986D01*
X1394Y1986D01*
X1394Y1988D01*
X950Y1988D01*
G37*
D02*
G36*
X1450Y1988D02*
X1450Y1986D01*
X1586Y1986D01*
X1586Y1988D01*
X1450Y1988D01*
G37*
D02*
G36*
X1450Y1988D02*
X1450Y1986D01*
X1586Y1986D01*
X1586Y1988D01*
X1450Y1988D01*
G37*
D02*
G36*
X1848Y1988D02*
X1848Y1976D01*
X1850Y1976D01*
X1850Y1974D01*
X1852Y1974D01*
X1852Y1972D01*
X1854Y1972D01*
X1854Y1970D01*
X1856Y1970D01*
X1856Y1966D01*
X1858Y1966D01*
X1858Y1962D01*
X1860Y1962D01*
X1860Y1958D01*
X1862Y1958D01*
X1862Y1956D01*
X1866Y1956D01*
X1866Y1954D01*
X1868Y1954D01*
X1868Y1952D01*
X1870Y1952D01*
X1870Y1950D01*
X1872Y1950D01*
X1872Y1948D01*
X1874Y1948D01*
X1874Y1946D01*
X1876Y1946D01*
X1876Y1944D01*
X1878Y1944D01*
X1878Y1942D01*
X1880Y1942D01*
X1880Y1940D01*
X1882Y1940D01*
X1882Y1938D01*
X1884Y1938D01*
X1884Y1936D01*
X1886Y1936D01*
X1886Y1934D01*
X1888Y1934D01*
X1888Y1932D01*
X1890Y1932D01*
X1890Y1930D01*
X1892Y1930D01*
X1892Y1928D01*
X1894Y1928D01*
X1894Y1926D01*
X1896Y1926D01*
X1896Y1924D01*
X1898Y1924D01*
X1898Y1922D01*
X1900Y1922D01*
X1900Y1920D01*
X1902Y1920D01*
X1902Y1918D01*
X1904Y1918D01*
X1904Y1916D01*
X1906Y1916D01*
X1906Y1914D01*
X1908Y1914D01*
X1908Y1912D01*
X1910Y1912D01*
X1910Y1910D01*
X1912Y1910D01*
X1912Y1908D01*
X1914Y1908D01*
X1914Y1906D01*
X1916Y1906D01*
X1916Y1904D01*
X1918Y1904D01*
X1918Y1902D01*
X1920Y1902D01*
X1920Y1900D01*
X1922Y1900D01*
X1922Y1898D01*
X1924Y1898D01*
X1924Y1896D01*
X1926Y1896D01*
X1926Y1894D01*
X1928Y1894D01*
X1928Y1892D01*
X1930Y1892D01*
X1930Y1890D01*
X1932Y1890D01*
X1932Y1888D01*
X1934Y1888D01*
X1934Y1886D01*
X1936Y1886D01*
X1936Y1884D01*
X1938Y1884D01*
X1938Y1882D01*
X1940Y1882D01*
X1940Y1880D01*
X1942Y1880D01*
X1942Y1878D01*
X1944Y1878D01*
X1944Y1876D01*
X1946Y1876D01*
X1946Y1874D01*
X1948Y1874D01*
X1948Y1872D01*
X1950Y1872D01*
X1950Y1868D01*
X1952Y1868D01*
X1952Y1866D01*
X1954Y1866D01*
X1954Y1862D01*
X1956Y1862D01*
X1956Y1856D01*
X1958Y1856D01*
X1958Y1338D01*
X1956Y1338D01*
X1956Y1332D01*
X1954Y1332D01*
X1954Y1328D01*
X1952Y1328D01*
X1952Y1326D01*
X1950Y1326D01*
X1950Y1324D01*
X1948Y1324D01*
X1948Y1322D01*
X1946Y1322D01*
X1946Y1320D01*
X1944Y1320D01*
X1944Y1318D01*
X1942Y1318D01*
X1942Y1316D01*
X1940Y1316D01*
X1940Y1314D01*
X1938Y1314D01*
X1938Y1312D01*
X1936Y1312D01*
X1936Y1310D01*
X1934Y1310D01*
X1934Y1308D01*
X1932Y1308D01*
X1932Y1306D01*
X1930Y1306D01*
X1930Y1304D01*
X1928Y1304D01*
X1928Y1302D01*
X1926Y1302D01*
X1926Y1300D01*
X1924Y1300D01*
X1924Y1298D01*
X1922Y1298D01*
X1922Y1296D01*
X1920Y1296D01*
X1920Y1294D01*
X1918Y1294D01*
X1918Y1292D01*
X1916Y1292D01*
X1916Y1290D01*
X1914Y1290D01*
X1914Y1288D01*
X1912Y1288D01*
X1912Y1286D01*
X1910Y1286D01*
X1910Y1284D01*
X1908Y1284D01*
X1908Y1282D01*
X1906Y1282D01*
X1906Y1280D01*
X1904Y1280D01*
X1904Y1278D01*
X1902Y1278D01*
X1902Y1276D01*
X1900Y1276D01*
X1900Y1274D01*
X1898Y1274D01*
X1898Y1272D01*
X1896Y1272D01*
X1896Y1270D01*
X1894Y1270D01*
X1894Y1268D01*
X1892Y1268D01*
X1892Y1266D01*
X1890Y1266D01*
X1890Y1264D01*
X1888Y1264D01*
X1888Y1262D01*
X1886Y1262D01*
X1886Y1260D01*
X1884Y1260D01*
X1884Y1258D01*
X1882Y1258D01*
X1882Y1256D01*
X1880Y1256D01*
X1880Y1254D01*
X1878Y1254D01*
X1878Y1252D01*
X1876Y1252D01*
X1876Y1250D01*
X1874Y1250D01*
X1874Y1248D01*
X1872Y1248D01*
X1872Y1246D01*
X1870Y1246D01*
X1870Y1244D01*
X1868Y1244D01*
X1868Y1242D01*
X1866Y1242D01*
X1866Y1240D01*
X1864Y1240D01*
X1864Y1238D01*
X1862Y1238D01*
X1862Y1236D01*
X1860Y1236D01*
X1860Y1232D01*
X1858Y1232D01*
X1858Y1228D01*
X1856Y1228D01*
X1856Y1226D01*
X1854Y1226D01*
X1854Y1222D01*
X1852Y1222D01*
X1852Y1220D01*
X1850Y1220D01*
X1850Y1218D01*
X1848Y1218D01*
X1848Y1216D01*
X1846Y1216D01*
X1846Y1214D01*
X1842Y1214D01*
X1842Y1212D01*
X1838Y1212D01*
X1838Y1210D01*
X1832Y1210D01*
X1832Y1208D01*
X2322Y1208D01*
X2322Y1988D01*
X1848Y1988D01*
G37*
D02*
G36*
X40Y1986D02*
X40Y1886D01*
X734Y1886D01*
X734Y1884D01*
X740Y1884D01*
X740Y1882D01*
X742Y1882D01*
X742Y1880D01*
X746Y1880D01*
X746Y1878D01*
X748Y1878D01*
X748Y1876D01*
X750Y1876D01*
X750Y1874D01*
X752Y1874D01*
X752Y1872D01*
X754Y1872D01*
X754Y1870D01*
X756Y1870D01*
X756Y1866D01*
X758Y1866D01*
X758Y1862D01*
X760Y1862D01*
X760Y1854D01*
X762Y1854D01*
X762Y1840D01*
X760Y1840D01*
X760Y1832D01*
X758Y1832D01*
X758Y1828D01*
X756Y1828D01*
X756Y1826D01*
X754Y1826D01*
X754Y1822D01*
X752Y1822D01*
X752Y1820D01*
X750Y1820D01*
X750Y1818D01*
X748Y1818D01*
X748Y1816D01*
X746Y1816D01*
X746Y1814D01*
X742Y1814D01*
X742Y1812D01*
X738Y1812D01*
X738Y1810D01*
X732Y1810D01*
X732Y1808D01*
X714Y1808D01*
X714Y1806D01*
X710Y1806D01*
X710Y1804D01*
X706Y1804D01*
X706Y1802D01*
X702Y1802D01*
X702Y1800D01*
X698Y1800D01*
X698Y1798D01*
X694Y1798D01*
X694Y1796D01*
X690Y1796D01*
X690Y1794D01*
X686Y1794D01*
X686Y1792D01*
X682Y1792D01*
X682Y1790D01*
X678Y1790D01*
X678Y1788D01*
X676Y1788D01*
X676Y1786D01*
X672Y1786D01*
X672Y1784D01*
X668Y1784D01*
X668Y1782D01*
X664Y1782D01*
X664Y1780D01*
X660Y1780D01*
X660Y1778D01*
X656Y1778D01*
X656Y1776D01*
X652Y1776D01*
X652Y1774D01*
X648Y1774D01*
X648Y1772D01*
X644Y1772D01*
X644Y1770D01*
X640Y1770D01*
X640Y1768D01*
X636Y1768D01*
X636Y1766D01*
X630Y1766D01*
X630Y1764D01*
X334Y1764D01*
X334Y1762D01*
X332Y1762D01*
X332Y1760D01*
X330Y1760D01*
X330Y1758D01*
X328Y1758D01*
X328Y1756D01*
X326Y1756D01*
X326Y1754D01*
X324Y1754D01*
X324Y1752D01*
X322Y1752D01*
X322Y1750D01*
X320Y1750D01*
X320Y1748D01*
X318Y1748D01*
X318Y1746D01*
X316Y1746D01*
X316Y1744D01*
X314Y1744D01*
X314Y1742D01*
X312Y1742D01*
X312Y1740D01*
X310Y1740D01*
X310Y1738D01*
X308Y1738D01*
X308Y1736D01*
X306Y1736D01*
X306Y1734D01*
X304Y1734D01*
X304Y1606D01*
X1036Y1606D01*
X1036Y1604D01*
X1044Y1604D01*
X1044Y1602D01*
X1048Y1602D01*
X1048Y1600D01*
X1052Y1600D01*
X1052Y1598D01*
X1054Y1598D01*
X1054Y1596D01*
X1058Y1596D01*
X1058Y1594D01*
X1060Y1594D01*
X1060Y1592D01*
X1062Y1592D01*
X1062Y1590D01*
X1082Y1590D01*
X1082Y1592D01*
X1084Y1592D01*
X1084Y1594D01*
X1088Y1594D01*
X1088Y1596D01*
X1090Y1596D01*
X1090Y1598D01*
X1092Y1598D01*
X1092Y1600D01*
X1096Y1600D01*
X1096Y1602D01*
X1102Y1602D01*
X1102Y1622D01*
X1100Y1622D01*
X1100Y1624D01*
X1098Y1624D01*
X1098Y1626D01*
X1096Y1626D01*
X1096Y1628D01*
X1094Y1628D01*
X1094Y1630D01*
X1092Y1630D01*
X1092Y1632D01*
X1090Y1632D01*
X1090Y1634D01*
X1088Y1634D01*
X1088Y1636D01*
X1086Y1636D01*
X1086Y1638D01*
X1084Y1638D01*
X1084Y1640D01*
X1082Y1640D01*
X1082Y1642D01*
X1080Y1642D01*
X1080Y1644D01*
X1078Y1644D01*
X1078Y1646D01*
X1076Y1646D01*
X1076Y1648D01*
X1074Y1648D01*
X1074Y1650D01*
X1072Y1650D01*
X1072Y1652D01*
X1070Y1652D01*
X1070Y1654D01*
X1068Y1654D01*
X1068Y1656D01*
X1066Y1656D01*
X1066Y1658D01*
X1064Y1658D01*
X1064Y1660D01*
X1062Y1660D01*
X1062Y1662D01*
X1060Y1662D01*
X1060Y1664D01*
X1058Y1664D01*
X1058Y1666D01*
X1056Y1666D01*
X1056Y1668D01*
X1054Y1668D01*
X1054Y1670D01*
X1052Y1670D01*
X1052Y1672D01*
X1050Y1672D01*
X1050Y1674D01*
X1048Y1674D01*
X1048Y1676D01*
X1046Y1676D01*
X1046Y1678D01*
X1044Y1678D01*
X1044Y1680D01*
X1042Y1680D01*
X1042Y1682D01*
X1040Y1682D01*
X1040Y1684D01*
X1038Y1684D01*
X1038Y1686D01*
X1036Y1686D01*
X1036Y1688D01*
X1034Y1688D01*
X1034Y1690D01*
X1032Y1690D01*
X1032Y1692D01*
X1030Y1692D01*
X1030Y1694D01*
X1028Y1694D01*
X1028Y1696D01*
X1026Y1696D01*
X1026Y1698D01*
X1024Y1698D01*
X1024Y1700D01*
X1022Y1700D01*
X1022Y1702D01*
X1020Y1702D01*
X1020Y1704D01*
X1018Y1704D01*
X1018Y1706D01*
X1016Y1706D01*
X1016Y1708D01*
X1014Y1708D01*
X1014Y1710D01*
X1012Y1710D01*
X1012Y1712D01*
X1010Y1712D01*
X1010Y1714D01*
X1008Y1714D01*
X1008Y1716D01*
X1006Y1716D01*
X1006Y1718D01*
X1004Y1718D01*
X1004Y1720D01*
X1002Y1720D01*
X1002Y1722D01*
X1000Y1722D01*
X1000Y1724D01*
X998Y1724D01*
X998Y1726D01*
X996Y1726D01*
X996Y1728D01*
X994Y1728D01*
X994Y1730D01*
X992Y1730D01*
X992Y1732D01*
X990Y1732D01*
X990Y1734D01*
X988Y1734D01*
X988Y1736D01*
X986Y1736D01*
X986Y1738D01*
X984Y1738D01*
X984Y1740D01*
X982Y1740D01*
X982Y1742D01*
X980Y1742D01*
X980Y1744D01*
X978Y1744D01*
X978Y1746D01*
X976Y1746D01*
X976Y1748D01*
X974Y1748D01*
X974Y1750D01*
X972Y1750D01*
X972Y1752D01*
X970Y1752D01*
X970Y1754D01*
X968Y1754D01*
X968Y1756D01*
X966Y1756D01*
X966Y1758D01*
X964Y1758D01*
X964Y1760D01*
X962Y1760D01*
X962Y1762D01*
X958Y1762D01*
X958Y1764D01*
X956Y1764D01*
X956Y1766D01*
X954Y1766D01*
X954Y1768D01*
X952Y1768D01*
X952Y1770D01*
X950Y1770D01*
X950Y1772D01*
X948Y1772D01*
X948Y1774D01*
X946Y1774D01*
X946Y1776D01*
X944Y1776D01*
X944Y1778D01*
X942Y1778D01*
X942Y1780D01*
X940Y1780D01*
X940Y1782D01*
X938Y1782D01*
X938Y1784D01*
X936Y1784D01*
X936Y1786D01*
X934Y1786D01*
X934Y1788D01*
X932Y1788D01*
X932Y1790D01*
X930Y1790D01*
X930Y1792D01*
X928Y1792D01*
X928Y1794D01*
X926Y1794D01*
X926Y1796D01*
X924Y1796D01*
X924Y1798D01*
X922Y1798D01*
X922Y1800D01*
X920Y1800D01*
X920Y1802D01*
X918Y1802D01*
X918Y1804D01*
X916Y1804D01*
X916Y1806D01*
X914Y1806D01*
X914Y1808D01*
X912Y1808D01*
X912Y1810D01*
X910Y1810D01*
X910Y1812D01*
X908Y1812D01*
X908Y1814D01*
X906Y1814D01*
X906Y1816D01*
X904Y1816D01*
X904Y1818D01*
X902Y1818D01*
X902Y1820D01*
X900Y1820D01*
X900Y1822D01*
X898Y1822D01*
X898Y1824D01*
X896Y1824D01*
X896Y1828D01*
X894Y1828D01*
X894Y1830D01*
X892Y1830D01*
X892Y1834D01*
X890Y1834D01*
X890Y1844D01*
X888Y1844D01*
X888Y1856D01*
X890Y1856D01*
X890Y1926D01*
X888Y1926D01*
X888Y1930D01*
X886Y1930D01*
X886Y1934D01*
X884Y1934D01*
X884Y1944D01*
X882Y1944D01*
X882Y1952D01*
X884Y1952D01*
X884Y1960D01*
X886Y1960D01*
X886Y1966D01*
X888Y1966D01*
X888Y1968D01*
X890Y1968D01*
X890Y1972D01*
X892Y1972D01*
X892Y1974D01*
X894Y1974D01*
X894Y1986D01*
X40Y1986D01*
G37*
D02*
G36*
X950Y1986D02*
X950Y1974D01*
X952Y1974D01*
X952Y1972D01*
X954Y1972D01*
X954Y1970D01*
X956Y1970D01*
X956Y1966D01*
X958Y1966D01*
X958Y1962D01*
X960Y1962D01*
X960Y1954D01*
X962Y1954D01*
X962Y1940D01*
X960Y1940D01*
X960Y1932D01*
X958Y1932D01*
X958Y1928D01*
X956Y1928D01*
X956Y1926D01*
X954Y1926D01*
X954Y1908D01*
X1412Y1908D01*
X1412Y1910D01*
X1406Y1910D01*
X1406Y1912D01*
X1402Y1912D01*
X1402Y1914D01*
X1400Y1914D01*
X1400Y1916D01*
X1396Y1916D01*
X1396Y1918D01*
X1394Y1918D01*
X1394Y1920D01*
X1392Y1920D01*
X1392Y1924D01*
X1390Y1924D01*
X1390Y1926D01*
X1388Y1926D01*
X1388Y1930D01*
X1386Y1930D01*
X1386Y1934D01*
X1384Y1934D01*
X1384Y1944D01*
X1382Y1944D01*
X1382Y1952D01*
X1384Y1952D01*
X1384Y1960D01*
X1386Y1960D01*
X1386Y1966D01*
X1388Y1966D01*
X1388Y1968D01*
X1390Y1968D01*
X1390Y1972D01*
X1392Y1972D01*
X1392Y1974D01*
X1394Y1974D01*
X1394Y1986D01*
X950Y1986D01*
G37*
D02*
G36*
X1450Y1986D02*
X1450Y1974D01*
X1452Y1974D01*
X1452Y1972D01*
X1454Y1972D01*
X1454Y1970D01*
X1456Y1970D01*
X1456Y1966D01*
X1458Y1966D01*
X1458Y1962D01*
X1460Y1962D01*
X1460Y1954D01*
X1462Y1954D01*
X1462Y1940D01*
X1460Y1940D01*
X1460Y1932D01*
X1458Y1932D01*
X1458Y1928D01*
X1456Y1928D01*
X1456Y1926D01*
X1454Y1926D01*
X1454Y1922D01*
X1452Y1922D01*
X1452Y1920D01*
X1450Y1920D01*
X1450Y1918D01*
X1448Y1918D01*
X1448Y1916D01*
X1446Y1916D01*
X1446Y1914D01*
X1442Y1914D01*
X1442Y1912D01*
X1438Y1912D01*
X1438Y1910D01*
X1432Y1910D01*
X1432Y1908D01*
X1610Y1908D01*
X1610Y1910D01*
X1608Y1910D01*
X1608Y1912D01*
X1606Y1912D01*
X1606Y1914D01*
X1604Y1914D01*
X1604Y1916D01*
X1602Y1916D01*
X1602Y1918D01*
X1600Y1918D01*
X1600Y1920D01*
X1598Y1920D01*
X1598Y1922D01*
X1596Y1922D01*
X1596Y1924D01*
X1594Y1924D01*
X1594Y1926D01*
X1592Y1926D01*
X1592Y1930D01*
X1590Y1930D01*
X1590Y1934D01*
X1588Y1934D01*
X1588Y1940D01*
X1586Y1940D01*
X1586Y1986D01*
X1450Y1986D01*
G37*
D02*
G36*
X954Y1908D02*
X954Y1906D01*
X1612Y1906D01*
X1612Y1908D01*
X954Y1908D01*
G37*
D02*
G36*
X954Y1908D02*
X954Y1906D01*
X1612Y1906D01*
X1612Y1908D01*
X954Y1908D01*
G37*
D02*
G36*
X954Y1906D02*
X954Y1904D01*
X1536Y1904D01*
X1536Y1902D01*
X1542Y1902D01*
X1542Y1900D01*
X1546Y1900D01*
X1546Y1898D01*
X1550Y1898D01*
X1550Y1896D01*
X1554Y1896D01*
X1554Y1894D01*
X1556Y1894D01*
X1556Y1892D01*
X1558Y1892D01*
X1558Y1890D01*
X1562Y1890D01*
X1562Y1888D01*
X1564Y1888D01*
X1564Y1886D01*
X1566Y1886D01*
X1566Y1882D01*
X1568Y1882D01*
X1568Y1880D01*
X1570Y1880D01*
X1570Y1878D01*
X1572Y1878D01*
X1572Y1874D01*
X1574Y1874D01*
X1574Y1870D01*
X1576Y1870D01*
X1576Y1864D01*
X1578Y1864D01*
X1578Y1856D01*
X1580Y1856D01*
X1580Y1840D01*
X1578Y1840D01*
X1578Y1830D01*
X1576Y1830D01*
X1576Y1824D01*
X1574Y1824D01*
X1574Y1820D01*
X1572Y1820D01*
X1572Y1818D01*
X1570Y1818D01*
X1570Y1814D01*
X1568Y1814D01*
X1568Y1812D01*
X1566Y1812D01*
X1566Y1810D01*
X1564Y1810D01*
X1564Y1808D01*
X1712Y1808D01*
X1712Y1810D01*
X1706Y1810D01*
X1706Y1812D01*
X1702Y1812D01*
X1702Y1814D01*
X1700Y1814D01*
X1700Y1816D01*
X1696Y1816D01*
X1696Y1818D01*
X1694Y1818D01*
X1694Y1820D01*
X1692Y1820D01*
X1692Y1824D01*
X1690Y1824D01*
X1690Y1826D01*
X1688Y1826D01*
X1688Y1830D01*
X1686Y1830D01*
X1686Y1834D01*
X1684Y1834D01*
X1684Y1836D01*
X1682Y1836D01*
X1682Y1838D01*
X1680Y1838D01*
X1680Y1840D01*
X1678Y1840D01*
X1678Y1842D01*
X1676Y1842D01*
X1676Y1844D01*
X1674Y1844D01*
X1674Y1846D01*
X1672Y1846D01*
X1672Y1848D01*
X1670Y1848D01*
X1670Y1850D01*
X1668Y1850D01*
X1668Y1852D01*
X1666Y1852D01*
X1666Y1854D01*
X1664Y1854D01*
X1664Y1856D01*
X1662Y1856D01*
X1662Y1858D01*
X1660Y1858D01*
X1660Y1860D01*
X1658Y1860D01*
X1658Y1862D01*
X1656Y1862D01*
X1656Y1864D01*
X1654Y1864D01*
X1654Y1866D01*
X1652Y1866D01*
X1652Y1868D01*
X1650Y1868D01*
X1650Y1870D01*
X1648Y1870D01*
X1648Y1872D01*
X1646Y1872D01*
X1646Y1874D01*
X1644Y1874D01*
X1644Y1876D01*
X1642Y1876D01*
X1642Y1878D01*
X1640Y1878D01*
X1640Y1880D01*
X1638Y1880D01*
X1638Y1882D01*
X1636Y1882D01*
X1636Y1884D01*
X1634Y1884D01*
X1634Y1886D01*
X1632Y1886D01*
X1632Y1888D01*
X1630Y1888D01*
X1630Y1890D01*
X1628Y1890D01*
X1628Y1892D01*
X1626Y1892D01*
X1626Y1894D01*
X1624Y1894D01*
X1624Y1896D01*
X1622Y1896D01*
X1622Y1898D01*
X1620Y1898D01*
X1620Y1900D01*
X1618Y1900D01*
X1618Y1902D01*
X1616Y1902D01*
X1616Y1904D01*
X1614Y1904D01*
X1614Y1906D01*
X954Y1906D01*
G37*
D02*
G36*
X954Y1904D02*
X954Y1858D01*
X956Y1858D01*
X956Y1856D01*
X958Y1856D01*
X958Y1854D01*
X960Y1854D01*
X960Y1852D01*
X962Y1852D01*
X962Y1850D01*
X964Y1850D01*
X964Y1848D01*
X966Y1848D01*
X966Y1846D01*
X968Y1846D01*
X968Y1844D01*
X970Y1844D01*
X970Y1842D01*
X972Y1842D01*
X972Y1840D01*
X974Y1840D01*
X974Y1838D01*
X976Y1838D01*
X976Y1836D01*
X978Y1836D01*
X978Y1834D01*
X980Y1834D01*
X980Y1832D01*
X982Y1832D01*
X982Y1830D01*
X984Y1830D01*
X984Y1828D01*
X986Y1828D01*
X986Y1826D01*
X988Y1826D01*
X988Y1824D01*
X990Y1824D01*
X990Y1822D01*
X992Y1822D01*
X992Y1820D01*
X994Y1820D01*
X994Y1818D01*
X996Y1818D01*
X996Y1816D01*
X998Y1816D01*
X998Y1814D01*
X1000Y1814D01*
X1000Y1812D01*
X1002Y1812D01*
X1002Y1810D01*
X1004Y1810D01*
X1004Y1808D01*
X1006Y1808D01*
X1006Y1806D01*
X1008Y1806D01*
X1008Y1804D01*
X1010Y1804D01*
X1010Y1802D01*
X1012Y1802D01*
X1012Y1800D01*
X1014Y1800D01*
X1014Y1798D01*
X1016Y1798D01*
X1016Y1796D01*
X1018Y1796D01*
X1018Y1794D01*
X1020Y1794D01*
X1020Y1792D01*
X1022Y1792D01*
X1022Y1790D01*
X1024Y1790D01*
X1024Y1788D01*
X1026Y1788D01*
X1026Y1786D01*
X1028Y1786D01*
X1028Y1784D01*
X1030Y1784D01*
X1030Y1782D01*
X1032Y1782D01*
X1032Y1780D01*
X1034Y1780D01*
X1034Y1778D01*
X1036Y1778D01*
X1036Y1776D01*
X1038Y1776D01*
X1038Y1774D01*
X1040Y1774D01*
X1040Y1772D01*
X1042Y1772D01*
X1042Y1770D01*
X1044Y1770D01*
X1044Y1768D01*
X1046Y1768D01*
X1046Y1766D01*
X1048Y1766D01*
X1048Y1764D01*
X1050Y1764D01*
X1050Y1762D01*
X1052Y1762D01*
X1052Y1760D01*
X1054Y1760D01*
X1054Y1758D01*
X1056Y1758D01*
X1056Y1756D01*
X1058Y1756D01*
X1058Y1754D01*
X1060Y1754D01*
X1060Y1752D01*
X1062Y1752D01*
X1062Y1750D01*
X1082Y1750D01*
X1082Y1752D01*
X1084Y1752D01*
X1084Y1760D01*
X1086Y1760D01*
X1086Y1766D01*
X1088Y1766D01*
X1088Y1768D01*
X1090Y1768D01*
X1090Y1772D01*
X1092Y1772D01*
X1092Y1774D01*
X1094Y1774D01*
X1094Y1776D01*
X1096Y1776D01*
X1096Y1796D01*
X1094Y1796D01*
X1094Y1798D01*
X1092Y1798D01*
X1092Y1800D01*
X1088Y1800D01*
X1088Y1802D01*
X1086Y1802D01*
X1086Y1804D01*
X1084Y1804D01*
X1084Y1806D01*
X1082Y1806D01*
X1082Y1808D01*
X1080Y1808D01*
X1080Y1810D01*
X1078Y1810D01*
X1078Y1812D01*
X1076Y1812D01*
X1076Y1814D01*
X1074Y1814D01*
X1074Y1818D01*
X1072Y1818D01*
X1072Y1822D01*
X1070Y1822D01*
X1070Y1826D01*
X1068Y1826D01*
X1068Y1832D01*
X1066Y1832D01*
X1066Y1842D01*
X1064Y1842D01*
X1064Y1852D01*
X1066Y1852D01*
X1066Y1862D01*
X1068Y1862D01*
X1068Y1868D01*
X1070Y1868D01*
X1070Y1874D01*
X1072Y1874D01*
X1072Y1876D01*
X1074Y1876D01*
X1074Y1880D01*
X1076Y1880D01*
X1076Y1882D01*
X1078Y1882D01*
X1078Y1884D01*
X1080Y1884D01*
X1080Y1888D01*
X1082Y1888D01*
X1082Y1890D01*
X1086Y1890D01*
X1086Y1892D01*
X1088Y1892D01*
X1088Y1894D01*
X1090Y1894D01*
X1090Y1896D01*
X1094Y1896D01*
X1094Y1898D01*
X1098Y1898D01*
X1098Y1900D01*
X1102Y1900D01*
X1102Y1902D01*
X1110Y1902D01*
X1110Y1904D01*
X954Y1904D01*
G37*
D02*
G36*
X1136Y1904D02*
X1136Y1902D01*
X1142Y1902D01*
X1142Y1900D01*
X1146Y1900D01*
X1146Y1898D01*
X1150Y1898D01*
X1150Y1896D01*
X1154Y1896D01*
X1154Y1894D01*
X1156Y1894D01*
X1156Y1892D01*
X1158Y1892D01*
X1158Y1890D01*
X1162Y1890D01*
X1162Y1888D01*
X1164Y1888D01*
X1164Y1886D01*
X1166Y1886D01*
X1166Y1882D01*
X1168Y1882D01*
X1168Y1880D01*
X1170Y1880D01*
X1170Y1878D01*
X1172Y1878D01*
X1172Y1874D01*
X1174Y1874D01*
X1174Y1870D01*
X1176Y1870D01*
X1176Y1864D01*
X1178Y1864D01*
X1178Y1856D01*
X1180Y1856D01*
X1180Y1840D01*
X1178Y1840D01*
X1178Y1830D01*
X1176Y1830D01*
X1176Y1824D01*
X1174Y1824D01*
X1174Y1820D01*
X1172Y1820D01*
X1172Y1818D01*
X1170Y1818D01*
X1170Y1814D01*
X1168Y1814D01*
X1168Y1812D01*
X1166Y1812D01*
X1166Y1810D01*
X1164Y1810D01*
X1164Y1806D01*
X1160Y1806D01*
X1160Y1804D01*
X1158Y1804D01*
X1158Y1802D01*
X1156Y1802D01*
X1156Y1800D01*
X1154Y1800D01*
X1154Y1798D01*
X1150Y1798D01*
X1150Y1796D01*
X1148Y1796D01*
X1148Y1790D01*
X1510Y1790D01*
X1510Y1792D01*
X1504Y1792D01*
X1504Y1794D01*
X1498Y1794D01*
X1498Y1796D01*
X1494Y1796D01*
X1494Y1798D01*
X1492Y1798D01*
X1492Y1800D01*
X1488Y1800D01*
X1488Y1802D01*
X1486Y1802D01*
X1486Y1804D01*
X1484Y1804D01*
X1484Y1806D01*
X1482Y1806D01*
X1482Y1808D01*
X1480Y1808D01*
X1480Y1810D01*
X1478Y1810D01*
X1478Y1812D01*
X1476Y1812D01*
X1476Y1814D01*
X1474Y1814D01*
X1474Y1818D01*
X1472Y1818D01*
X1472Y1822D01*
X1470Y1822D01*
X1470Y1826D01*
X1468Y1826D01*
X1468Y1832D01*
X1466Y1832D01*
X1466Y1842D01*
X1464Y1842D01*
X1464Y1852D01*
X1466Y1852D01*
X1466Y1862D01*
X1468Y1862D01*
X1468Y1868D01*
X1470Y1868D01*
X1470Y1874D01*
X1472Y1874D01*
X1472Y1876D01*
X1474Y1876D01*
X1474Y1880D01*
X1476Y1880D01*
X1476Y1882D01*
X1478Y1882D01*
X1478Y1884D01*
X1480Y1884D01*
X1480Y1888D01*
X1482Y1888D01*
X1482Y1890D01*
X1486Y1890D01*
X1486Y1892D01*
X1488Y1892D01*
X1488Y1894D01*
X1490Y1894D01*
X1490Y1896D01*
X1494Y1896D01*
X1494Y1898D01*
X1498Y1898D01*
X1498Y1900D01*
X1502Y1900D01*
X1502Y1902D01*
X1510Y1902D01*
X1510Y1904D01*
X1136Y1904D01*
G37*
D02*
G36*
X40Y1886D02*
X40Y588D01*
X410Y588D01*
X410Y590D01*
X402Y590D01*
X402Y592D01*
X398Y592D01*
X398Y594D01*
X394Y594D01*
X394Y596D01*
X390Y596D01*
X390Y598D01*
X388Y598D01*
X388Y600D01*
X384Y600D01*
X384Y602D01*
X382Y602D01*
X382Y604D01*
X380Y604D01*
X380Y606D01*
X378Y606D01*
X378Y608D01*
X376Y608D01*
X376Y612D01*
X374Y612D01*
X374Y614D01*
X372Y614D01*
X372Y616D01*
X370Y616D01*
X370Y620D01*
X368Y620D01*
X368Y624D01*
X366Y624D01*
X366Y630D01*
X364Y630D01*
X364Y640D01*
X362Y640D01*
X362Y654D01*
X364Y654D01*
X364Y664D01*
X366Y664D01*
X366Y670D01*
X368Y670D01*
X368Y674D01*
X370Y674D01*
X370Y678D01*
X372Y678D01*
X372Y680D01*
X374Y680D01*
X374Y684D01*
X376Y684D01*
X376Y686D01*
X378Y686D01*
X378Y688D01*
X380Y688D01*
X380Y690D01*
X382Y690D01*
X382Y692D01*
X384Y692D01*
X384Y694D01*
X388Y694D01*
X388Y696D01*
X390Y696D01*
X390Y698D01*
X392Y698D01*
X392Y700D01*
X394Y700D01*
X394Y720D01*
X392Y720D01*
X392Y724D01*
X390Y724D01*
X390Y726D01*
X388Y726D01*
X388Y730D01*
X386Y730D01*
X386Y734D01*
X384Y734D01*
X384Y744D01*
X382Y744D01*
X382Y752D01*
X384Y752D01*
X384Y760D01*
X386Y760D01*
X386Y766D01*
X388Y766D01*
X388Y768D01*
X390Y768D01*
X390Y1000D01*
X388Y1000D01*
X388Y1002D01*
X386Y1002D01*
X386Y1004D01*
X384Y1004D01*
X384Y1006D01*
X382Y1006D01*
X382Y1008D01*
X380Y1008D01*
X380Y1010D01*
X378Y1010D01*
X378Y1012D01*
X376Y1012D01*
X376Y1014D01*
X374Y1014D01*
X374Y1016D01*
X314Y1016D01*
X314Y1018D01*
X308Y1018D01*
X308Y1020D01*
X304Y1020D01*
X304Y1022D01*
X302Y1022D01*
X302Y1024D01*
X300Y1024D01*
X300Y1026D01*
X298Y1026D01*
X298Y1028D01*
X296Y1028D01*
X296Y1030D01*
X294Y1030D01*
X294Y1032D01*
X292Y1032D01*
X292Y1034D01*
X290Y1034D01*
X290Y1036D01*
X288Y1036D01*
X288Y1038D01*
X286Y1038D01*
X286Y1040D01*
X284Y1040D01*
X284Y1042D01*
X282Y1042D01*
X282Y1044D01*
X280Y1044D01*
X280Y1046D01*
X278Y1046D01*
X278Y1048D01*
X276Y1048D01*
X276Y1050D01*
X274Y1050D01*
X274Y1052D01*
X272Y1052D01*
X272Y1054D01*
X270Y1054D01*
X270Y1056D01*
X268Y1056D01*
X268Y1058D01*
X266Y1058D01*
X266Y1060D01*
X264Y1060D01*
X264Y1062D01*
X262Y1062D01*
X262Y1064D01*
X260Y1064D01*
X260Y1066D01*
X258Y1066D01*
X258Y1068D01*
X256Y1068D01*
X256Y1070D01*
X254Y1070D01*
X254Y1072D01*
X252Y1072D01*
X252Y1074D01*
X250Y1074D01*
X250Y1076D01*
X248Y1076D01*
X248Y1078D01*
X246Y1078D01*
X246Y1080D01*
X244Y1080D01*
X244Y1084D01*
X242Y1084D01*
X242Y1090D01*
X240Y1090D01*
X240Y1754D01*
X242Y1754D01*
X242Y1760D01*
X244Y1760D01*
X244Y1764D01*
X246Y1764D01*
X246Y1766D01*
X248Y1766D01*
X248Y1768D01*
X250Y1768D01*
X250Y1770D01*
X252Y1770D01*
X252Y1772D01*
X254Y1772D01*
X254Y1774D01*
X256Y1774D01*
X256Y1776D01*
X258Y1776D01*
X258Y1778D01*
X260Y1778D01*
X260Y1780D01*
X262Y1780D01*
X262Y1782D01*
X264Y1782D01*
X264Y1784D01*
X266Y1784D01*
X266Y1786D01*
X268Y1786D01*
X268Y1788D01*
X270Y1788D01*
X270Y1790D01*
X272Y1790D01*
X272Y1792D01*
X274Y1792D01*
X274Y1794D01*
X276Y1794D01*
X276Y1796D01*
X278Y1796D01*
X278Y1798D01*
X280Y1798D01*
X280Y1800D01*
X282Y1800D01*
X282Y1802D01*
X284Y1802D01*
X284Y1804D01*
X286Y1804D01*
X286Y1806D01*
X288Y1806D01*
X288Y1808D01*
X290Y1808D01*
X290Y1810D01*
X292Y1810D01*
X292Y1812D01*
X294Y1812D01*
X294Y1814D01*
X296Y1814D01*
X296Y1816D01*
X298Y1816D01*
X298Y1818D01*
X300Y1818D01*
X300Y1820D01*
X302Y1820D01*
X302Y1822D01*
X304Y1822D01*
X304Y1824D01*
X308Y1824D01*
X308Y1826D01*
X314Y1826D01*
X314Y1828D01*
X616Y1828D01*
X616Y1830D01*
X620Y1830D01*
X620Y1832D01*
X624Y1832D01*
X624Y1834D01*
X628Y1834D01*
X628Y1836D01*
X632Y1836D01*
X632Y1838D01*
X636Y1838D01*
X636Y1840D01*
X640Y1840D01*
X640Y1842D01*
X644Y1842D01*
X644Y1844D01*
X648Y1844D01*
X648Y1846D01*
X652Y1846D01*
X652Y1848D01*
X656Y1848D01*
X656Y1850D01*
X660Y1850D01*
X660Y1852D01*
X664Y1852D01*
X664Y1854D01*
X668Y1854D01*
X668Y1856D01*
X672Y1856D01*
X672Y1858D01*
X676Y1858D01*
X676Y1860D01*
X680Y1860D01*
X680Y1862D01*
X682Y1862D01*
X682Y1864D01*
X686Y1864D01*
X686Y1866D01*
X688Y1866D01*
X688Y1868D01*
X690Y1868D01*
X690Y1872D01*
X692Y1872D01*
X692Y1874D01*
X694Y1874D01*
X694Y1876D01*
X696Y1876D01*
X696Y1878D01*
X698Y1878D01*
X698Y1880D01*
X702Y1880D01*
X702Y1882D01*
X706Y1882D01*
X706Y1884D01*
X710Y1884D01*
X710Y1886D01*
X40Y1886D01*
G37*
D02*
G36*
X1564Y1808D02*
X1564Y1806D01*
X1886Y1806D01*
X1886Y1808D01*
X1564Y1808D01*
G37*
D02*
G36*
X1564Y1808D02*
X1564Y1806D01*
X1886Y1806D01*
X1886Y1808D01*
X1564Y1808D01*
G37*
D02*
G36*
X1560Y1806D02*
X1560Y1804D01*
X1558Y1804D01*
X1558Y1802D01*
X1556Y1802D01*
X1556Y1800D01*
X1554Y1800D01*
X1554Y1798D01*
X1550Y1798D01*
X1550Y1796D01*
X1546Y1796D01*
X1546Y1794D01*
X1542Y1794D01*
X1542Y1792D01*
X1534Y1792D01*
X1534Y1790D01*
X1886Y1790D01*
X1886Y1806D01*
X1560Y1806D01*
G37*
D02*
G36*
X1148Y1790D02*
X1148Y1788D01*
X1886Y1788D01*
X1886Y1790D01*
X1148Y1790D01*
G37*
D02*
G36*
X1148Y1790D02*
X1148Y1788D01*
X1886Y1788D01*
X1886Y1790D01*
X1148Y1790D01*
G37*
D02*
G36*
X1148Y1788D02*
X1148Y1776D01*
X1150Y1776D01*
X1150Y1774D01*
X1152Y1774D01*
X1152Y1772D01*
X1154Y1772D01*
X1154Y1770D01*
X1156Y1770D01*
X1156Y1766D01*
X1158Y1766D01*
X1158Y1762D01*
X1160Y1762D01*
X1160Y1754D01*
X1162Y1754D01*
X1162Y1752D01*
X1164Y1752D01*
X1164Y1750D01*
X1166Y1750D01*
X1166Y1748D01*
X1168Y1748D01*
X1168Y1746D01*
X1170Y1746D01*
X1170Y1744D01*
X1172Y1744D01*
X1172Y1742D01*
X1174Y1742D01*
X1174Y1740D01*
X1176Y1740D01*
X1176Y1738D01*
X1178Y1738D01*
X1178Y1736D01*
X1180Y1736D01*
X1180Y1734D01*
X1182Y1734D01*
X1182Y1732D01*
X1184Y1732D01*
X1184Y1730D01*
X1186Y1730D01*
X1186Y1728D01*
X1188Y1728D01*
X1188Y1726D01*
X1190Y1726D01*
X1190Y1724D01*
X1192Y1724D01*
X1192Y1722D01*
X1194Y1722D01*
X1194Y1720D01*
X1196Y1720D01*
X1196Y1718D01*
X1198Y1718D01*
X1198Y1716D01*
X1200Y1716D01*
X1200Y1714D01*
X1202Y1714D01*
X1202Y1712D01*
X1204Y1712D01*
X1204Y1710D01*
X1206Y1710D01*
X1206Y1708D01*
X1782Y1708D01*
X1782Y1588D01*
X1886Y1588D01*
X1886Y1788D01*
X1148Y1788D01*
G37*
D02*
G36*
X1208Y1708D02*
X1208Y1706D01*
X1210Y1706D01*
X1210Y1704D01*
X1212Y1704D01*
X1212Y1702D01*
X1214Y1702D01*
X1214Y1700D01*
X1216Y1700D01*
X1216Y1698D01*
X1218Y1698D01*
X1218Y1696D01*
X1220Y1696D01*
X1220Y1694D01*
X1222Y1694D01*
X1222Y1692D01*
X1224Y1692D01*
X1224Y1690D01*
X1226Y1690D01*
X1226Y1688D01*
X1228Y1688D01*
X1228Y1686D01*
X1230Y1686D01*
X1230Y1684D01*
X1232Y1684D01*
X1232Y1682D01*
X1234Y1682D01*
X1234Y1680D01*
X1236Y1680D01*
X1236Y1678D01*
X1238Y1678D01*
X1238Y1676D01*
X1240Y1676D01*
X1240Y1674D01*
X1242Y1674D01*
X1242Y1672D01*
X1244Y1672D01*
X1244Y1670D01*
X1246Y1670D01*
X1246Y1668D01*
X1248Y1668D01*
X1248Y1666D01*
X1250Y1666D01*
X1250Y1664D01*
X1252Y1664D01*
X1252Y1662D01*
X1254Y1662D01*
X1254Y1660D01*
X1256Y1660D01*
X1256Y1658D01*
X1258Y1658D01*
X1258Y1656D01*
X1260Y1656D01*
X1260Y1654D01*
X1262Y1654D01*
X1262Y1652D01*
X1264Y1652D01*
X1264Y1650D01*
X1266Y1650D01*
X1266Y1648D01*
X1268Y1648D01*
X1268Y1646D01*
X1270Y1646D01*
X1270Y1644D01*
X1272Y1644D01*
X1272Y1642D01*
X1274Y1642D01*
X1274Y1640D01*
X1276Y1640D01*
X1276Y1638D01*
X1278Y1638D01*
X1278Y1636D01*
X1280Y1636D01*
X1280Y1634D01*
X1282Y1634D01*
X1282Y1632D01*
X1284Y1632D01*
X1284Y1630D01*
X1286Y1630D01*
X1286Y1628D01*
X1288Y1628D01*
X1288Y1626D01*
X1290Y1626D01*
X1290Y1624D01*
X1292Y1624D01*
X1292Y1622D01*
X1294Y1622D01*
X1294Y1620D01*
X1296Y1620D01*
X1296Y1618D01*
X1298Y1618D01*
X1298Y1616D01*
X1300Y1616D01*
X1300Y1614D01*
X1302Y1614D01*
X1302Y1612D01*
X1304Y1612D01*
X1304Y1610D01*
X1306Y1610D01*
X1306Y1608D01*
X1308Y1608D01*
X1308Y1606D01*
X1310Y1606D01*
X1310Y1604D01*
X1312Y1604D01*
X1312Y1602D01*
X1314Y1602D01*
X1314Y1600D01*
X1316Y1600D01*
X1316Y1598D01*
X1318Y1598D01*
X1318Y1596D01*
X1320Y1596D01*
X1320Y1594D01*
X1322Y1594D01*
X1322Y1592D01*
X1324Y1592D01*
X1324Y1590D01*
X1326Y1590D01*
X1326Y1588D01*
X1662Y1588D01*
X1662Y1708D01*
X1208Y1708D01*
G37*
D02*
G36*
X304Y1606D02*
X304Y1488D01*
X410Y1488D01*
X410Y1490D01*
X402Y1490D01*
X402Y1492D01*
X398Y1492D01*
X398Y1494D01*
X394Y1494D01*
X394Y1496D01*
X390Y1496D01*
X390Y1498D01*
X388Y1498D01*
X388Y1500D01*
X384Y1500D01*
X384Y1502D01*
X382Y1502D01*
X382Y1504D01*
X380Y1504D01*
X380Y1506D01*
X378Y1506D01*
X378Y1508D01*
X376Y1508D01*
X376Y1512D01*
X374Y1512D01*
X374Y1514D01*
X372Y1514D01*
X372Y1516D01*
X370Y1516D01*
X370Y1520D01*
X368Y1520D01*
X368Y1524D01*
X366Y1524D01*
X366Y1530D01*
X364Y1530D01*
X364Y1540D01*
X362Y1540D01*
X362Y1554D01*
X364Y1554D01*
X364Y1564D01*
X366Y1564D01*
X366Y1570D01*
X368Y1570D01*
X368Y1574D01*
X370Y1574D01*
X370Y1578D01*
X372Y1578D01*
X372Y1580D01*
X374Y1580D01*
X374Y1584D01*
X376Y1584D01*
X376Y1586D01*
X378Y1586D01*
X378Y1588D01*
X380Y1588D01*
X380Y1590D01*
X382Y1590D01*
X382Y1592D01*
X384Y1592D01*
X384Y1594D01*
X388Y1594D01*
X388Y1596D01*
X390Y1596D01*
X390Y1598D01*
X392Y1598D01*
X392Y1600D01*
X396Y1600D01*
X396Y1602D01*
X402Y1602D01*
X402Y1604D01*
X408Y1604D01*
X408Y1606D01*
X304Y1606D01*
G37*
D02*
G36*
X436Y1606D02*
X436Y1604D01*
X444Y1604D01*
X444Y1602D01*
X448Y1602D01*
X448Y1600D01*
X452Y1600D01*
X452Y1598D01*
X454Y1598D01*
X454Y1596D01*
X458Y1596D01*
X458Y1594D01*
X460Y1594D01*
X460Y1592D01*
X462Y1592D01*
X462Y1590D01*
X482Y1590D01*
X482Y1592D01*
X484Y1592D01*
X484Y1594D01*
X486Y1594D01*
X486Y1596D01*
X490Y1596D01*
X490Y1598D01*
X492Y1598D01*
X492Y1600D01*
X496Y1600D01*
X496Y1602D01*
X502Y1602D01*
X502Y1604D01*
X508Y1604D01*
X508Y1606D01*
X436Y1606D01*
G37*
D02*
G36*
X536Y1606D02*
X536Y1604D01*
X544Y1604D01*
X544Y1602D01*
X548Y1602D01*
X548Y1600D01*
X552Y1600D01*
X552Y1598D01*
X554Y1598D01*
X554Y1596D01*
X558Y1596D01*
X558Y1594D01*
X560Y1594D01*
X560Y1592D01*
X562Y1592D01*
X562Y1590D01*
X582Y1590D01*
X582Y1592D01*
X584Y1592D01*
X584Y1594D01*
X586Y1594D01*
X586Y1596D01*
X590Y1596D01*
X590Y1598D01*
X592Y1598D01*
X592Y1600D01*
X596Y1600D01*
X596Y1602D01*
X602Y1602D01*
X602Y1604D01*
X608Y1604D01*
X608Y1606D01*
X536Y1606D01*
G37*
D02*
G36*
X636Y1606D02*
X636Y1604D01*
X644Y1604D01*
X644Y1602D01*
X648Y1602D01*
X648Y1600D01*
X652Y1600D01*
X652Y1598D01*
X654Y1598D01*
X654Y1596D01*
X658Y1596D01*
X658Y1594D01*
X660Y1594D01*
X660Y1592D01*
X662Y1592D01*
X662Y1590D01*
X682Y1590D01*
X682Y1592D01*
X684Y1592D01*
X684Y1594D01*
X686Y1594D01*
X686Y1596D01*
X690Y1596D01*
X690Y1598D01*
X692Y1598D01*
X692Y1600D01*
X696Y1600D01*
X696Y1602D01*
X702Y1602D01*
X702Y1604D01*
X708Y1604D01*
X708Y1606D01*
X636Y1606D01*
G37*
D02*
G36*
X736Y1606D02*
X736Y1604D01*
X744Y1604D01*
X744Y1602D01*
X748Y1602D01*
X748Y1600D01*
X752Y1600D01*
X752Y1598D01*
X754Y1598D01*
X754Y1596D01*
X758Y1596D01*
X758Y1594D01*
X760Y1594D01*
X760Y1592D01*
X762Y1592D01*
X762Y1590D01*
X782Y1590D01*
X782Y1592D01*
X784Y1592D01*
X784Y1594D01*
X786Y1594D01*
X786Y1596D01*
X790Y1596D01*
X790Y1598D01*
X792Y1598D01*
X792Y1600D01*
X796Y1600D01*
X796Y1602D01*
X802Y1602D01*
X802Y1604D01*
X808Y1604D01*
X808Y1606D01*
X736Y1606D01*
G37*
D02*
G36*
X836Y1606D02*
X836Y1604D01*
X844Y1604D01*
X844Y1602D01*
X848Y1602D01*
X848Y1600D01*
X852Y1600D01*
X852Y1598D01*
X854Y1598D01*
X854Y1596D01*
X858Y1596D01*
X858Y1594D01*
X860Y1594D01*
X860Y1592D01*
X862Y1592D01*
X862Y1590D01*
X882Y1590D01*
X882Y1592D01*
X884Y1592D01*
X884Y1594D01*
X888Y1594D01*
X888Y1596D01*
X890Y1596D01*
X890Y1598D01*
X892Y1598D01*
X892Y1600D01*
X896Y1600D01*
X896Y1602D01*
X902Y1602D01*
X902Y1604D01*
X908Y1604D01*
X908Y1606D01*
X836Y1606D01*
G37*
D02*
G36*
X936Y1606D02*
X936Y1604D01*
X944Y1604D01*
X944Y1602D01*
X948Y1602D01*
X948Y1600D01*
X952Y1600D01*
X952Y1598D01*
X954Y1598D01*
X954Y1596D01*
X958Y1596D01*
X958Y1594D01*
X960Y1594D01*
X960Y1592D01*
X962Y1592D01*
X962Y1590D01*
X982Y1590D01*
X982Y1592D01*
X984Y1592D01*
X984Y1594D01*
X986Y1594D01*
X986Y1596D01*
X990Y1596D01*
X990Y1598D01*
X992Y1598D01*
X992Y1600D01*
X996Y1600D01*
X996Y1602D01*
X1002Y1602D01*
X1002Y1604D01*
X1008Y1604D01*
X1008Y1606D01*
X936Y1606D01*
G37*
D02*
G36*
X1328Y1588D02*
X1328Y1586D01*
X1886Y1586D01*
X1886Y1588D01*
X1328Y1588D01*
G37*
D02*
G36*
X1328Y1588D02*
X1328Y1586D01*
X1886Y1586D01*
X1886Y1588D01*
X1328Y1588D01*
G37*
D02*
G36*
X1330Y1586D02*
X1330Y1584D01*
X1332Y1584D01*
X1332Y1582D01*
X1334Y1582D01*
X1334Y1580D01*
X1336Y1580D01*
X1336Y1578D01*
X1338Y1578D01*
X1338Y1576D01*
X1340Y1576D01*
X1340Y1574D01*
X1342Y1574D01*
X1342Y1572D01*
X1344Y1572D01*
X1344Y1570D01*
X1346Y1570D01*
X1346Y1568D01*
X1348Y1568D01*
X1348Y1566D01*
X1350Y1566D01*
X1350Y1564D01*
X1352Y1564D01*
X1352Y1562D01*
X1354Y1562D01*
X1354Y1560D01*
X1356Y1560D01*
X1356Y1558D01*
X1358Y1558D01*
X1358Y1556D01*
X1360Y1556D01*
X1360Y1554D01*
X1362Y1554D01*
X1362Y1552D01*
X1364Y1552D01*
X1364Y1550D01*
X1366Y1550D01*
X1366Y1548D01*
X1368Y1548D01*
X1368Y1546D01*
X1370Y1546D01*
X1370Y1544D01*
X1372Y1544D01*
X1372Y1542D01*
X1374Y1542D01*
X1374Y1540D01*
X1376Y1540D01*
X1376Y1538D01*
X1378Y1538D01*
X1378Y1536D01*
X1380Y1536D01*
X1380Y1534D01*
X1382Y1534D01*
X1382Y1532D01*
X1384Y1532D01*
X1384Y1530D01*
X1386Y1530D01*
X1386Y1528D01*
X1388Y1528D01*
X1388Y1526D01*
X1390Y1526D01*
X1390Y1524D01*
X1392Y1524D01*
X1392Y1522D01*
X1394Y1522D01*
X1394Y1520D01*
X1396Y1520D01*
X1396Y1518D01*
X1398Y1518D01*
X1398Y1516D01*
X1400Y1516D01*
X1400Y1514D01*
X1402Y1514D01*
X1402Y1512D01*
X1404Y1512D01*
X1404Y1510D01*
X1406Y1510D01*
X1406Y1508D01*
X1726Y1508D01*
X1726Y1506D01*
X1738Y1506D01*
X1738Y1504D01*
X1744Y1504D01*
X1744Y1502D01*
X1748Y1502D01*
X1748Y1500D01*
X1752Y1500D01*
X1752Y1498D01*
X1756Y1498D01*
X1756Y1496D01*
X1758Y1496D01*
X1758Y1494D01*
X1760Y1494D01*
X1760Y1492D01*
X1762Y1492D01*
X1762Y1490D01*
X1766Y1490D01*
X1766Y1486D01*
X1768Y1486D01*
X1768Y1484D01*
X1770Y1484D01*
X1770Y1482D01*
X1772Y1482D01*
X1772Y1478D01*
X1774Y1478D01*
X1774Y1476D01*
X1776Y1476D01*
X1776Y1472D01*
X1778Y1472D01*
X1778Y1466D01*
X1780Y1466D01*
X1780Y1458D01*
X1782Y1458D01*
X1782Y1436D01*
X1780Y1436D01*
X1780Y1428D01*
X1778Y1428D01*
X1778Y1422D01*
X1776Y1422D01*
X1776Y1418D01*
X1774Y1418D01*
X1774Y1416D01*
X1772Y1416D01*
X1772Y1412D01*
X1770Y1412D01*
X1770Y1410D01*
X1768Y1410D01*
X1768Y1408D01*
X1766Y1408D01*
X1766Y1406D01*
X1764Y1406D01*
X1764Y1404D01*
X1762Y1404D01*
X1762Y1402D01*
X1760Y1402D01*
X1760Y1400D01*
X1758Y1400D01*
X1758Y1398D01*
X1754Y1398D01*
X1754Y1396D01*
X1752Y1396D01*
X1752Y1394D01*
X1748Y1394D01*
X1748Y1392D01*
X1744Y1392D01*
X1744Y1390D01*
X1736Y1390D01*
X1736Y1388D01*
X1886Y1388D01*
X1886Y1586D01*
X1330Y1586D01*
G37*
D02*
G36*
X1254Y1552D02*
X1254Y1444D01*
X1252Y1444D01*
X1252Y1436D01*
X1250Y1436D01*
X1250Y1432D01*
X1248Y1432D01*
X1248Y1430D01*
X1246Y1430D01*
X1246Y1426D01*
X1244Y1426D01*
X1244Y1424D01*
X1240Y1424D01*
X1240Y1422D01*
X1238Y1422D01*
X1238Y1420D01*
X1234Y1420D01*
X1234Y1418D01*
X1230Y1418D01*
X1230Y1416D01*
X1226Y1416D01*
X1226Y1414D01*
X1224Y1414D01*
X1224Y1412D01*
X1220Y1412D01*
X1220Y1410D01*
X1216Y1410D01*
X1216Y1408D01*
X1212Y1408D01*
X1212Y1406D01*
X1208Y1406D01*
X1208Y1404D01*
X1204Y1404D01*
X1204Y1402D01*
X1200Y1402D01*
X1200Y1400D01*
X1196Y1400D01*
X1196Y1398D01*
X1194Y1398D01*
X1194Y1396D01*
X1190Y1396D01*
X1190Y1394D01*
X1186Y1394D01*
X1186Y1392D01*
X1182Y1392D01*
X1182Y1390D01*
X1178Y1390D01*
X1178Y1388D01*
X1174Y1388D01*
X1174Y1386D01*
X1170Y1386D01*
X1170Y1384D01*
X1166Y1384D01*
X1166Y1382D01*
X1162Y1382D01*
X1162Y1380D01*
X1160Y1380D01*
X1160Y1378D01*
X1156Y1378D01*
X1156Y1376D01*
X1154Y1376D01*
X1154Y1188D01*
X1152Y1188D01*
X1152Y1182D01*
X1150Y1182D01*
X1150Y1180D01*
X1148Y1180D01*
X1148Y1176D01*
X1146Y1176D01*
X1146Y1174D01*
X1144Y1174D01*
X1144Y1170D01*
X1142Y1170D01*
X1142Y1168D01*
X1140Y1168D01*
X1140Y1164D01*
X1138Y1164D01*
X1138Y1162D01*
X1136Y1162D01*
X1136Y1158D01*
X1134Y1158D01*
X1134Y1156D01*
X1132Y1156D01*
X1132Y1152D01*
X1130Y1152D01*
X1130Y1150D01*
X1128Y1150D01*
X1128Y1146D01*
X1126Y1146D01*
X1126Y1144D01*
X1124Y1144D01*
X1124Y1140D01*
X1122Y1140D01*
X1122Y1138D01*
X1120Y1138D01*
X1120Y1134D01*
X1118Y1134D01*
X1118Y1132D01*
X1116Y1132D01*
X1116Y1128D01*
X1114Y1128D01*
X1114Y1126D01*
X1112Y1126D01*
X1112Y1122D01*
X1110Y1122D01*
X1110Y1120D01*
X1108Y1120D01*
X1108Y1116D01*
X1106Y1116D01*
X1106Y1114D01*
X1104Y1114D01*
X1104Y1110D01*
X1102Y1110D01*
X1102Y1108D01*
X1100Y1108D01*
X1100Y1104D01*
X1098Y1104D01*
X1098Y1102D01*
X1096Y1102D01*
X1096Y1098D01*
X1094Y1098D01*
X1094Y1096D01*
X1092Y1096D01*
X1092Y1092D01*
X1090Y1092D01*
X1090Y1090D01*
X1088Y1090D01*
X1088Y1086D01*
X1086Y1086D01*
X1086Y1084D01*
X1084Y1084D01*
X1084Y1080D01*
X1082Y1080D01*
X1082Y1078D01*
X1080Y1078D01*
X1080Y1074D01*
X1078Y1074D01*
X1078Y1072D01*
X1076Y1072D01*
X1076Y1068D01*
X1074Y1068D01*
X1074Y1066D01*
X1072Y1066D01*
X1072Y1062D01*
X1070Y1062D01*
X1070Y1060D01*
X1068Y1060D01*
X1068Y1056D01*
X1066Y1056D01*
X1066Y1054D01*
X1064Y1054D01*
X1064Y1050D01*
X1062Y1050D01*
X1062Y1048D01*
X1060Y1048D01*
X1060Y1044D01*
X1058Y1044D01*
X1058Y1042D01*
X1056Y1042D01*
X1056Y1038D01*
X1054Y1038D01*
X1054Y1036D01*
X1052Y1036D01*
X1052Y1032D01*
X1050Y1032D01*
X1050Y1030D01*
X1048Y1030D01*
X1048Y1026D01*
X1046Y1026D01*
X1046Y1024D01*
X1042Y1024D01*
X1042Y1022D01*
X1040Y1022D01*
X1040Y1020D01*
X1036Y1020D01*
X1036Y1018D01*
X1030Y1018D01*
X1030Y1016D01*
X870Y1016D01*
X870Y1014D01*
X868Y1014D01*
X868Y1012D01*
X866Y1012D01*
X866Y1010D01*
X864Y1010D01*
X864Y1006D01*
X860Y1006D01*
X860Y1004D01*
X858Y1004D01*
X858Y1002D01*
X856Y1002D01*
X856Y1000D01*
X854Y1000D01*
X854Y842D01*
X852Y842D01*
X852Y834D01*
X850Y834D01*
X850Y830D01*
X848Y830D01*
X848Y828D01*
X846Y828D01*
X846Y824D01*
X844Y824D01*
X844Y822D01*
X842Y822D01*
X842Y820D01*
X840Y820D01*
X840Y818D01*
X838Y818D01*
X838Y816D01*
X836Y816D01*
X836Y814D01*
X834Y814D01*
X834Y812D01*
X832Y812D01*
X832Y810D01*
X830Y810D01*
X830Y808D01*
X1612Y808D01*
X1612Y810D01*
X1606Y810D01*
X1606Y812D01*
X1602Y812D01*
X1602Y814D01*
X1600Y814D01*
X1600Y816D01*
X1596Y816D01*
X1596Y818D01*
X1594Y818D01*
X1594Y820D01*
X1592Y820D01*
X1592Y824D01*
X1590Y824D01*
X1590Y826D01*
X1588Y826D01*
X1588Y830D01*
X1586Y830D01*
X1586Y834D01*
X1584Y834D01*
X1584Y842D01*
X1582Y842D01*
X1582Y844D01*
X1580Y844D01*
X1580Y846D01*
X1578Y846D01*
X1578Y848D01*
X1576Y848D01*
X1576Y850D01*
X1574Y850D01*
X1574Y852D01*
X1572Y852D01*
X1572Y854D01*
X1570Y854D01*
X1570Y856D01*
X1568Y856D01*
X1568Y858D01*
X1566Y858D01*
X1566Y860D01*
X1564Y860D01*
X1564Y862D01*
X1562Y862D01*
X1562Y864D01*
X1560Y864D01*
X1560Y866D01*
X1558Y866D01*
X1558Y868D01*
X1556Y868D01*
X1556Y870D01*
X1554Y870D01*
X1554Y872D01*
X1552Y872D01*
X1552Y874D01*
X1550Y874D01*
X1550Y876D01*
X1548Y876D01*
X1548Y878D01*
X1546Y878D01*
X1546Y880D01*
X1544Y880D01*
X1544Y882D01*
X1542Y882D01*
X1542Y884D01*
X1540Y884D01*
X1540Y886D01*
X1538Y886D01*
X1538Y888D01*
X1536Y888D01*
X1536Y890D01*
X1534Y890D01*
X1534Y892D01*
X1532Y892D01*
X1532Y894D01*
X1530Y894D01*
X1530Y896D01*
X1528Y896D01*
X1528Y898D01*
X1526Y898D01*
X1526Y900D01*
X1524Y900D01*
X1524Y902D01*
X1522Y902D01*
X1522Y904D01*
X1520Y904D01*
X1520Y906D01*
X1518Y906D01*
X1518Y908D01*
X1516Y908D01*
X1516Y910D01*
X1514Y910D01*
X1514Y912D01*
X1512Y912D01*
X1512Y914D01*
X1510Y914D01*
X1510Y916D01*
X1508Y916D01*
X1508Y918D01*
X1506Y918D01*
X1506Y920D01*
X1504Y920D01*
X1504Y922D01*
X1502Y922D01*
X1502Y924D01*
X1500Y924D01*
X1500Y928D01*
X1498Y928D01*
X1498Y930D01*
X1496Y930D01*
X1496Y934D01*
X1494Y934D01*
X1494Y938D01*
X1492Y938D01*
X1492Y1058D01*
X1490Y1058D01*
X1490Y1336D01*
X1488Y1336D01*
X1488Y1338D01*
X1486Y1338D01*
X1486Y1340D01*
X1484Y1340D01*
X1484Y1342D01*
X1482Y1342D01*
X1482Y1344D01*
X1480Y1344D01*
X1480Y1346D01*
X1478Y1346D01*
X1478Y1348D01*
X1476Y1348D01*
X1476Y1350D01*
X1474Y1350D01*
X1474Y1352D01*
X1472Y1352D01*
X1472Y1354D01*
X1470Y1354D01*
X1470Y1356D01*
X1468Y1356D01*
X1468Y1358D01*
X1466Y1358D01*
X1466Y1360D01*
X1464Y1360D01*
X1464Y1362D01*
X1462Y1362D01*
X1462Y1364D01*
X1460Y1364D01*
X1460Y1366D01*
X1458Y1366D01*
X1458Y1368D01*
X1456Y1368D01*
X1456Y1370D01*
X1454Y1370D01*
X1454Y1372D01*
X1452Y1372D01*
X1452Y1374D01*
X1450Y1374D01*
X1450Y1376D01*
X1448Y1376D01*
X1448Y1378D01*
X1446Y1378D01*
X1446Y1380D01*
X1444Y1380D01*
X1444Y1382D01*
X1442Y1382D01*
X1442Y1384D01*
X1440Y1384D01*
X1440Y1386D01*
X1438Y1386D01*
X1438Y1388D01*
X1436Y1388D01*
X1436Y1390D01*
X1434Y1390D01*
X1434Y1392D01*
X1432Y1392D01*
X1432Y1394D01*
X1430Y1394D01*
X1430Y1396D01*
X1428Y1396D01*
X1428Y1398D01*
X1426Y1398D01*
X1426Y1400D01*
X1424Y1400D01*
X1424Y1402D01*
X1422Y1402D01*
X1422Y1404D01*
X1420Y1404D01*
X1420Y1406D01*
X1418Y1406D01*
X1418Y1408D01*
X1416Y1408D01*
X1416Y1410D01*
X1414Y1410D01*
X1414Y1412D01*
X1412Y1412D01*
X1412Y1414D01*
X1410Y1414D01*
X1410Y1416D01*
X1408Y1416D01*
X1408Y1418D01*
X1406Y1418D01*
X1406Y1420D01*
X1404Y1420D01*
X1404Y1422D01*
X1402Y1422D01*
X1402Y1424D01*
X1400Y1424D01*
X1400Y1426D01*
X1398Y1426D01*
X1398Y1428D01*
X1396Y1428D01*
X1396Y1430D01*
X1394Y1430D01*
X1394Y1432D01*
X1392Y1432D01*
X1392Y1434D01*
X1390Y1434D01*
X1390Y1436D01*
X1388Y1436D01*
X1388Y1438D01*
X1386Y1438D01*
X1386Y1440D01*
X1384Y1440D01*
X1384Y1442D01*
X1382Y1442D01*
X1382Y1444D01*
X1380Y1444D01*
X1380Y1446D01*
X1378Y1446D01*
X1378Y1448D01*
X1376Y1448D01*
X1376Y1450D01*
X1374Y1450D01*
X1374Y1452D01*
X1372Y1452D01*
X1372Y1454D01*
X1370Y1454D01*
X1370Y1456D01*
X1368Y1456D01*
X1368Y1458D01*
X1366Y1458D01*
X1366Y1460D01*
X1364Y1460D01*
X1364Y1462D01*
X1362Y1462D01*
X1362Y1464D01*
X1360Y1464D01*
X1360Y1466D01*
X1358Y1466D01*
X1358Y1468D01*
X1356Y1468D01*
X1356Y1470D01*
X1354Y1470D01*
X1354Y1472D01*
X1352Y1472D01*
X1352Y1474D01*
X1350Y1474D01*
X1350Y1476D01*
X1348Y1476D01*
X1348Y1478D01*
X1346Y1478D01*
X1346Y1480D01*
X1344Y1480D01*
X1344Y1482D01*
X1342Y1482D01*
X1342Y1484D01*
X1340Y1484D01*
X1340Y1486D01*
X1338Y1486D01*
X1338Y1488D01*
X1336Y1488D01*
X1336Y1490D01*
X1334Y1490D01*
X1334Y1492D01*
X1332Y1492D01*
X1332Y1494D01*
X1330Y1494D01*
X1330Y1496D01*
X1328Y1496D01*
X1328Y1498D01*
X1326Y1498D01*
X1326Y1500D01*
X1324Y1500D01*
X1324Y1502D01*
X1322Y1502D01*
X1322Y1504D01*
X1320Y1504D01*
X1320Y1506D01*
X1318Y1506D01*
X1318Y1508D01*
X1316Y1508D01*
X1316Y1510D01*
X1314Y1510D01*
X1314Y1512D01*
X1312Y1512D01*
X1312Y1514D01*
X1310Y1514D01*
X1310Y1516D01*
X1308Y1516D01*
X1308Y1518D01*
X1306Y1518D01*
X1306Y1520D01*
X1304Y1520D01*
X1304Y1522D01*
X1302Y1522D01*
X1302Y1524D01*
X1300Y1524D01*
X1300Y1526D01*
X1298Y1526D01*
X1298Y1528D01*
X1296Y1528D01*
X1296Y1530D01*
X1294Y1530D01*
X1294Y1532D01*
X1292Y1532D01*
X1292Y1534D01*
X1290Y1534D01*
X1290Y1536D01*
X1288Y1536D01*
X1288Y1538D01*
X1286Y1538D01*
X1286Y1540D01*
X1284Y1540D01*
X1284Y1542D01*
X1282Y1542D01*
X1282Y1544D01*
X1280Y1544D01*
X1280Y1546D01*
X1278Y1546D01*
X1278Y1548D01*
X1276Y1548D01*
X1276Y1550D01*
X1274Y1550D01*
X1274Y1552D01*
X1254Y1552D01*
G37*
D02*
G36*
X1170Y1514D02*
X1170Y1510D01*
X1168Y1510D01*
X1168Y1508D01*
X1166Y1508D01*
X1166Y1506D01*
X1164Y1506D01*
X1164Y1504D01*
X1162Y1504D01*
X1162Y1502D01*
X1160Y1502D01*
X1160Y1500D01*
X1158Y1500D01*
X1158Y1498D01*
X1154Y1498D01*
X1154Y1496D01*
X1152Y1496D01*
X1152Y1494D01*
X1148Y1494D01*
X1148Y1492D01*
X1142Y1492D01*
X1142Y1490D01*
X1134Y1490D01*
X1134Y1488D01*
X1190Y1488D01*
X1190Y1514D01*
X1170Y1514D01*
G37*
D02*
G36*
X1408Y1508D02*
X1408Y1506D01*
X1410Y1506D01*
X1410Y1504D01*
X1412Y1504D01*
X1412Y1502D01*
X1414Y1502D01*
X1414Y1500D01*
X1416Y1500D01*
X1416Y1498D01*
X1418Y1498D01*
X1418Y1496D01*
X1420Y1496D01*
X1420Y1494D01*
X1422Y1494D01*
X1422Y1492D01*
X1424Y1492D01*
X1424Y1490D01*
X1426Y1490D01*
X1426Y1488D01*
X1428Y1488D01*
X1428Y1486D01*
X1430Y1486D01*
X1430Y1484D01*
X1432Y1484D01*
X1432Y1482D01*
X1434Y1482D01*
X1434Y1480D01*
X1436Y1480D01*
X1436Y1478D01*
X1438Y1478D01*
X1438Y1476D01*
X1440Y1476D01*
X1440Y1474D01*
X1442Y1474D01*
X1442Y1472D01*
X1444Y1472D01*
X1444Y1470D01*
X1446Y1470D01*
X1446Y1468D01*
X1448Y1468D01*
X1448Y1466D01*
X1450Y1466D01*
X1450Y1464D01*
X1452Y1464D01*
X1452Y1462D01*
X1454Y1462D01*
X1454Y1460D01*
X1456Y1460D01*
X1456Y1458D01*
X1458Y1458D01*
X1458Y1456D01*
X1460Y1456D01*
X1460Y1454D01*
X1462Y1454D01*
X1462Y1452D01*
X1464Y1452D01*
X1464Y1450D01*
X1466Y1450D01*
X1466Y1448D01*
X1468Y1448D01*
X1468Y1446D01*
X1470Y1446D01*
X1470Y1444D01*
X1472Y1444D01*
X1472Y1442D01*
X1474Y1442D01*
X1474Y1440D01*
X1476Y1440D01*
X1476Y1438D01*
X1478Y1438D01*
X1478Y1436D01*
X1480Y1436D01*
X1480Y1434D01*
X1482Y1434D01*
X1482Y1432D01*
X1484Y1432D01*
X1484Y1430D01*
X1486Y1430D01*
X1486Y1428D01*
X1488Y1428D01*
X1488Y1426D01*
X1490Y1426D01*
X1490Y1424D01*
X1492Y1424D01*
X1492Y1422D01*
X1494Y1422D01*
X1494Y1420D01*
X1496Y1420D01*
X1496Y1418D01*
X1498Y1418D01*
X1498Y1416D01*
X1500Y1416D01*
X1500Y1414D01*
X1502Y1414D01*
X1502Y1412D01*
X1504Y1412D01*
X1504Y1410D01*
X1506Y1410D01*
X1506Y1408D01*
X1508Y1408D01*
X1508Y1406D01*
X1510Y1406D01*
X1510Y1404D01*
X1512Y1404D01*
X1512Y1402D01*
X1514Y1402D01*
X1514Y1400D01*
X1516Y1400D01*
X1516Y1398D01*
X1518Y1398D01*
X1518Y1396D01*
X1520Y1396D01*
X1520Y1394D01*
X1522Y1394D01*
X1522Y1392D01*
X1524Y1392D01*
X1524Y1390D01*
X1526Y1390D01*
X1526Y1388D01*
X1708Y1388D01*
X1708Y1390D01*
X1702Y1390D01*
X1702Y1392D01*
X1696Y1392D01*
X1696Y1394D01*
X1692Y1394D01*
X1692Y1396D01*
X1690Y1396D01*
X1690Y1398D01*
X1686Y1398D01*
X1686Y1400D01*
X1684Y1400D01*
X1684Y1402D01*
X1682Y1402D01*
X1682Y1404D01*
X1680Y1404D01*
X1680Y1406D01*
X1678Y1406D01*
X1678Y1408D01*
X1676Y1408D01*
X1676Y1410D01*
X1674Y1410D01*
X1674Y1414D01*
X1672Y1414D01*
X1672Y1416D01*
X1670Y1416D01*
X1670Y1420D01*
X1668Y1420D01*
X1668Y1424D01*
X1666Y1424D01*
X1666Y1430D01*
X1664Y1430D01*
X1664Y1438D01*
X1662Y1438D01*
X1662Y1456D01*
X1664Y1456D01*
X1664Y1464D01*
X1666Y1464D01*
X1666Y1470D01*
X1668Y1470D01*
X1668Y1474D01*
X1670Y1474D01*
X1670Y1478D01*
X1672Y1478D01*
X1672Y1482D01*
X1674Y1482D01*
X1674Y1484D01*
X1676Y1484D01*
X1676Y1486D01*
X1678Y1486D01*
X1678Y1488D01*
X1680Y1488D01*
X1680Y1490D01*
X1682Y1490D01*
X1682Y1492D01*
X1684Y1492D01*
X1684Y1494D01*
X1686Y1494D01*
X1686Y1496D01*
X1690Y1496D01*
X1690Y1498D01*
X1692Y1498D01*
X1692Y1500D01*
X1696Y1500D01*
X1696Y1502D01*
X1700Y1502D01*
X1700Y1504D01*
X1706Y1504D01*
X1706Y1506D01*
X1720Y1506D01*
X1720Y1508D01*
X1408Y1508D01*
G37*
D02*
G36*
X462Y1504D02*
X462Y1502D01*
X460Y1502D01*
X460Y1500D01*
X458Y1500D01*
X458Y1498D01*
X454Y1498D01*
X454Y1496D01*
X452Y1496D01*
X452Y1494D01*
X448Y1494D01*
X448Y1492D01*
X442Y1492D01*
X442Y1490D01*
X434Y1490D01*
X434Y1488D01*
X510Y1488D01*
X510Y1490D01*
X502Y1490D01*
X502Y1492D01*
X498Y1492D01*
X498Y1494D01*
X494Y1494D01*
X494Y1496D01*
X490Y1496D01*
X490Y1498D01*
X488Y1498D01*
X488Y1500D01*
X484Y1500D01*
X484Y1502D01*
X482Y1502D01*
X482Y1504D01*
X462Y1504D01*
G37*
D02*
G36*
X562Y1504D02*
X562Y1502D01*
X560Y1502D01*
X560Y1500D01*
X558Y1500D01*
X558Y1498D01*
X554Y1498D01*
X554Y1496D01*
X550Y1496D01*
X550Y1494D01*
X548Y1494D01*
X548Y1492D01*
X542Y1492D01*
X542Y1490D01*
X534Y1490D01*
X534Y1488D01*
X610Y1488D01*
X610Y1490D01*
X602Y1490D01*
X602Y1492D01*
X598Y1492D01*
X598Y1494D01*
X594Y1494D01*
X594Y1496D01*
X590Y1496D01*
X590Y1498D01*
X588Y1498D01*
X588Y1500D01*
X584Y1500D01*
X584Y1502D01*
X582Y1502D01*
X582Y1504D01*
X562Y1504D01*
G37*
D02*
G36*
X662Y1504D02*
X662Y1502D01*
X660Y1502D01*
X660Y1500D01*
X658Y1500D01*
X658Y1498D01*
X654Y1498D01*
X654Y1496D01*
X650Y1496D01*
X650Y1494D01*
X648Y1494D01*
X648Y1492D01*
X642Y1492D01*
X642Y1490D01*
X634Y1490D01*
X634Y1488D01*
X710Y1488D01*
X710Y1490D01*
X702Y1490D01*
X702Y1492D01*
X698Y1492D01*
X698Y1494D01*
X694Y1494D01*
X694Y1496D01*
X690Y1496D01*
X690Y1498D01*
X688Y1498D01*
X688Y1500D01*
X684Y1500D01*
X684Y1502D01*
X682Y1502D01*
X682Y1504D01*
X662Y1504D01*
G37*
D02*
G36*
X762Y1504D02*
X762Y1502D01*
X760Y1502D01*
X760Y1500D01*
X758Y1500D01*
X758Y1498D01*
X754Y1498D01*
X754Y1496D01*
X750Y1496D01*
X750Y1494D01*
X748Y1494D01*
X748Y1492D01*
X742Y1492D01*
X742Y1490D01*
X734Y1490D01*
X734Y1488D01*
X810Y1488D01*
X810Y1490D01*
X802Y1490D01*
X802Y1492D01*
X798Y1492D01*
X798Y1494D01*
X794Y1494D01*
X794Y1496D01*
X790Y1496D01*
X790Y1498D01*
X788Y1498D01*
X788Y1500D01*
X784Y1500D01*
X784Y1502D01*
X782Y1502D01*
X782Y1504D01*
X762Y1504D01*
G37*
D02*
G36*
X862Y1504D02*
X862Y1502D01*
X860Y1502D01*
X860Y1500D01*
X858Y1500D01*
X858Y1498D01*
X854Y1498D01*
X854Y1496D01*
X850Y1496D01*
X850Y1494D01*
X848Y1494D01*
X848Y1492D01*
X842Y1492D01*
X842Y1490D01*
X834Y1490D01*
X834Y1488D01*
X910Y1488D01*
X910Y1490D01*
X902Y1490D01*
X902Y1492D01*
X898Y1492D01*
X898Y1494D01*
X894Y1494D01*
X894Y1496D01*
X890Y1496D01*
X890Y1498D01*
X888Y1498D01*
X888Y1500D01*
X884Y1500D01*
X884Y1502D01*
X882Y1502D01*
X882Y1504D01*
X862Y1504D01*
G37*
D02*
G36*
X962Y1504D02*
X962Y1502D01*
X960Y1502D01*
X960Y1500D01*
X958Y1500D01*
X958Y1498D01*
X954Y1498D01*
X954Y1496D01*
X950Y1496D01*
X950Y1494D01*
X948Y1494D01*
X948Y1492D01*
X942Y1492D01*
X942Y1490D01*
X934Y1490D01*
X934Y1488D01*
X1010Y1488D01*
X1010Y1490D01*
X1002Y1490D01*
X1002Y1492D01*
X998Y1492D01*
X998Y1494D01*
X994Y1494D01*
X994Y1496D01*
X990Y1496D01*
X990Y1498D01*
X988Y1498D01*
X988Y1500D01*
X984Y1500D01*
X984Y1502D01*
X982Y1502D01*
X982Y1504D01*
X962Y1504D01*
G37*
D02*
G36*
X1062Y1504D02*
X1062Y1502D01*
X1060Y1502D01*
X1060Y1500D01*
X1058Y1500D01*
X1058Y1498D01*
X1054Y1498D01*
X1054Y1496D01*
X1050Y1496D01*
X1050Y1494D01*
X1048Y1494D01*
X1048Y1492D01*
X1042Y1492D01*
X1042Y1490D01*
X1034Y1490D01*
X1034Y1488D01*
X1110Y1488D01*
X1110Y1490D01*
X1102Y1490D01*
X1102Y1492D01*
X1098Y1492D01*
X1098Y1494D01*
X1094Y1494D01*
X1094Y1496D01*
X1090Y1496D01*
X1090Y1498D01*
X1088Y1498D01*
X1088Y1500D01*
X1084Y1500D01*
X1084Y1502D01*
X1082Y1502D01*
X1082Y1504D01*
X1062Y1504D01*
G37*
D02*
G36*
X304Y1488D02*
X304Y1486D01*
X1190Y1486D01*
X1190Y1488D01*
X304Y1488D01*
G37*
D02*
G36*
X304Y1488D02*
X304Y1486D01*
X1190Y1486D01*
X1190Y1488D01*
X304Y1488D01*
G37*
D02*
G36*
X304Y1488D02*
X304Y1486D01*
X1190Y1486D01*
X1190Y1488D01*
X304Y1488D01*
G37*
D02*
G36*
X304Y1488D02*
X304Y1486D01*
X1190Y1486D01*
X1190Y1488D01*
X304Y1488D01*
G37*
D02*
G36*
X304Y1488D02*
X304Y1486D01*
X1190Y1486D01*
X1190Y1488D01*
X304Y1488D01*
G37*
D02*
G36*
X304Y1488D02*
X304Y1486D01*
X1190Y1486D01*
X1190Y1488D01*
X304Y1488D01*
G37*
D02*
G36*
X304Y1488D02*
X304Y1486D01*
X1190Y1486D01*
X1190Y1488D01*
X304Y1488D01*
G37*
D02*
G36*
X304Y1488D02*
X304Y1486D01*
X1190Y1486D01*
X1190Y1488D01*
X304Y1488D01*
G37*
D02*
G36*
X304Y1488D02*
X304Y1486D01*
X1190Y1486D01*
X1190Y1488D01*
X304Y1488D01*
G37*
D02*
G36*
X304Y1486D02*
X304Y1110D01*
X306Y1110D01*
X306Y1108D01*
X308Y1108D01*
X308Y1106D01*
X310Y1106D01*
X310Y1104D01*
X836Y1104D01*
X836Y1102D01*
X842Y1102D01*
X842Y1100D01*
X846Y1100D01*
X846Y1098D01*
X850Y1098D01*
X850Y1096D01*
X854Y1096D01*
X854Y1094D01*
X856Y1094D01*
X856Y1092D01*
X858Y1092D01*
X858Y1090D01*
X862Y1090D01*
X862Y1088D01*
X864Y1088D01*
X864Y1086D01*
X866Y1086D01*
X866Y1082D01*
X868Y1082D01*
X868Y1080D01*
X1006Y1080D01*
X1006Y1082D01*
X1008Y1082D01*
X1008Y1084D01*
X1010Y1084D01*
X1010Y1088D01*
X1012Y1088D01*
X1012Y1090D01*
X1014Y1090D01*
X1014Y1094D01*
X1016Y1094D01*
X1016Y1096D01*
X1018Y1096D01*
X1018Y1100D01*
X1020Y1100D01*
X1020Y1102D01*
X1022Y1102D01*
X1022Y1106D01*
X1024Y1106D01*
X1024Y1108D01*
X1026Y1108D01*
X1026Y1112D01*
X1028Y1112D01*
X1028Y1114D01*
X1030Y1114D01*
X1030Y1118D01*
X1032Y1118D01*
X1032Y1120D01*
X1034Y1120D01*
X1034Y1124D01*
X1036Y1124D01*
X1036Y1126D01*
X1038Y1126D01*
X1038Y1130D01*
X1040Y1130D01*
X1040Y1132D01*
X1042Y1132D01*
X1042Y1136D01*
X1044Y1136D01*
X1044Y1138D01*
X1046Y1138D01*
X1046Y1142D01*
X1048Y1142D01*
X1048Y1144D01*
X1050Y1144D01*
X1050Y1148D01*
X1052Y1148D01*
X1052Y1150D01*
X1054Y1150D01*
X1054Y1154D01*
X1056Y1154D01*
X1056Y1156D01*
X1058Y1156D01*
X1058Y1160D01*
X1060Y1160D01*
X1060Y1162D01*
X1062Y1162D01*
X1062Y1166D01*
X1064Y1166D01*
X1064Y1168D01*
X1066Y1168D01*
X1066Y1172D01*
X1068Y1172D01*
X1068Y1174D01*
X1070Y1174D01*
X1070Y1178D01*
X1072Y1178D01*
X1072Y1180D01*
X1074Y1180D01*
X1074Y1184D01*
X1076Y1184D01*
X1076Y1186D01*
X1078Y1186D01*
X1078Y1190D01*
X1080Y1190D01*
X1080Y1192D01*
X1082Y1192D01*
X1082Y1196D01*
X1084Y1196D01*
X1084Y1198D01*
X1086Y1198D01*
X1086Y1202D01*
X1088Y1202D01*
X1088Y1204D01*
X1090Y1204D01*
X1090Y1400D01*
X1092Y1400D01*
X1092Y1408D01*
X1094Y1408D01*
X1094Y1412D01*
X1096Y1412D01*
X1096Y1414D01*
X1098Y1414D01*
X1098Y1418D01*
X1100Y1418D01*
X1100Y1420D01*
X1102Y1420D01*
X1102Y1422D01*
X1106Y1422D01*
X1106Y1424D01*
X1110Y1424D01*
X1110Y1426D01*
X1114Y1426D01*
X1114Y1428D01*
X1116Y1428D01*
X1116Y1430D01*
X1120Y1430D01*
X1120Y1432D01*
X1124Y1432D01*
X1124Y1434D01*
X1128Y1434D01*
X1128Y1436D01*
X1132Y1436D01*
X1132Y1438D01*
X1136Y1438D01*
X1136Y1440D01*
X1140Y1440D01*
X1140Y1442D01*
X1144Y1442D01*
X1144Y1444D01*
X1146Y1444D01*
X1146Y1446D01*
X1150Y1446D01*
X1150Y1448D01*
X1154Y1448D01*
X1154Y1450D01*
X1158Y1450D01*
X1158Y1452D01*
X1162Y1452D01*
X1162Y1454D01*
X1166Y1454D01*
X1166Y1456D01*
X1170Y1456D01*
X1170Y1458D01*
X1174Y1458D01*
X1174Y1460D01*
X1178Y1460D01*
X1178Y1462D01*
X1180Y1462D01*
X1180Y1464D01*
X1184Y1464D01*
X1184Y1466D01*
X1188Y1466D01*
X1188Y1468D01*
X1190Y1468D01*
X1190Y1486D01*
X304Y1486D01*
G37*
D02*
G36*
X1528Y1388D02*
X1528Y1386D01*
X1886Y1386D01*
X1886Y1388D01*
X1528Y1388D01*
G37*
D02*
G36*
X1528Y1388D02*
X1528Y1386D01*
X1886Y1386D01*
X1886Y1388D01*
X1528Y1388D01*
G37*
D02*
G36*
X1530Y1386D02*
X1530Y1384D01*
X1532Y1384D01*
X1532Y1382D01*
X1534Y1382D01*
X1534Y1380D01*
X1536Y1380D01*
X1536Y1378D01*
X1538Y1378D01*
X1538Y1376D01*
X1540Y1376D01*
X1540Y1374D01*
X1542Y1374D01*
X1542Y1372D01*
X1544Y1372D01*
X1544Y1370D01*
X1546Y1370D01*
X1546Y1368D01*
X1548Y1368D01*
X1548Y1364D01*
X1550Y1364D01*
X1550Y1360D01*
X1552Y1360D01*
X1552Y1356D01*
X1554Y1356D01*
X1554Y1308D01*
X1782Y1308D01*
X1782Y1280D01*
X1802Y1280D01*
X1802Y1282D01*
X1806Y1282D01*
X1806Y1284D01*
X1810Y1284D01*
X1810Y1286D01*
X1812Y1286D01*
X1812Y1288D01*
X1814Y1288D01*
X1814Y1290D01*
X1816Y1290D01*
X1816Y1292D01*
X1818Y1292D01*
X1818Y1294D01*
X1820Y1294D01*
X1820Y1296D01*
X1822Y1296D01*
X1822Y1298D01*
X1824Y1298D01*
X1824Y1300D01*
X1826Y1300D01*
X1826Y1302D01*
X1828Y1302D01*
X1828Y1304D01*
X1830Y1304D01*
X1830Y1306D01*
X1832Y1306D01*
X1832Y1308D01*
X1834Y1308D01*
X1834Y1310D01*
X1836Y1310D01*
X1836Y1312D01*
X1838Y1312D01*
X1838Y1314D01*
X1840Y1314D01*
X1840Y1316D01*
X1842Y1316D01*
X1842Y1318D01*
X1844Y1318D01*
X1844Y1320D01*
X1846Y1320D01*
X1846Y1322D01*
X1848Y1322D01*
X1848Y1324D01*
X1850Y1324D01*
X1850Y1326D01*
X1852Y1326D01*
X1852Y1328D01*
X1854Y1328D01*
X1854Y1330D01*
X1856Y1330D01*
X1856Y1332D01*
X1858Y1332D01*
X1858Y1334D01*
X1860Y1334D01*
X1860Y1336D01*
X1862Y1336D01*
X1862Y1338D01*
X1864Y1338D01*
X1864Y1340D01*
X1866Y1340D01*
X1866Y1342D01*
X1868Y1342D01*
X1868Y1344D01*
X1870Y1344D01*
X1870Y1346D01*
X1872Y1346D01*
X1872Y1348D01*
X1874Y1348D01*
X1874Y1350D01*
X1876Y1350D01*
X1876Y1352D01*
X1878Y1352D01*
X1878Y1354D01*
X1880Y1354D01*
X1880Y1356D01*
X1882Y1356D01*
X1882Y1358D01*
X1884Y1358D01*
X1884Y1360D01*
X1886Y1360D01*
X1886Y1386D01*
X1530Y1386D01*
G37*
D02*
G36*
X1554Y1308D02*
X1554Y1188D01*
X1662Y1188D01*
X1662Y1308D01*
X1554Y1308D01*
G37*
D02*
G36*
X1782Y1214D02*
X1782Y1208D01*
X1812Y1208D01*
X1812Y1210D01*
X1806Y1210D01*
X1806Y1212D01*
X1802Y1212D01*
X1802Y1214D01*
X1782Y1214D01*
G37*
D02*
G36*
X1782Y1208D02*
X1782Y1206D01*
X2322Y1206D01*
X2322Y1208D01*
X1782Y1208D01*
G37*
D02*
G36*
X1782Y1208D02*
X1782Y1206D01*
X2322Y1206D01*
X2322Y1208D01*
X1782Y1208D01*
G37*
D02*
G36*
X1782Y1206D02*
X1782Y1188D01*
X2322Y1188D01*
X2322Y1206D01*
X1782Y1206D01*
G37*
D02*
G36*
X1554Y1188D02*
X1554Y1186D01*
X2322Y1186D01*
X2322Y1188D01*
X1554Y1188D01*
G37*
D02*
G36*
X1554Y1188D02*
X1554Y1186D01*
X2322Y1186D01*
X2322Y1188D01*
X1554Y1188D01*
G37*
D02*
G36*
X1554Y1186D02*
X1554Y1108D01*
X1612Y1108D01*
X1612Y1110D01*
X1606Y1110D01*
X1606Y1112D01*
X1602Y1112D01*
X1602Y1114D01*
X1600Y1114D01*
X1600Y1116D01*
X1596Y1116D01*
X1596Y1118D01*
X1594Y1118D01*
X1594Y1120D01*
X1592Y1120D01*
X1592Y1124D01*
X1590Y1124D01*
X1590Y1126D01*
X1588Y1126D01*
X1588Y1130D01*
X1586Y1130D01*
X1586Y1134D01*
X1584Y1134D01*
X1584Y1144D01*
X1582Y1144D01*
X1582Y1152D01*
X1584Y1152D01*
X1584Y1160D01*
X1586Y1160D01*
X1586Y1166D01*
X1588Y1166D01*
X1588Y1168D01*
X1590Y1168D01*
X1590Y1172D01*
X1592Y1172D01*
X1592Y1174D01*
X1594Y1174D01*
X1594Y1176D01*
X1596Y1176D01*
X1596Y1178D01*
X1598Y1178D01*
X1598Y1180D01*
X1602Y1180D01*
X1602Y1182D01*
X1606Y1182D01*
X1606Y1184D01*
X1610Y1184D01*
X1610Y1186D01*
X1554Y1186D01*
G37*
D02*
G36*
X1634Y1186D02*
X1634Y1184D01*
X1640Y1184D01*
X1640Y1182D01*
X1642Y1182D01*
X1642Y1180D01*
X1646Y1180D01*
X1646Y1178D01*
X1648Y1178D01*
X1648Y1176D01*
X1650Y1176D01*
X1650Y1174D01*
X1652Y1174D01*
X1652Y1172D01*
X1654Y1172D01*
X1654Y1170D01*
X1656Y1170D01*
X1656Y1166D01*
X1658Y1166D01*
X1658Y1162D01*
X1660Y1162D01*
X1660Y1154D01*
X1662Y1154D01*
X1662Y1140D01*
X1660Y1140D01*
X1660Y1132D01*
X1658Y1132D01*
X1658Y1128D01*
X1656Y1128D01*
X1656Y1126D01*
X1654Y1126D01*
X1654Y1122D01*
X1652Y1122D01*
X1652Y1120D01*
X1650Y1120D01*
X1650Y1118D01*
X1648Y1118D01*
X1648Y1116D01*
X1646Y1116D01*
X1646Y1114D01*
X1642Y1114D01*
X1642Y1112D01*
X1638Y1112D01*
X1638Y1110D01*
X1632Y1110D01*
X1632Y1108D01*
X1726Y1108D01*
X1726Y1106D01*
X1738Y1106D01*
X1738Y1104D01*
X1744Y1104D01*
X1744Y1102D01*
X1748Y1102D01*
X1748Y1100D01*
X1752Y1100D01*
X1752Y1098D01*
X1756Y1098D01*
X1756Y1096D01*
X1758Y1096D01*
X1758Y1094D01*
X1760Y1094D01*
X1760Y1092D01*
X1762Y1092D01*
X1762Y1090D01*
X1766Y1090D01*
X1766Y1086D01*
X1834Y1086D01*
X1834Y1084D01*
X1840Y1084D01*
X1840Y1082D01*
X1842Y1082D01*
X1842Y1080D01*
X1846Y1080D01*
X1846Y1078D01*
X1848Y1078D01*
X1848Y1076D01*
X1850Y1076D01*
X1850Y1074D01*
X1852Y1074D01*
X1852Y1072D01*
X1854Y1072D01*
X1854Y1070D01*
X1856Y1070D01*
X1856Y1066D01*
X1858Y1066D01*
X1858Y1062D01*
X1860Y1062D01*
X1860Y1054D01*
X1862Y1054D01*
X1862Y1040D01*
X1860Y1040D01*
X1860Y1032D01*
X1858Y1032D01*
X1858Y1028D01*
X1856Y1028D01*
X1856Y1026D01*
X1854Y1026D01*
X1854Y1022D01*
X1852Y1022D01*
X1852Y1020D01*
X1850Y1020D01*
X1850Y1018D01*
X1848Y1018D01*
X1848Y1016D01*
X1846Y1016D01*
X1846Y1014D01*
X1842Y1014D01*
X1842Y1012D01*
X1838Y1012D01*
X1838Y1010D01*
X1832Y1010D01*
X1832Y1008D01*
X2322Y1008D01*
X2322Y1186D01*
X1634Y1186D01*
G37*
D02*
G36*
X1554Y1108D02*
X1554Y1106D01*
X1720Y1106D01*
X1720Y1108D01*
X1554Y1108D01*
G37*
D02*
G36*
X1554Y1108D02*
X1554Y1106D01*
X1720Y1106D01*
X1720Y1108D01*
X1554Y1108D01*
G37*
D02*
G36*
X1554Y1106D02*
X1554Y1064D01*
X1556Y1064D01*
X1556Y988D01*
X1708Y988D01*
X1708Y990D01*
X1702Y990D01*
X1702Y992D01*
X1696Y992D01*
X1696Y994D01*
X1692Y994D01*
X1692Y996D01*
X1690Y996D01*
X1690Y998D01*
X1686Y998D01*
X1686Y1000D01*
X1684Y1000D01*
X1684Y1002D01*
X1682Y1002D01*
X1682Y1004D01*
X1680Y1004D01*
X1680Y1006D01*
X1678Y1006D01*
X1678Y1008D01*
X1676Y1008D01*
X1676Y1010D01*
X1674Y1010D01*
X1674Y1014D01*
X1672Y1014D01*
X1672Y1016D01*
X1670Y1016D01*
X1670Y1020D01*
X1668Y1020D01*
X1668Y1024D01*
X1666Y1024D01*
X1666Y1030D01*
X1664Y1030D01*
X1664Y1038D01*
X1662Y1038D01*
X1662Y1056D01*
X1664Y1056D01*
X1664Y1064D01*
X1666Y1064D01*
X1666Y1070D01*
X1668Y1070D01*
X1668Y1074D01*
X1670Y1074D01*
X1670Y1078D01*
X1672Y1078D01*
X1672Y1082D01*
X1674Y1082D01*
X1674Y1084D01*
X1676Y1084D01*
X1676Y1086D01*
X1678Y1086D01*
X1678Y1088D01*
X1680Y1088D01*
X1680Y1090D01*
X1682Y1090D01*
X1682Y1092D01*
X1684Y1092D01*
X1684Y1094D01*
X1686Y1094D01*
X1686Y1096D01*
X1690Y1096D01*
X1690Y1098D01*
X1692Y1098D01*
X1692Y1100D01*
X1696Y1100D01*
X1696Y1102D01*
X1700Y1102D01*
X1700Y1104D01*
X1706Y1104D01*
X1706Y1106D01*
X1554Y1106D01*
G37*
D02*
G36*
X312Y1104D02*
X312Y1102D01*
X314Y1102D01*
X314Y1100D01*
X316Y1100D01*
X316Y1098D01*
X318Y1098D01*
X318Y1096D01*
X320Y1096D01*
X320Y1094D01*
X322Y1094D01*
X322Y1092D01*
X324Y1092D01*
X324Y1090D01*
X326Y1090D01*
X326Y1088D01*
X328Y1088D01*
X328Y1086D01*
X330Y1086D01*
X330Y1084D01*
X332Y1084D01*
X332Y1082D01*
X334Y1082D01*
X334Y1080D01*
X376Y1080D01*
X376Y1082D01*
X378Y1082D01*
X378Y1084D01*
X380Y1084D01*
X380Y1088D01*
X382Y1088D01*
X382Y1090D01*
X386Y1090D01*
X386Y1092D01*
X388Y1092D01*
X388Y1094D01*
X390Y1094D01*
X390Y1096D01*
X394Y1096D01*
X394Y1098D01*
X398Y1098D01*
X398Y1100D01*
X402Y1100D01*
X402Y1102D01*
X410Y1102D01*
X410Y1104D01*
X312Y1104D01*
G37*
D02*
G36*
X436Y1104D02*
X436Y1102D01*
X442Y1102D01*
X442Y1100D01*
X446Y1100D01*
X446Y1098D01*
X450Y1098D01*
X450Y1096D01*
X454Y1096D01*
X454Y1094D01*
X456Y1094D01*
X456Y1092D01*
X458Y1092D01*
X458Y1090D01*
X462Y1090D01*
X462Y1088D01*
X464Y1088D01*
X464Y1086D01*
X466Y1086D01*
X466Y1082D01*
X468Y1082D01*
X468Y1080D01*
X470Y1080D01*
X470Y1078D01*
X472Y1078D01*
X472Y1074D01*
X474Y1074D01*
X474Y1070D01*
X476Y1070D01*
X476Y1064D01*
X478Y1064D01*
X478Y1056D01*
X480Y1056D01*
X480Y1040D01*
X478Y1040D01*
X478Y1030D01*
X476Y1030D01*
X476Y1024D01*
X474Y1024D01*
X474Y1020D01*
X472Y1020D01*
X472Y1018D01*
X470Y1018D01*
X470Y1014D01*
X468Y1014D01*
X468Y1012D01*
X466Y1012D01*
X466Y1010D01*
X464Y1010D01*
X464Y1006D01*
X460Y1006D01*
X460Y1004D01*
X458Y1004D01*
X458Y1002D01*
X456Y1002D01*
X456Y1000D01*
X454Y1000D01*
X454Y770D01*
X456Y770D01*
X456Y766D01*
X458Y766D01*
X458Y762D01*
X460Y762D01*
X460Y754D01*
X462Y754D01*
X462Y740D01*
X460Y740D01*
X460Y732D01*
X458Y732D01*
X458Y728D01*
X456Y728D01*
X456Y726D01*
X454Y726D01*
X454Y722D01*
X452Y722D01*
X452Y720D01*
X450Y720D01*
X450Y706D01*
X636Y706D01*
X636Y704D01*
X644Y704D01*
X644Y702D01*
X648Y702D01*
X648Y700D01*
X652Y700D01*
X652Y698D01*
X654Y698D01*
X654Y696D01*
X658Y696D01*
X658Y694D01*
X660Y694D01*
X660Y692D01*
X662Y692D01*
X662Y690D01*
X682Y690D01*
X682Y692D01*
X684Y692D01*
X684Y694D01*
X686Y694D01*
X686Y696D01*
X690Y696D01*
X690Y698D01*
X692Y698D01*
X692Y700D01*
X694Y700D01*
X694Y720D01*
X692Y720D01*
X692Y724D01*
X690Y724D01*
X690Y726D01*
X688Y726D01*
X688Y730D01*
X686Y730D01*
X686Y734D01*
X684Y734D01*
X684Y744D01*
X682Y744D01*
X682Y752D01*
X684Y752D01*
X684Y760D01*
X686Y760D01*
X686Y766D01*
X688Y766D01*
X688Y768D01*
X690Y768D01*
X690Y772D01*
X692Y772D01*
X692Y774D01*
X694Y774D01*
X694Y776D01*
X696Y776D01*
X696Y778D01*
X698Y778D01*
X698Y780D01*
X702Y780D01*
X702Y782D01*
X706Y782D01*
X706Y784D01*
X710Y784D01*
X710Y786D01*
X716Y786D01*
X716Y788D01*
X718Y788D01*
X718Y790D01*
X720Y790D01*
X720Y792D01*
X722Y792D01*
X722Y794D01*
X724Y794D01*
X724Y796D01*
X726Y796D01*
X726Y798D01*
X728Y798D01*
X728Y800D01*
X730Y800D01*
X730Y802D01*
X732Y802D01*
X732Y804D01*
X734Y804D01*
X734Y806D01*
X736Y806D01*
X736Y808D01*
X738Y808D01*
X738Y810D01*
X740Y810D01*
X740Y812D01*
X742Y812D01*
X742Y814D01*
X744Y814D01*
X744Y816D01*
X746Y816D01*
X746Y818D01*
X748Y818D01*
X748Y820D01*
X750Y820D01*
X750Y822D01*
X752Y822D01*
X752Y824D01*
X754Y824D01*
X754Y826D01*
X756Y826D01*
X756Y828D01*
X758Y828D01*
X758Y830D01*
X760Y830D01*
X760Y832D01*
X762Y832D01*
X762Y834D01*
X764Y834D01*
X764Y836D01*
X766Y836D01*
X766Y838D01*
X768Y838D01*
X768Y840D01*
X770Y840D01*
X770Y842D01*
X772Y842D01*
X772Y844D01*
X774Y844D01*
X774Y846D01*
X776Y846D01*
X776Y848D01*
X778Y848D01*
X778Y850D01*
X780Y850D01*
X780Y852D01*
X782Y852D01*
X782Y854D01*
X784Y854D01*
X784Y856D01*
X786Y856D01*
X786Y858D01*
X788Y858D01*
X788Y860D01*
X790Y860D01*
X790Y1000D01*
X788Y1000D01*
X788Y1002D01*
X786Y1002D01*
X786Y1004D01*
X784Y1004D01*
X784Y1006D01*
X782Y1006D01*
X782Y1008D01*
X780Y1008D01*
X780Y1010D01*
X778Y1010D01*
X778Y1012D01*
X776Y1012D01*
X776Y1014D01*
X774Y1014D01*
X774Y1018D01*
X772Y1018D01*
X772Y1022D01*
X770Y1022D01*
X770Y1026D01*
X768Y1026D01*
X768Y1032D01*
X766Y1032D01*
X766Y1042D01*
X764Y1042D01*
X764Y1052D01*
X766Y1052D01*
X766Y1062D01*
X768Y1062D01*
X768Y1068D01*
X770Y1068D01*
X770Y1074D01*
X772Y1074D01*
X772Y1076D01*
X774Y1076D01*
X774Y1080D01*
X776Y1080D01*
X776Y1082D01*
X778Y1082D01*
X778Y1084D01*
X780Y1084D01*
X780Y1088D01*
X782Y1088D01*
X782Y1090D01*
X786Y1090D01*
X786Y1092D01*
X788Y1092D01*
X788Y1094D01*
X790Y1094D01*
X790Y1096D01*
X794Y1096D01*
X794Y1098D01*
X798Y1098D01*
X798Y1100D01*
X802Y1100D01*
X802Y1102D01*
X810Y1102D01*
X810Y1104D01*
X436Y1104D01*
G37*
D02*
G36*
X1768Y1086D02*
X1768Y1084D01*
X1770Y1084D01*
X1770Y1082D01*
X1772Y1082D01*
X1772Y1078D01*
X1774Y1078D01*
X1774Y1076D01*
X1796Y1076D01*
X1796Y1078D01*
X1798Y1078D01*
X1798Y1080D01*
X1802Y1080D01*
X1802Y1082D01*
X1806Y1082D01*
X1806Y1084D01*
X1810Y1084D01*
X1810Y1086D01*
X1768Y1086D01*
G37*
D02*
G36*
X1774Y1018D02*
X1774Y1016D01*
X1772Y1016D01*
X1772Y1012D01*
X1770Y1012D01*
X1770Y1010D01*
X1768Y1010D01*
X1768Y1008D01*
X1812Y1008D01*
X1812Y1010D01*
X1806Y1010D01*
X1806Y1012D01*
X1802Y1012D01*
X1802Y1014D01*
X1800Y1014D01*
X1800Y1016D01*
X1796Y1016D01*
X1796Y1018D01*
X1774Y1018D01*
G37*
D02*
G36*
X1766Y1008D02*
X1766Y1006D01*
X2322Y1006D01*
X2322Y1008D01*
X1766Y1008D01*
G37*
D02*
G36*
X1766Y1008D02*
X1766Y1006D01*
X2322Y1006D01*
X2322Y1008D01*
X1766Y1008D01*
G37*
D02*
G36*
X1764Y1006D02*
X1764Y1004D01*
X1762Y1004D01*
X1762Y1002D01*
X1760Y1002D01*
X1760Y1000D01*
X1758Y1000D01*
X1758Y998D01*
X1754Y998D01*
X1754Y996D01*
X1752Y996D01*
X1752Y994D01*
X1748Y994D01*
X1748Y992D01*
X1744Y992D01*
X1744Y990D01*
X1736Y990D01*
X1736Y988D01*
X2322Y988D01*
X2322Y1006D01*
X1764Y1006D01*
G37*
D02*
G36*
X1556Y988D02*
X1556Y986D01*
X2322Y986D01*
X2322Y988D01*
X1556Y988D01*
G37*
D02*
G36*
X1556Y988D02*
X1556Y986D01*
X2322Y986D01*
X2322Y988D01*
X1556Y988D01*
G37*
D02*
G36*
X1556Y986D02*
X1556Y960D01*
X1558Y960D01*
X1558Y958D01*
X1560Y958D01*
X1560Y956D01*
X1562Y956D01*
X1562Y954D01*
X1564Y954D01*
X1564Y952D01*
X1566Y952D01*
X1566Y950D01*
X1568Y950D01*
X1568Y948D01*
X1570Y948D01*
X1570Y944D01*
X1572Y944D01*
X1572Y942D01*
X1574Y942D01*
X1574Y940D01*
X1576Y940D01*
X1576Y938D01*
X1578Y938D01*
X1578Y936D01*
X1580Y936D01*
X1580Y934D01*
X1582Y934D01*
X1582Y932D01*
X1584Y932D01*
X1584Y930D01*
X1586Y930D01*
X1586Y928D01*
X1588Y928D01*
X1588Y926D01*
X1590Y926D01*
X1590Y924D01*
X1592Y924D01*
X1592Y922D01*
X1594Y922D01*
X1594Y920D01*
X1596Y920D01*
X1596Y918D01*
X1598Y918D01*
X1598Y916D01*
X1600Y916D01*
X1600Y914D01*
X1602Y914D01*
X1602Y912D01*
X1604Y912D01*
X1604Y910D01*
X1606Y910D01*
X1606Y908D01*
X1782Y908D01*
X1782Y788D01*
X2322Y788D01*
X2322Y986D01*
X1556Y986D01*
G37*
D02*
G36*
X1608Y908D02*
X1608Y906D01*
X1610Y906D01*
X1610Y904D01*
X1612Y904D01*
X1612Y902D01*
X1614Y902D01*
X1614Y900D01*
X1616Y900D01*
X1616Y898D01*
X1618Y898D01*
X1618Y896D01*
X1620Y896D01*
X1620Y894D01*
X1622Y894D01*
X1622Y892D01*
X1624Y892D01*
X1624Y890D01*
X1626Y890D01*
X1626Y888D01*
X1628Y888D01*
X1628Y886D01*
X1634Y886D01*
X1634Y884D01*
X1640Y884D01*
X1640Y882D01*
X1642Y882D01*
X1642Y880D01*
X1662Y880D01*
X1662Y908D01*
X1608Y908D01*
G37*
D02*
G36*
X1642Y814D02*
X1642Y812D01*
X1638Y812D01*
X1638Y810D01*
X1632Y810D01*
X1632Y808D01*
X1662Y808D01*
X1662Y814D01*
X1642Y814D01*
G37*
D02*
G36*
X828Y808D02*
X828Y806D01*
X1662Y806D01*
X1662Y808D01*
X828Y808D01*
G37*
D02*
G36*
X828Y808D02*
X828Y806D01*
X1662Y806D01*
X1662Y808D01*
X828Y808D01*
G37*
D02*
G36*
X826Y806D02*
X826Y804D01*
X824Y804D01*
X824Y802D01*
X822Y802D01*
X822Y800D01*
X820Y800D01*
X820Y798D01*
X818Y798D01*
X818Y796D01*
X816Y796D01*
X816Y794D01*
X814Y794D01*
X814Y792D01*
X812Y792D01*
X812Y790D01*
X810Y790D01*
X810Y788D01*
X1662Y788D01*
X1662Y806D01*
X826Y806D01*
G37*
D02*
G36*
X808Y788D02*
X808Y786D01*
X2322Y786D01*
X2322Y788D01*
X808Y788D01*
G37*
D02*
G36*
X808Y788D02*
X808Y786D01*
X2322Y786D01*
X2322Y788D01*
X808Y788D01*
G37*
D02*
G36*
X806Y786D02*
X806Y784D01*
X804Y784D01*
X804Y782D01*
X802Y782D01*
X802Y780D01*
X800Y780D01*
X800Y778D01*
X798Y778D01*
X798Y776D01*
X796Y776D01*
X796Y774D01*
X794Y774D01*
X794Y772D01*
X792Y772D01*
X792Y770D01*
X790Y770D01*
X790Y768D01*
X788Y768D01*
X788Y766D01*
X786Y766D01*
X786Y764D01*
X784Y764D01*
X784Y762D01*
X782Y762D01*
X782Y760D01*
X780Y760D01*
X780Y758D01*
X778Y758D01*
X778Y756D01*
X776Y756D01*
X776Y754D01*
X774Y754D01*
X774Y752D01*
X772Y752D01*
X772Y750D01*
X770Y750D01*
X770Y748D01*
X768Y748D01*
X768Y746D01*
X766Y746D01*
X766Y744D01*
X764Y744D01*
X764Y742D01*
X762Y742D01*
X762Y740D01*
X760Y740D01*
X760Y732D01*
X758Y732D01*
X758Y728D01*
X756Y728D01*
X756Y726D01*
X754Y726D01*
X754Y722D01*
X752Y722D01*
X752Y720D01*
X750Y720D01*
X750Y708D01*
X1726Y708D01*
X1726Y706D01*
X1738Y706D01*
X1738Y704D01*
X1744Y704D01*
X1744Y702D01*
X1748Y702D01*
X1748Y700D01*
X1752Y700D01*
X1752Y698D01*
X1756Y698D01*
X1756Y696D01*
X1758Y696D01*
X1758Y694D01*
X1760Y694D01*
X1760Y692D01*
X1762Y692D01*
X1762Y690D01*
X1766Y690D01*
X1766Y686D01*
X1834Y686D01*
X1834Y684D01*
X1840Y684D01*
X1840Y682D01*
X1842Y682D01*
X1842Y680D01*
X1846Y680D01*
X1846Y678D01*
X1848Y678D01*
X1848Y676D01*
X1850Y676D01*
X1850Y674D01*
X1852Y674D01*
X1852Y672D01*
X1854Y672D01*
X1854Y670D01*
X1856Y670D01*
X1856Y666D01*
X1858Y666D01*
X1858Y662D01*
X1860Y662D01*
X1860Y654D01*
X1862Y654D01*
X1862Y640D01*
X1860Y640D01*
X1860Y632D01*
X1858Y632D01*
X1858Y628D01*
X1856Y628D01*
X1856Y626D01*
X1854Y626D01*
X1854Y622D01*
X1852Y622D01*
X1852Y620D01*
X1850Y620D01*
X1850Y618D01*
X1848Y618D01*
X1848Y616D01*
X1846Y616D01*
X1846Y614D01*
X1842Y614D01*
X1842Y612D01*
X1838Y612D01*
X1838Y610D01*
X1832Y610D01*
X1832Y608D01*
X2322Y608D01*
X2322Y786D01*
X806Y786D01*
G37*
D02*
G36*
X750Y708D02*
X750Y706D01*
X1136Y706D01*
X1136Y704D01*
X1144Y704D01*
X1144Y702D01*
X1148Y702D01*
X1148Y700D01*
X1152Y700D01*
X1152Y698D01*
X1154Y698D01*
X1154Y696D01*
X1158Y696D01*
X1158Y694D01*
X1160Y694D01*
X1160Y692D01*
X1162Y692D01*
X1162Y690D01*
X1164Y690D01*
X1164Y688D01*
X1166Y688D01*
X1166Y686D01*
X1168Y686D01*
X1168Y684D01*
X1170Y684D01*
X1170Y682D01*
X1172Y682D01*
X1172Y678D01*
X1174Y678D01*
X1174Y674D01*
X1176Y674D01*
X1176Y670D01*
X1178Y670D01*
X1178Y666D01*
X1180Y666D01*
X1180Y656D01*
X1182Y656D01*
X1182Y638D01*
X1180Y638D01*
X1180Y628D01*
X1178Y628D01*
X1178Y624D01*
X1176Y624D01*
X1176Y620D01*
X1174Y620D01*
X1174Y616D01*
X1172Y616D01*
X1172Y614D01*
X1170Y614D01*
X1170Y610D01*
X1168Y610D01*
X1168Y608D01*
X1166Y608D01*
X1166Y606D01*
X1164Y606D01*
X1164Y604D01*
X1162Y604D01*
X1162Y602D01*
X1160Y602D01*
X1160Y600D01*
X1158Y600D01*
X1158Y598D01*
X1154Y598D01*
X1154Y596D01*
X1152Y596D01*
X1152Y594D01*
X1148Y594D01*
X1148Y592D01*
X1142Y592D01*
X1142Y590D01*
X1134Y590D01*
X1134Y588D01*
X1708Y588D01*
X1708Y590D01*
X1702Y590D01*
X1702Y592D01*
X1696Y592D01*
X1696Y594D01*
X1692Y594D01*
X1692Y596D01*
X1690Y596D01*
X1690Y598D01*
X1686Y598D01*
X1686Y600D01*
X1684Y600D01*
X1684Y602D01*
X1682Y602D01*
X1682Y604D01*
X1680Y604D01*
X1680Y606D01*
X1678Y606D01*
X1678Y608D01*
X1676Y608D01*
X1676Y610D01*
X1674Y610D01*
X1674Y614D01*
X1672Y614D01*
X1672Y616D01*
X1670Y616D01*
X1670Y620D01*
X1668Y620D01*
X1668Y624D01*
X1666Y624D01*
X1666Y630D01*
X1664Y630D01*
X1664Y638D01*
X1662Y638D01*
X1662Y656D01*
X1664Y656D01*
X1664Y664D01*
X1666Y664D01*
X1666Y670D01*
X1668Y670D01*
X1668Y674D01*
X1670Y674D01*
X1670Y678D01*
X1672Y678D01*
X1672Y682D01*
X1674Y682D01*
X1674Y684D01*
X1676Y684D01*
X1676Y686D01*
X1678Y686D01*
X1678Y688D01*
X1680Y688D01*
X1680Y690D01*
X1682Y690D01*
X1682Y692D01*
X1684Y692D01*
X1684Y694D01*
X1686Y694D01*
X1686Y696D01*
X1690Y696D01*
X1690Y698D01*
X1692Y698D01*
X1692Y700D01*
X1696Y700D01*
X1696Y702D01*
X1700Y702D01*
X1700Y704D01*
X1706Y704D01*
X1706Y706D01*
X1720Y706D01*
X1720Y708D01*
X750Y708D01*
G37*
D02*
G36*
X450Y706D02*
X450Y700D01*
X452Y700D01*
X452Y698D01*
X454Y698D01*
X454Y696D01*
X458Y696D01*
X458Y694D01*
X460Y694D01*
X460Y692D01*
X462Y692D01*
X462Y690D01*
X482Y690D01*
X482Y692D01*
X484Y692D01*
X484Y694D01*
X486Y694D01*
X486Y696D01*
X490Y696D01*
X490Y698D01*
X492Y698D01*
X492Y700D01*
X496Y700D01*
X496Y702D01*
X502Y702D01*
X502Y704D01*
X508Y704D01*
X508Y706D01*
X450Y706D01*
G37*
D02*
G36*
X536Y706D02*
X536Y704D01*
X544Y704D01*
X544Y702D01*
X548Y702D01*
X548Y700D01*
X552Y700D01*
X552Y698D01*
X554Y698D01*
X554Y696D01*
X558Y696D01*
X558Y694D01*
X560Y694D01*
X560Y692D01*
X562Y692D01*
X562Y690D01*
X582Y690D01*
X582Y692D01*
X584Y692D01*
X584Y694D01*
X586Y694D01*
X586Y696D01*
X590Y696D01*
X590Y698D01*
X592Y698D01*
X592Y700D01*
X596Y700D01*
X596Y702D01*
X602Y702D01*
X602Y704D01*
X608Y704D01*
X608Y706D01*
X536Y706D01*
G37*
D02*
G36*
X750Y706D02*
X750Y700D01*
X752Y700D01*
X752Y698D01*
X754Y698D01*
X754Y696D01*
X758Y696D01*
X758Y694D01*
X760Y694D01*
X760Y692D01*
X762Y692D01*
X762Y690D01*
X782Y690D01*
X782Y692D01*
X784Y692D01*
X784Y694D01*
X786Y694D01*
X786Y696D01*
X790Y696D01*
X790Y698D01*
X792Y698D01*
X792Y700D01*
X796Y700D01*
X796Y702D01*
X802Y702D01*
X802Y704D01*
X808Y704D01*
X808Y706D01*
X750Y706D01*
G37*
D02*
G36*
X836Y706D02*
X836Y704D01*
X844Y704D01*
X844Y702D01*
X848Y702D01*
X848Y700D01*
X852Y700D01*
X852Y698D01*
X854Y698D01*
X854Y696D01*
X858Y696D01*
X858Y694D01*
X860Y694D01*
X860Y692D01*
X862Y692D01*
X862Y690D01*
X882Y690D01*
X882Y692D01*
X884Y692D01*
X884Y694D01*
X888Y694D01*
X888Y696D01*
X890Y696D01*
X890Y698D01*
X892Y698D01*
X892Y700D01*
X896Y700D01*
X896Y702D01*
X902Y702D01*
X902Y704D01*
X908Y704D01*
X908Y706D01*
X836Y706D01*
G37*
D02*
G36*
X936Y706D02*
X936Y704D01*
X944Y704D01*
X944Y702D01*
X948Y702D01*
X948Y700D01*
X952Y700D01*
X952Y698D01*
X954Y698D01*
X954Y696D01*
X958Y696D01*
X958Y694D01*
X960Y694D01*
X960Y692D01*
X962Y692D01*
X962Y690D01*
X982Y690D01*
X982Y692D01*
X984Y692D01*
X984Y694D01*
X986Y694D01*
X986Y696D01*
X990Y696D01*
X990Y698D01*
X992Y698D01*
X992Y700D01*
X996Y700D01*
X996Y702D01*
X1002Y702D01*
X1002Y704D01*
X1008Y704D01*
X1008Y706D01*
X936Y706D01*
G37*
D02*
G36*
X1036Y706D02*
X1036Y704D01*
X1044Y704D01*
X1044Y702D01*
X1048Y702D01*
X1048Y700D01*
X1052Y700D01*
X1052Y698D01*
X1054Y698D01*
X1054Y696D01*
X1058Y696D01*
X1058Y694D01*
X1060Y694D01*
X1060Y692D01*
X1062Y692D01*
X1062Y690D01*
X1082Y690D01*
X1082Y692D01*
X1084Y692D01*
X1084Y694D01*
X1088Y694D01*
X1088Y696D01*
X1090Y696D01*
X1090Y698D01*
X1092Y698D01*
X1092Y700D01*
X1096Y700D01*
X1096Y702D01*
X1102Y702D01*
X1102Y704D01*
X1108Y704D01*
X1108Y706D01*
X1036Y706D01*
G37*
D02*
G36*
X1768Y686D02*
X1768Y684D01*
X1770Y684D01*
X1770Y682D01*
X1772Y682D01*
X1772Y678D01*
X1774Y678D01*
X1774Y676D01*
X1796Y676D01*
X1796Y678D01*
X1798Y678D01*
X1798Y680D01*
X1802Y680D01*
X1802Y682D01*
X1806Y682D01*
X1806Y684D01*
X1810Y684D01*
X1810Y686D01*
X1768Y686D01*
G37*
D02*
G36*
X1774Y618D02*
X1774Y616D01*
X1772Y616D01*
X1772Y612D01*
X1770Y612D01*
X1770Y610D01*
X1768Y610D01*
X1768Y608D01*
X1812Y608D01*
X1812Y610D01*
X1806Y610D01*
X1806Y612D01*
X1802Y612D01*
X1802Y614D01*
X1800Y614D01*
X1800Y616D01*
X1796Y616D01*
X1796Y618D01*
X1774Y618D01*
G37*
D02*
G36*
X1766Y608D02*
X1766Y606D01*
X2322Y606D01*
X2322Y608D01*
X1766Y608D01*
G37*
D02*
G36*
X1766Y608D02*
X1766Y606D01*
X2322Y606D01*
X2322Y608D01*
X1766Y608D01*
G37*
D02*
G36*
X1764Y606D02*
X1764Y604D01*
X1762Y604D01*
X1762Y602D01*
X1760Y602D01*
X1760Y600D01*
X1758Y600D01*
X1758Y598D01*
X1754Y598D01*
X1754Y596D01*
X1752Y596D01*
X1752Y594D01*
X1748Y594D01*
X1748Y592D01*
X1744Y592D01*
X1744Y590D01*
X1736Y590D01*
X1736Y588D01*
X2322Y588D01*
X2322Y606D01*
X1764Y606D01*
G37*
D02*
G36*
X462Y604D02*
X462Y602D01*
X460Y602D01*
X460Y600D01*
X458Y600D01*
X458Y598D01*
X454Y598D01*
X454Y596D01*
X452Y596D01*
X452Y594D01*
X448Y594D01*
X448Y592D01*
X442Y592D01*
X442Y590D01*
X434Y590D01*
X434Y588D01*
X510Y588D01*
X510Y590D01*
X502Y590D01*
X502Y592D01*
X498Y592D01*
X498Y594D01*
X494Y594D01*
X494Y596D01*
X490Y596D01*
X490Y598D01*
X488Y598D01*
X488Y600D01*
X484Y600D01*
X484Y602D01*
X482Y602D01*
X482Y604D01*
X462Y604D01*
G37*
D02*
G36*
X562Y604D02*
X562Y602D01*
X560Y602D01*
X560Y600D01*
X558Y600D01*
X558Y598D01*
X554Y598D01*
X554Y596D01*
X550Y596D01*
X550Y594D01*
X548Y594D01*
X548Y592D01*
X542Y592D01*
X542Y590D01*
X534Y590D01*
X534Y588D01*
X610Y588D01*
X610Y590D01*
X602Y590D01*
X602Y592D01*
X598Y592D01*
X598Y594D01*
X594Y594D01*
X594Y596D01*
X590Y596D01*
X590Y598D01*
X588Y598D01*
X588Y600D01*
X584Y600D01*
X584Y602D01*
X582Y602D01*
X582Y604D01*
X562Y604D01*
G37*
D02*
G36*
X662Y604D02*
X662Y602D01*
X660Y602D01*
X660Y600D01*
X658Y600D01*
X658Y598D01*
X654Y598D01*
X654Y596D01*
X650Y596D01*
X650Y594D01*
X648Y594D01*
X648Y592D01*
X642Y592D01*
X642Y590D01*
X634Y590D01*
X634Y588D01*
X710Y588D01*
X710Y590D01*
X702Y590D01*
X702Y592D01*
X698Y592D01*
X698Y594D01*
X694Y594D01*
X694Y596D01*
X690Y596D01*
X690Y598D01*
X688Y598D01*
X688Y600D01*
X684Y600D01*
X684Y602D01*
X682Y602D01*
X682Y604D01*
X662Y604D01*
G37*
D02*
G36*
X762Y604D02*
X762Y602D01*
X760Y602D01*
X760Y600D01*
X758Y600D01*
X758Y598D01*
X754Y598D01*
X754Y596D01*
X750Y596D01*
X750Y594D01*
X748Y594D01*
X748Y592D01*
X742Y592D01*
X742Y590D01*
X734Y590D01*
X734Y588D01*
X810Y588D01*
X810Y590D01*
X802Y590D01*
X802Y592D01*
X798Y592D01*
X798Y594D01*
X794Y594D01*
X794Y596D01*
X790Y596D01*
X790Y598D01*
X788Y598D01*
X788Y600D01*
X784Y600D01*
X784Y602D01*
X782Y602D01*
X782Y604D01*
X762Y604D01*
G37*
D02*
G36*
X862Y604D02*
X862Y602D01*
X860Y602D01*
X860Y600D01*
X858Y600D01*
X858Y598D01*
X854Y598D01*
X854Y596D01*
X850Y596D01*
X850Y594D01*
X848Y594D01*
X848Y592D01*
X842Y592D01*
X842Y590D01*
X834Y590D01*
X834Y588D01*
X910Y588D01*
X910Y590D01*
X902Y590D01*
X902Y592D01*
X898Y592D01*
X898Y594D01*
X894Y594D01*
X894Y596D01*
X890Y596D01*
X890Y598D01*
X888Y598D01*
X888Y600D01*
X884Y600D01*
X884Y602D01*
X882Y602D01*
X882Y604D01*
X862Y604D01*
G37*
D02*
G36*
X962Y604D02*
X962Y602D01*
X960Y602D01*
X960Y600D01*
X958Y600D01*
X958Y598D01*
X954Y598D01*
X954Y596D01*
X950Y596D01*
X950Y594D01*
X948Y594D01*
X948Y592D01*
X942Y592D01*
X942Y590D01*
X934Y590D01*
X934Y588D01*
X1010Y588D01*
X1010Y590D01*
X1002Y590D01*
X1002Y592D01*
X998Y592D01*
X998Y594D01*
X994Y594D01*
X994Y596D01*
X990Y596D01*
X990Y598D01*
X988Y598D01*
X988Y600D01*
X984Y600D01*
X984Y602D01*
X982Y602D01*
X982Y604D01*
X962Y604D01*
G37*
D02*
G36*
X1062Y604D02*
X1062Y602D01*
X1060Y602D01*
X1060Y600D01*
X1058Y600D01*
X1058Y598D01*
X1054Y598D01*
X1054Y596D01*
X1050Y596D01*
X1050Y594D01*
X1048Y594D01*
X1048Y592D01*
X1042Y592D01*
X1042Y590D01*
X1034Y590D01*
X1034Y588D01*
X1110Y588D01*
X1110Y590D01*
X1102Y590D01*
X1102Y592D01*
X1098Y592D01*
X1098Y594D01*
X1094Y594D01*
X1094Y596D01*
X1090Y596D01*
X1090Y598D01*
X1088Y598D01*
X1088Y600D01*
X1084Y600D01*
X1084Y602D01*
X1082Y602D01*
X1082Y604D01*
X1062Y604D01*
G37*
D02*
G36*
X40Y588D02*
X40Y586D01*
X2322Y586D01*
X2322Y588D01*
X40Y588D01*
G37*
D02*
G36*
X40Y588D02*
X40Y586D01*
X2322Y586D01*
X2322Y588D01*
X40Y588D01*
G37*
D02*
G36*
X40Y588D02*
X40Y586D01*
X2322Y586D01*
X2322Y588D01*
X40Y588D01*
G37*
D02*
G36*
X40Y588D02*
X40Y586D01*
X2322Y586D01*
X2322Y588D01*
X40Y588D01*
G37*
D02*
G36*
X40Y588D02*
X40Y586D01*
X2322Y586D01*
X2322Y588D01*
X40Y588D01*
G37*
D02*
G36*
X40Y588D02*
X40Y586D01*
X2322Y586D01*
X2322Y588D01*
X40Y588D01*
G37*
D02*
G36*
X40Y588D02*
X40Y586D01*
X2322Y586D01*
X2322Y588D01*
X40Y588D01*
G37*
D02*
G36*
X40Y588D02*
X40Y586D01*
X2322Y586D01*
X2322Y588D01*
X40Y588D01*
G37*
D02*
G36*
X40Y588D02*
X40Y586D01*
X2322Y586D01*
X2322Y588D01*
X40Y588D01*
G37*
D02*
G36*
X40Y588D02*
X40Y586D01*
X2322Y586D01*
X2322Y588D01*
X40Y588D01*
G37*
D02*
G36*
X40Y586D02*
X40Y554D01*
X1086Y554D01*
X1086Y552D01*
X1092Y552D01*
X1092Y550D01*
X1096Y550D01*
X1096Y548D01*
X1100Y548D01*
X1100Y546D01*
X1104Y546D01*
X1104Y544D01*
X1106Y544D01*
X1106Y542D01*
X1108Y542D01*
X1108Y540D01*
X1112Y540D01*
X1112Y538D01*
X1114Y538D01*
X1114Y536D01*
X1116Y536D01*
X1116Y532D01*
X1118Y532D01*
X1118Y530D01*
X1120Y530D01*
X1120Y528D01*
X1122Y528D01*
X1122Y524D01*
X1124Y524D01*
X1124Y520D01*
X1126Y520D01*
X1126Y514D01*
X1128Y514D01*
X1128Y508D01*
X1434Y508D01*
X1434Y446D01*
X1820Y446D01*
X1820Y444D01*
X1824Y444D01*
X1824Y442D01*
X1828Y442D01*
X1828Y440D01*
X1830Y440D01*
X1830Y436D01*
X1832Y436D01*
X1832Y434D01*
X1834Y434D01*
X1834Y428D01*
X1836Y428D01*
X1836Y424D01*
X1952Y424D01*
X1952Y422D01*
X1962Y422D01*
X1962Y420D01*
X1966Y420D01*
X1966Y418D01*
X1968Y418D01*
X1968Y416D01*
X1972Y416D01*
X1972Y414D01*
X1974Y414D01*
X1974Y412D01*
X1976Y412D01*
X1976Y410D01*
X1978Y410D01*
X1978Y406D01*
X1980Y406D01*
X1980Y404D01*
X1982Y404D01*
X1982Y400D01*
X1984Y400D01*
X1984Y388D01*
X1986Y388D01*
X1986Y370D01*
X1984Y370D01*
X1984Y358D01*
X1982Y358D01*
X1982Y354D01*
X1980Y354D01*
X1980Y352D01*
X1978Y352D01*
X1978Y348D01*
X1976Y348D01*
X1976Y346D01*
X1974Y346D01*
X1974Y344D01*
X1970Y344D01*
X1970Y342D01*
X1968Y342D01*
X1968Y340D01*
X1964Y340D01*
X1964Y338D01*
X1960Y338D01*
X1960Y336D01*
X2322Y336D01*
X2322Y586D01*
X40Y586D01*
G37*
D02*
G36*
X40Y554D02*
X40Y486D01*
X934Y486D01*
X934Y484D01*
X940Y484D01*
X940Y482D01*
X942Y482D01*
X942Y480D01*
X946Y480D01*
X946Y478D01*
X948Y478D01*
X948Y476D01*
X950Y476D01*
X950Y474D01*
X952Y474D01*
X952Y472D01*
X954Y472D01*
X954Y470D01*
X956Y470D01*
X956Y466D01*
X958Y466D01*
X958Y462D01*
X960Y462D01*
X960Y454D01*
X962Y454D01*
X962Y440D01*
X1060Y440D01*
X1060Y442D01*
X1054Y442D01*
X1054Y444D01*
X1048Y444D01*
X1048Y446D01*
X1044Y446D01*
X1044Y448D01*
X1042Y448D01*
X1042Y450D01*
X1038Y450D01*
X1038Y452D01*
X1036Y452D01*
X1036Y454D01*
X1034Y454D01*
X1034Y456D01*
X1032Y456D01*
X1032Y458D01*
X1030Y458D01*
X1030Y460D01*
X1028Y460D01*
X1028Y462D01*
X1026Y462D01*
X1026Y464D01*
X1024Y464D01*
X1024Y468D01*
X1022Y468D01*
X1022Y472D01*
X1020Y472D01*
X1020Y476D01*
X1018Y476D01*
X1018Y482D01*
X1016Y482D01*
X1016Y492D01*
X1014Y492D01*
X1014Y502D01*
X1016Y502D01*
X1016Y512D01*
X1018Y512D01*
X1018Y518D01*
X1020Y518D01*
X1020Y524D01*
X1022Y524D01*
X1022Y526D01*
X1024Y526D01*
X1024Y530D01*
X1026Y530D01*
X1026Y532D01*
X1028Y532D01*
X1028Y534D01*
X1030Y534D01*
X1030Y538D01*
X1032Y538D01*
X1032Y540D01*
X1036Y540D01*
X1036Y542D01*
X1038Y542D01*
X1038Y544D01*
X1040Y544D01*
X1040Y546D01*
X1044Y546D01*
X1044Y548D01*
X1048Y548D01*
X1048Y550D01*
X1052Y550D01*
X1052Y552D01*
X1060Y552D01*
X1060Y554D01*
X40Y554D01*
G37*
D02*
G36*
X1128Y508D02*
X1128Y506D01*
X1130Y506D01*
X1130Y490D01*
X1128Y490D01*
X1128Y480D01*
X1126Y480D01*
X1126Y474D01*
X1124Y474D01*
X1124Y470D01*
X1122Y470D01*
X1122Y468D01*
X1120Y468D01*
X1120Y464D01*
X1118Y464D01*
X1118Y462D01*
X1116Y462D01*
X1116Y460D01*
X1114Y460D01*
X1114Y456D01*
X1110Y456D01*
X1110Y454D01*
X1108Y454D01*
X1108Y452D01*
X1106Y452D01*
X1106Y450D01*
X1104Y450D01*
X1104Y448D01*
X1100Y448D01*
X1100Y446D01*
X1096Y446D01*
X1096Y444D01*
X1092Y444D01*
X1092Y442D01*
X1084Y442D01*
X1084Y440D01*
X1312Y440D01*
X1312Y508D01*
X1128Y508D01*
G37*
D02*
G36*
X40Y486D02*
X40Y210D01*
X236Y210D01*
X236Y208D01*
X242Y208D01*
X242Y206D01*
X534Y206D01*
X534Y204D01*
X542Y204D01*
X542Y202D01*
X546Y202D01*
X546Y200D01*
X550Y200D01*
X550Y198D01*
X554Y198D01*
X554Y196D01*
X556Y196D01*
X556Y194D01*
X558Y194D01*
X558Y192D01*
X562Y192D01*
X562Y190D01*
X584Y190D01*
X584Y192D01*
X586Y192D01*
X586Y194D01*
X588Y194D01*
X588Y196D01*
X590Y196D01*
X590Y198D01*
X594Y198D01*
X594Y220D01*
X592Y220D01*
X592Y224D01*
X590Y224D01*
X590Y226D01*
X588Y226D01*
X588Y230D01*
X586Y230D01*
X586Y234D01*
X584Y234D01*
X584Y244D01*
X582Y244D01*
X582Y252D01*
X584Y252D01*
X584Y260D01*
X586Y260D01*
X586Y266D01*
X588Y266D01*
X588Y268D01*
X590Y268D01*
X590Y272D01*
X592Y272D01*
X592Y274D01*
X594Y274D01*
X594Y276D01*
X596Y276D01*
X596Y278D01*
X598Y278D01*
X598Y280D01*
X602Y280D01*
X602Y282D01*
X606Y282D01*
X606Y284D01*
X610Y284D01*
X610Y286D01*
X616Y286D01*
X616Y288D01*
X618Y288D01*
X618Y290D01*
X620Y290D01*
X620Y292D01*
X622Y292D01*
X622Y294D01*
X624Y294D01*
X624Y296D01*
X626Y296D01*
X626Y298D01*
X628Y298D01*
X628Y300D01*
X630Y300D01*
X630Y302D01*
X632Y302D01*
X632Y304D01*
X634Y304D01*
X634Y306D01*
X636Y306D01*
X636Y308D01*
X638Y308D01*
X638Y310D01*
X640Y310D01*
X640Y312D01*
X642Y312D01*
X642Y314D01*
X644Y314D01*
X644Y316D01*
X646Y316D01*
X646Y318D01*
X648Y318D01*
X648Y320D01*
X650Y320D01*
X650Y322D01*
X652Y322D01*
X652Y324D01*
X654Y324D01*
X654Y326D01*
X656Y326D01*
X656Y328D01*
X658Y328D01*
X658Y330D01*
X660Y330D01*
X660Y332D01*
X662Y332D01*
X662Y334D01*
X664Y334D01*
X664Y336D01*
X666Y336D01*
X666Y338D01*
X668Y338D01*
X668Y340D01*
X670Y340D01*
X670Y342D01*
X672Y342D01*
X672Y344D01*
X674Y344D01*
X674Y346D01*
X676Y346D01*
X676Y348D01*
X678Y348D01*
X678Y350D01*
X680Y350D01*
X680Y352D01*
X682Y352D01*
X682Y354D01*
X684Y354D01*
X684Y356D01*
X686Y356D01*
X686Y358D01*
X688Y358D01*
X688Y360D01*
X690Y360D01*
X690Y362D01*
X692Y362D01*
X692Y364D01*
X694Y364D01*
X694Y366D01*
X696Y366D01*
X696Y368D01*
X698Y368D01*
X698Y370D01*
X700Y370D01*
X700Y372D01*
X702Y372D01*
X702Y374D01*
X704Y374D01*
X704Y376D01*
X706Y376D01*
X706Y378D01*
X708Y378D01*
X708Y380D01*
X710Y380D01*
X710Y382D01*
X712Y382D01*
X712Y384D01*
X714Y384D01*
X714Y386D01*
X716Y386D01*
X716Y388D01*
X718Y388D01*
X718Y390D01*
X720Y390D01*
X720Y392D01*
X722Y392D01*
X722Y394D01*
X724Y394D01*
X724Y396D01*
X726Y396D01*
X726Y398D01*
X728Y398D01*
X728Y400D01*
X730Y400D01*
X730Y402D01*
X732Y402D01*
X732Y404D01*
X734Y404D01*
X734Y406D01*
X736Y406D01*
X736Y408D01*
X738Y408D01*
X738Y410D01*
X740Y410D01*
X740Y412D01*
X742Y412D01*
X742Y414D01*
X744Y414D01*
X744Y416D01*
X746Y416D01*
X746Y418D01*
X748Y418D01*
X748Y420D01*
X750Y420D01*
X750Y422D01*
X752Y422D01*
X752Y424D01*
X754Y424D01*
X754Y426D01*
X756Y426D01*
X756Y428D01*
X758Y428D01*
X758Y430D01*
X760Y430D01*
X760Y432D01*
X762Y432D01*
X762Y434D01*
X764Y434D01*
X764Y436D01*
X766Y436D01*
X766Y438D01*
X768Y438D01*
X768Y440D01*
X770Y440D01*
X770Y442D01*
X772Y442D01*
X772Y444D01*
X774Y444D01*
X774Y446D01*
X776Y446D01*
X776Y448D01*
X778Y448D01*
X778Y450D01*
X780Y450D01*
X780Y452D01*
X782Y452D01*
X782Y454D01*
X784Y454D01*
X784Y460D01*
X786Y460D01*
X786Y466D01*
X788Y466D01*
X788Y468D01*
X790Y468D01*
X790Y472D01*
X792Y472D01*
X792Y474D01*
X794Y474D01*
X794Y476D01*
X796Y476D01*
X796Y478D01*
X798Y478D01*
X798Y480D01*
X802Y480D01*
X802Y482D01*
X806Y482D01*
X806Y484D01*
X810Y484D01*
X810Y486D01*
X40Y486D01*
G37*
D02*
G36*
X834Y486D02*
X834Y484D01*
X840Y484D01*
X840Y482D01*
X842Y482D01*
X842Y480D01*
X846Y480D01*
X846Y478D01*
X848Y478D01*
X848Y476D01*
X850Y476D01*
X850Y474D01*
X852Y474D01*
X852Y472D01*
X854Y472D01*
X854Y470D01*
X856Y470D01*
X856Y466D01*
X858Y466D01*
X858Y462D01*
X860Y462D01*
X860Y454D01*
X862Y454D01*
X862Y452D01*
X882Y452D01*
X882Y454D01*
X884Y454D01*
X884Y460D01*
X886Y460D01*
X886Y466D01*
X888Y466D01*
X888Y468D01*
X890Y468D01*
X890Y472D01*
X892Y472D01*
X892Y474D01*
X894Y474D01*
X894Y476D01*
X896Y476D01*
X896Y478D01*
X898Y478D01*
X898Y480D01*
X902Y480D01*
X902Y482D01*
X906Y482D01*
X906Y484D01*
X910Y484D01*
X910Y486D01*
X834Y486D01*
G37*
D02*
G36*
X1434Y446D02*
X1434Y442D01*
X1642Y442D01*
X1642Y440D01*
X1646Y440D01*
X1646Y438D01*
X1648Y438D01*
X1648Y436D01*
X1650Y436D01*
X1650Y434D01*
X1652Y434D01*
X1652Y432D01*
X1654Y432D01*
X1654Y428D01*
X1656Y428D01*
X1656Y424D01*
X1766Y424D01*
X1766Y422D01*
X1786Y422D01*
X1786Y432D01*
X1788Y432D01*
X1788Y436D01*
X1790Y436D01*
X1790Y438D01*
X1792Y438D01*
X1792Y440D01*
X1794Y440D01*
X1794Y442D01*
X1796Y442D01*
X1796Y444D01*
X1802Y444D01*
X1802Y446D01*
X1434Y446D01*
G37*
D02*
G36*
X1434Y442D02*
X1434Y386D01*
X1430Y386D01*
X1430Y362D01*
X1432Y362D01*
X1432Y350D01*
X1434Y350D01*
X1434Y344D01*
X1432Y344D01*
X1432Y332D01*
X1430Y332D01*
X1430Y326D01*
X1428Y326D01*
X1428Y320D01*
X1426Y320D01*
X1426Y316D01*
X1424Y316D01*
X1424Y314D01*
X1422Y314D01*
X1422Y310D01*
X1420Y310D01*
X1420Y308D01*
X1418Y308D01*
X1418Y286D01*
X1420Y286D01*
X1420Y284D01*
X1422Y284D01*
X1422Y280D01*
X1424Y280D01*
X1424Y278D01*
X1426Y278D01*
X1426Y274D01*
X1428Y274D01*
X1428Y270D01*
X1430Y270D01*
X1430Y262D01*
X1432Y262D01*
X1432Y250D01*
X1434Y250D01*
X1434Y244D01*
X1432Y244D01*
X1432Y232D01*
X1430Y232D01*
X1430Y228D01*
X1590Y228D01*
X1590Y230D01*
X1584Y230D01*
X1584Y232D01*
X1580Y232D01*
X1580Y234D01*
X1578Y234D01*
X1578Y236D01*
X1576Y236D01*
X1576Y240D01*
X1574Y240D01*
X1574Y244D01*
X1572Y244D01*
X1572Y336D01*
X1576Y336D01*
X1576Y442D01*
X1434Y442D01*
G37*
D02*
G36*
X960Y440D02*
X960Y438D01*
X1312Y438D01*
X1312Y440D01*
X960Y440D01*
G37*
D02*
G36*
X960Y440D02*
X960Y438D01*
X1312Y438D01*
X1312Y440D01*
X960Y440D01*
G37*
D02*
G36*
X960Y438D02*
X960Y432D01*
X958Y432D01*
X958Y428D01*
X956Y428D01*
X956Y426D01*
X954Y426D01*
X954Y422D01*
X952Y422D01*
X952Y420D01*
X950Y420D01*
X950Y418D01*
X948Y418D01*
X948Y416D01*
X946Y416D01*
X946Y414D01*
X942Y414D01*
X942Y412D01*
X938Y412D01*
X938Y410D01*
X932Y410D01*
X932Y408D01*
X928Y408D01*
X928Y406D01*
X926Y406D01*
X926Y404D01*
X924Y404D01*
X924Y402D01*
X922Y402D01*
X922Y400D01*
X920Y400D01*
X920Y398D01*
X918Y398D01*
X918Y396D01*
X916Y396D01*
X916Y394D01*
X914Y394D01*
X914Y392D01*
X912Y392D01*
X912Y390D01*
X910Y390D01*
X910Y388D01*
X908Y388D01*
X908Y386D01*
X906Y386D01*
X906Y384D01*
X904Y384D01*
X904Y382D01*
X902Y382D01*
X902Y380D01*
X900Y380D01*
X900Y378D01*
X898Y378D01*
X898Y376D01*
X896Y376D01*
X896Y374D01*
X894Y374D01*
X894Y372D01*
X892Y372D01*
X892Y370D01*
X890Y370D01*
X890Y368D01*
X888Y368D01*
X888Y366D01*
X886Y366D01*
X886Y364D01*
X884Y364D01*
X884Y362D01*
X882Y362D01*
X882Y360D01*
X880Y360D01*
X880Y358D01*
X878Y358D01*
X878Y356D01*
X876Y356D01*
X876Y354D01*
X874Y354D01*
X874Y352D01*
X872Y352D01*
X872Y350D01*
X870Y350D01*
X870Y348D01*
X868Y348D01*
X868Y346D01*
X866Y346D01*
X866Y344D01*
X864Y344D01*
X864Y342D01*
X862Y342D01*
X862Y340D01*
X860Y340D01*
X860Y338D01*
X858Y338D01*
X858Y336D01*
X856Y336D01*
X856Y334D01*
X854Y334D01*
X854Y332D01*
X852Y332D01*
X852Y330D01*
X850Y330D01*
X850Y328D01*
X848Y328D01*
X848Y326D01*
X846Y326D01*
X846Y324D01*
X844Y324D01*
X844Y322D01*
X842Y322D01*
X842Y320D01*
X840Y320D01*
X840Y318D01*
X838Y318D01*
X838Y316D01*
X836Y316D01*
X836Y314D01*
X834Y314D01*
X834Y312D01*
X832Y312D01*
X832Y310D01*
X830Y310D01*
X830Y308D01*
X828Y308D01*
X828Y306D01*
X826Y306D01*
X826Y304D01*
X824Y304D01*
X824Y302D01*
X822Y302D01*
X822Y300D01*
X820Y300D01*
X820Y298D01*
X818Y298D01*
X818Y296D01*
X816Y296D01*
X816Y294D01*
X814Y294D01*
X814Y292D01*
X812Y292D01*
X812Y290D01*
X810Y290D01*
X810Y288D01*
X808Y288D01*
X808Y286D01*
X806Y286D01*
X806Y284D01*
X804Y284D01*
X804Y282D01*
X802Y282D01*
X802Y280D01*
X800Y280D01*
X800Y278D01*
X798Y278D01*
X798Y276D01*
X796Y276D01*
X796Y274D01*
X794Y274D01*
X794Y272D01*
X792Y272D01*
X792Y270D01*
X790Y270D01*
X790Y268D01*
X788Y268D01*
X788Y266D01*
X786Y266D01*
X786Y264D01*
X784Y264D01*
X784Y262D01*
X782Y262D01*
X782Y260D01*
X780Y260D01*
X780Y258D01*
X778Y258D01*
X778Y256D01*
X776Y256D01*
X776Y254D01*
X774Y254D01*
X774Y252D01*
X772Y252D01*
X772Y250D01*
X770Y250D01*
X770Y248D01*
X768Y248D01*
X768Y246D01*
X766Y246D01*
X766Y244D01*
X764Y244D01*
X764Y242D01*
X762Y242D01*
X762Y240D01*
X760Y240D01*
X760Y232D01*
X758Y232D01*
X758Y228D01*
X756Y228D01*
X756Y226D01*
X754Y226D01*
X754Y222D01*
X752Y222D01*
X752Y220D01*
X750Y220D01*
X750Y198D01*
X754Y198D01*
X754Y196D01*
X756Y196D01*
X756Y194D01*
X758Y194D01*
X758Y192D01*
X762Y192D01*
X762Y190D01*
X764Y190D01*
X764Y188D01*
X766Y188D01*
X766Y186D01*
X1364Y186D01*
X1364Y188D01*
X1354Y188D01*
X1354Y190D01*
X1348Y190D01*
X1348Y192D01*
X1344Y192D01*
X1344Y194D01*
X1340Y194D01*
X1340Y196D01*
X1338Y196D01*
X1338Y198D01*
X1336Y198D01*
X1336Y200D01*
X1332Y200D01*
X1332Y202D01*
X1330Y202D01*
X1330Y204D01*
X1328Y204D01*
X1328Y206D01*
X1326Y206D01*
X1326Y208D01*
X1324Y208D01*
X1324Y212D01*
X1322Y212D01*
X1322Y214D01*
X1320Y214D01*
X1320Y218D01*
X1318Y218D01*
X1318Y222D01*
X1316Y222D01*
X1316Y226D01*
X1314Y226D01*
X1314Y234D01*
X1312Y234D01*
X1312Y260D01*
X1314Y260D01*
X1314Y268D01*
X1316Y268D01*
X1316Y272D01*
X1318Y272D01*
X1318Y276D01*
X1320Y276D01*
X1320Y280D01*
X1322Y280D01*
X1322Y282D01*
X1324Y282D01*
X1324Y286D01*
X1326Y286D01*
X1326Y308D01*
X1324Y308D01*
X1324Y312D01*
X1322Y312D01*
X1322Y314D01*
X1320Y314D01*
X1320Y318D01*
X1318Y318D01*
X1318Y322D01*
X1316Y322D01*
X1316Y326D01*
X1314Y326D01*
X1314Y334D01*
X1312Y334D01*
X1312Y360D01*
X1314Y360D01*
X1314Y386D01*
X1312Y386D01*
X1312Y438D01*
X960Y438D01*
G37*
D02*
G36*
X1690Y424D02*
X1690Y422D01*
X1700Y422D01*
X1700Y420D01*
X1720Y420D01*
X1720Y422D01*
X1728Y422D01*
X1728Y424D01*
X1690Y424D01*
G37*
D02*
G36*
X1730Y424D02*
X1730Y422D01*
X1764Y422D01*
X1764Y424D01*
X1730Y424D01*
G37*
D02*
G36*
X1836Y424D02*
X1836Y422D01*
X1860Y422D01*
X1860Y424D01*
X1836Y424D01*
G37*
D02*
G36*
X1890Y424D02*
X1890Y422D01*
X1898Y422D01*
X1898Y420D01*
X1902Y420D01*
X1902Y418D01*
X1924Y418D01*
X1924Y420D01*
X1928Y420D01*
X1928Y422D01*
X1936Y422D01*
X1936Y424D01*
X1890Y424D01*
G37*
D02*
G36*
X1884Y366D02*
X1884Y356D01*
X1882Y356D01*
X1882Y348D01*
X1880Y348D01*
X1880Y336D01*
X1928Y336D01*
X1928Y338D01*
X1924Y338D01*
X1924Y340D01*
X1920Y340D01*
X1920Y342D01*
X1918Y342D01*
X1918Y344D01*
X1916Y344D01*
X1916Y346D01*
X1914Y346D01*
X1914Y348D01*
X1912Y348D01*
X1912Y350D01*
X1910Y350D01*
X1910Y352D01*
X1908Y352D01*
X1908Y356D01*
X1906Y356D01*
X1906Y360D01*
X1904Y360D01*
X1904Y366D01*
X1884Y366D01*
G37*
D02*
G36*
X1880Y336D02*
X1880Y334D01*
X2322Y334D01*
X2322Y336D01*
X1880Y336D01*
G37*
D02*
G36*
X1880Y336D02*
X1880Y334D01*
X2322Y334D01*
X2322Y336D01*
X1880Y336D01*
G37*
D02*
G36*
X1880Y334D02*
X1880Y326D01*
X1882Y326D01*
X1882Y324D01*
X1884Y324D01*
X1884Y322D01*
X1886Y322D01*
X1886Y318D01*
X1888Y318D01*
X1888Y316D01*
X2024Y316D01*
X2024Y314D01*
X2030Y314D01*
X2030Y312D01*
X2032Y312D01*
X2032Y310D01*
X2036Y310D01*
X2036Y308D01*
X2038Y308D01*
X2038Y306D01*
X2040Y306D01*
X2040Y304D01*
X2042Y304D01*
X2042Y300D01*
X2044Y300D01*
X2044Y296D01*
X2046Y296D01*
X2046Y286D01*
X2048Y286D01*
X2048Y280D01*
X2046Y280D01*
X2046Y272D01*
X2044Y272D01*
X2044Y270D01*
X2042Y270D01*
X2042Y266D01*
X2040Y266D01*
X2040Y264D01*
X2036Y264D01*
X2036Y262D01*
X2032Y262D01*
X2032Y260D01*
X2012Y260D01*
X2012Y250D01*
X2010Y250D01*
X2010Y242D01*
X2008Y242D01*
X2008Y238D01*
X2006Y238D01*
X2006Y236D01*
X2004Y236D01*
X2004Y234D01*
X2002Y234D01*
X2002Y232D01*
X1998Y232D01*
X1998Y230D01*
X1992Y230D01*
X1992Y228D01*
X2322Y228D01*
X2322Y334D01*
X1880Y334D01*
G37*
D02*
G36*
X1896Y316D02*
X1896Y314D01*
X1900Y314D01*
X1900Y312D01*
X1920Y312D01*
X1920Y314D01*
X1926Y314D01*
X1926Y316D01*
X1896Y316D01*
G37*
D02*
G36*
X1956Y316D02*
X1956Y314D01*
X1980Y314D01*
X1980Y316D01*
X1956Y316D01*
G37*
D02*
G36*
X1900Y234D02*
X1900Y228D01*
X1930Y228D01*
X1930Y230D01*
X1924Y230D01*
X1924Y232D01*
X1920Y232D01*
X1920Y234D01*
X1900Y234D01*
G37*
D02*
G36*
X1640Y232D02*
X1640Y230D01*
X1634Y230D01*
X1634Y228D01*
X1668Y228D01*
X1668Y230D01*
X1660Y230D01*
X1660Y232D01*
X1640Y232D01*
G37*
D02*
G36*
X1958Y232D02*
X1958Y230D01*
X1952Y230D01*
X1952Y228D01*
X1984Y228D01*
X1984Y230D01*
X1978Y230D01*
X1978Y232D01*
X1958Y232D01*
G37*
D02*
G36*
X1598Y230D02*
X1598Y228D01*
X1626Y228D01*
X1626Y230D01*
X1598Y230D01*
G37*
D02*
G36*
X1430Y228D02*
X1430Y226D01*
X1690Y226D01*
X1690Y228D01*
X1430Y228D01*
G37*
D02*
G36*
X1430Y228D02*
X1430Y226D01*
X1690Y226D01*
X1690Y228D01*
X1430Y228D01*
G37*
D02*
G36*
X1430Y228D02*
X1430Y226D01*
X1690Y226D01*
X1690Y228D01*
X1430Y228D01*
G37*
D02*
G36*
X1900Y228D02*
X1900Y226D01*
X2322Y226D01*
X2322Y228D01*
X1900Y228D01*
G37*
D02*
G36*
X1900Y228D02*
X1900Y226D01*
X2322Y226D01*
X2322Y228D01*
X1900Y228D01*
G37*
D02*
G36*
X1900Y228D02*
X1900Y226D01*
X2322Y226D01*
X2322Y228D01*
X1900Y228D01*
G37*
D02*
G36*
X1428Y226D02*
X1428Y220D01*
X1426Y220D01*
X1426Y216D01*
X1424Y216D01*
X1424Y214D01*
X1422Y214D01*
X1422Y210D01*
X1420Y210D01*
X1420Y208D01*
X1418Y208D01*
X1418Y206D01*
X1416Y206D01*
X1416Y204D01*
X1414Y204D01*
X1414Y202D01*
X1412Y202D01*
X1412Y200D01*
X1410Y200D01*
X1410Y198D01*
X1636Y198D01*
X1636Y196D01*
X1646Y196D01*
X1646Y194D01*
X1666Y194D01*
X1666Y196D01*
X1674Y196D01*
X1674Y198D01*
X1684Y198D01*
X1684Y204D01*
X1686Y204D01*
X1686Y206D01*
X1688Y206D01*
X1688Y210D01*
X1690Y210D01*
X1690Y226D01*
X1428Y226D01*
G37*
D02*
G36*
X1900Y226D02*
X1900Y214D01*
X1904Y214D01*
X1904Y212D01*
X1906Y212D01*
X1906Y210D01*
X2236Y210D01*
X2236Y208D01*
X2242Y208D01*
X2242Y206D01*
X2248Y206D01*
X2248Y204D01*
X2252Y204D01*
X2252Y202D01*
X2256Y202D01*
X2256Y200D01*
X2258Y200D01*
X2258Y198D01*
X2262Y198D01*
X2262Y196D01*
X2264Y196D01*
X2264Y194D01*
X2266Y194D01*
X2266Y192D01*
X2268Y192D01*
X2268Y190D01*
X2270Y190D01*
X2270Y188D01*
X2272Y188D01*
X2272Y184D01*
X2274Y184D01*
X2274Y182D01*
X2276Y182D01*
X2276Y178D01*
X2278Y178D01*
X2278Y174D01*
X2280Y174D01*
X2280Y170D01*
X2282Y170D01*
X2282Y164D01*
X2284Y164D01*
X2284Y154D01*
X2286Y154D01*
X2286Y140D01*
X2284Y140D01*
X2284Y130D01*
X2282Y130D01*
X2282Y124D01*
X2280Y124D01*
X2280Y120D01*
X2278Y120D01*
X2278Y116D01*
X2276Y116D01*
X2276Y112D01*
X2274Y112D01*
X2274Y110D01*
X2272Y110D01*
X2272Y106D01*
X2270Y106D01*
X2270Y104D01*
X2268Y104D01*
X2268Y102D01*
X2266Y102D01*
X2266Y100D01*
X2264Y100D01*
X2264Y98D01*
X2260Y98D01*
X2260Y96D01*
X2258Y96D01*
X2258Y94D01*
X2254Y94D01*
X2254Y92D01*
X2252Y92D01*
X2252Y90D01*
X2248Y90D01*
X2248Y88D01*
X2242Y88D01*
X2242Y86D01*
X2234Y86D01*
X2234Y84D01*
X2322Y84D01*
X2322Y226D01*
X1900Y226D01*
G37*
D02*
G36*
X40Y210D02*
X40Y84D01*
X212Y84D01*
X212Y86D01*
X202Y86D01*
X202Y88D01*
X198Y88D01*
X198Y90D01*
X194Y90D01*
X194Y92D01*
X190Y92D01*
X190Y94D01*
X186Y94D01*
X186Y96D01*
X184Y96D01*
X184Y98D01*
X182Y98D01*
X182Y100D01*
X180Y100D01*
X180Y102D01*
X176Y102D01*
X176Y106D01*
X174Y106D01*
X174Y108D01*
X172Y108D01*
X172Y110D01*
X170Y110D01*
X170Y114D01*
X168Y114D01*
X168Y116D01*
X166Y116D01*
X166Y120D01*
X164Y120D01*
X164Y126D01*
X162Y126D01*
X162Y132D01*
X160Y132D01*
X160Y146D01*
X158Y146D01*
X158Y148D01*
X160Y148D01*
X160Y162D01*
X162Y162D01*
X162Y170D01*
X164Y170D01*
X164Y174D01*
X166Y174D01*
X166Y178D01*
X168Y178D01*
X168Y182D01*
X170Y182D01*
X170Y184D01*
X172Y184D01*
X172Y186D01*
X174Y186D01*
X174Y190D01*
X176Y190D01*
X176Y192D01*
X178Y192D01*
X178Y194D01*
X180Y194D01*
X180Y196D01*
X184Y196D01*
X184Y198D01*
X186Y198D01*
X186Y200D01*
X190Y200D01*
X190Y202D01*
X192Y202D01*
X192Y204D01*
X196Y204D01*
X196Y206D01*
X202Y206D01*
X202Y208D01*
X210Y208D01*
X210Y210D01*
X40Y210D01*
G37*
D02*
G36*
X1908Y210D02*
X1908Y208D01*
X1910Y208D01*
X1910Y206D01*
X1912Y206D01*
X1912Y204D01*
X1914Y204D01*
X1914Y200D01*
X1916Y200D01*
X1916Y190D01*
X1918Y190D01*
X1918Y128D01*
X1916Y128D01*
X1916Y120D01*
X1914Y120D01*
X1914Y116D01*
X1912Y116D01*
X1912Y112D01*
X1910Y112D01*
X1910Y110D01*
X1908Y110D01*
X1908Y108D01*
X1906Y108D01*
X1906Y106D01*
X1902Y106D01*
X1902Y104D01*
X1900Y104D01*
X1900Y102D01*
X1892Y102D01*
X1892Y100D01*
X2180Y100D01*
X2180Y102D01*
X2176Y102D01*
X2176Y106D01*
X2174Y106D01*
X2174Y108D01*
X2172Y108D01*
X2172Y110D01*
X2170Y110D01*
X2170Y114D01*
X2168Y114D01*
X2168Y116D01*
X2166Y116D01*
X2166Y120D01*
X2164Y120D01*
X2164Y126D01*
X2162Y126D01*
X2162Y132D01*
X2160Y132D01*
X2160Y146D01*
X2158Y146D01*
X2158Y148D01*
X2160Y148D01*
X2160Y162D01*
X2162Y162D01*
X2162Y170D01*
X2164Y170D01*
X2164Y174D01*
X2166Y174D01*
X2166Y178D01*
X2168Y178D01*
X2168Y182D01*
X2170Y182D01*
X2170Y184D01*
X2172Y184D01*
X2172Y186D01*
X2174Y186D01*
X2174Y190D01*
X2176Y190D01*
X2176Y192D01*
X2178Y192D01*
X2178Y194D01*
X2180Y194D01*
X2180Y196D01*
X2184Y196D01*
X2184Y198D01*
X2186Y198D01*
X2186Y200D01*
X2190Y200D01*
X2190Y202D01*
X2192Y202D01*
X2192Y204D01*
X2196Y204D01*
X2196Y206D01*
X2202Y206D01*
X2202Y208D01*
X2210Y208D01*
X2210Y210D01*
X1908Y210D01*
G37*
D02*
G36*
X248Y206D02*
X248Y204D01*
X252Y204D01*
X252Y202D01*
X256Y202D01*
X256Y200D01*
X258Y200D01*
X258Y198D01*
X262Y198D01*
X262Y196D01*
X264Y196D01*
X264Y194D01*
X266Y194D01*
X266Y192D01*
X268Y192D01*
X268Y190D01*
X270Y190D01*
X270Y188D01*
X272Y188D01*
X272Y184D01*
X274Y184D01*
X274Y182D01*
X276Y182D01*
X276Y178D01*
X278Y178D01*
X278Y174D01*
X280Y174D01*
X280Y170D01*
X282Y170D01*
X282Y164D01*
X284Y164D01*
X284Y154D01*
X286Y154D01*
X286Y140D01*
X284Y140D01*
X284Y130D01*
X282Y130D01*
X282Y124D01*
X280Y124D01*
X280Y120D01*
X278Y120D01*
X278Y116D01*
X276Y116D01*
X276Y112D01*
X274Y112D01*
X274Y110D01*
X272Y110D01*
X272Y106D01*
X270Y106D01*
X270Y104D01*
X268Y104D01*
X268Y102D01*
X266Y102D01*
X266Y100D01*
X264Y100D01*
X264Y98D01*
X260Y98D01*
X260Y96D01*
X258Y96D01*
X258Y94D01*
X254Y94D01*
X254Y92D01*
X252Y92D01*
X252Y90D01*
X248Y90D01*
X248Y88D01*
X414Y88D01*
X414Y90D01*
X404Y90D01*
X404Y92D01*
X398Y92D01*
X398Y94D01*
X394Y94D01*
X394Y96D01*
X392Y96D01*
X392Y98D01*
X388Y98D01*
X388Y100D01*
X386Y100D01*
X386Y102D01*
X384Y102D01*
X384Y104D01*
X382Y104D01*
X382Y106D01*
X380Y106D01*
X380Y108D01*
X378Y108D01*
X378Y110D01*
X376Y110D01*
X376Y112D01*
X374Y112D01*
X374Y114D01*
X372Y114D01*
X372Y118D01*
X370Y118D01*
X370Y122D01*
X368Y122D01*
X368Y126D01*
X366Y126D01*
X366Y134D01*
X364Y134D01*
X364Y160D01*
X366Y160D01*
X366Y168D01*
X368Y168D01*
X368Y172D01*
X370Y172D01*
X370Y176D01*
X372Y176D01*
X372Y180D01*
X374Y180D01*
X374Y182D01*
X376Y182D01*
X376Y184D01*
X378Y184D01*
X378Y188D01*
X380Y188D01*
X380Y190D01*
X384Y190D01*
X384Y192D01*
X386Y192D01*
X386Y194D01*
X388Y194D01*
X388Y196D01*
X390Y196D01*
X390Y198D01*
X394Y198D01*
X394Y200D01*
X398Y200D01*
X398Y202D01*
X404Y202D01*
X404Y204D01*
X412Y204D01*
X412Y206D01*
X248Y206D01*
G37*
D02*
G36*
X434Y206D02*
X434Y204D01*
X442Y204D01*
X442Y202D01*
X446Y202D01*
X446Y200D01*
X450Y200D01*
X450Y198D01*
X454Y198D01*
X454Y196D01*
X456Y196D01*
X456Y194D01*
X458Y194D01*
X458Y192D01*
X462Y192D01*
X462Y190D01*
X484Y190D01*
X484Y192D01*
X486Y192D01*
X486Y194D01*
X488Y194D01*
X488Y196D01*
X490Y196D01*
X490Y198D01*
X494Y198D01*
X494Y200D01*
X498Y200D01*
X498Y202D01*
X504Y202D01*
X504Y204D01*
X512Y204D01*
X512Y206D01*
X434Y206D01*
G37*
D02*
G36*
X1406Y198D02*
X1406Y196D01*
X1404Y196D01*
X1404Y194D01*
X1400Y194D01*
X1400Y192D01*
X1396Y192D01*
X1396Y190D01*
X1390Y190D01*
X1390Y188D01*
X1380Y188D01*
X1380Y186D01*
X1616Y186D01*
X1616Y188D01*
X1618Y188D01*
X1618Y190D01*
X1620Y190D01*
X1620Y192D01*
X1622Y192D01*
X1622Y194D01*
X1626Y194D01*
X1626Y196D01*
X1634Y196D01*
X1634Y198D01*
X1406Y198D01*
G37*
D02*
G36*
X768Y186D02*
X768Y184D01*
X1614Y184D01*
X1614Y186D01*
X768Y186D01*
G37*
D02*
G36*
X768Y186D02*
X768Y184D01*
X1614Y184D01*
X1614Y186D01*
X768Y186D01*
G37*
D02*
G36*
X768Y184D02*
X768Y182D01*
X770Y182D01*
X770Y180D01*
X772Y180D01*
X772Y176D01*
X774Y176D01*
X774Y174D01*
X776Y174D01*
X776Y168D01*
X778Y168D01*
X778Y162D01*
X780Y162D01*
X780Y154D01*
X1086Y154D01*
X1086Y152D01*
X1092Y152D01*
X1092Y150D01*
X1096Y150D01*
X1096Y148D01*
X1100Y148D01*
X1100Y146D01*
X1104Y146D01*
X1104Y144D01*
X1106Y144D01*
X1106Y142D01*
X1108Y142D01*
X1108Y140D01*
X1112Y140D01*
X1112Y138D01*
X1114Y138D01*
X1114Y136D01*
X1116Y136D01*
X1116Y132D01*
X1118Y132D01*
X1118Y130D01*
X1120Y130D01*
X1120Y128D01*
X1122Y128D01*
X1122Y124D01*
X1124Y124D01*
X1124Y120D01*
X1126Y120D01*
X1126Y114D01*
X1128Y114D01*
X1128Y106D01*
X1130Y106D01*
X1130Y90D01*
X1128Y90D01*
X1128Y82D01*
X1654Y82D01*
X1654Y86D01*
X1652Y86D01*
X1652Y90D01*
X1650Y90D01*
X1650Y96D01*
X1648Y96D01*
X1648Y100D01*
X1646Y100D01*
X1646Y102D01*
X1642Y102D01*
X1642Y104D01*
X1638Y104D01*
X1638Y106D01*
X1636Y106D01*
X1636Y108D01*
X1634Y108D01*
X1634Y110D01*
X1632Y110D01*
X1632Y112D01*
X1630Y112D01*
X1630Y116D01*
X1628Y116D01*
X1628Y120D01*
X1626Y120D01*
X1626Y126D01*
X1624Y126D01*
X1624Y130D01*
X1622Y130D01*
X1622Y134D01*
X1620Y134D01*
X1620Y140D01*
X1618Y140D01*
X1618Y144D01*
X1616Y144D01*
X1616Y148D01*
X1614Y148D01*
X1614Y152D01*
X1612Y152D01*
X1612Y160D01*
X1610Y160D01*
X1610Y176D01*
X1612Y176D01*
X1612Y182D01*
X1614Y182D01*
X1614Y184D01*
X768Y184D01*
G37*
D02*
G36*
X780Y154D02*
X780Y150D01*
X782Y150D01*
X782Y144D01*
X780Y144D01*
X780Y132D01*
X778Y132D01*
X778Y126D01*
X776Y126D01*
X776Y122D01*
X774Y122D01*
X774Y118D01*
X772Y118D01*
X772Y114D01*
X770Y114D01*
X770Y112D01*
X768Y112D01*
X768Y110D01*
X766Y110D01*
X766Y106D01*
X764Y106D01*
X764Y104D01*
X760Y104D01*
X760Y102D01*
X758Y102D01*
X758Y100D01*
X756Y100D01*
X756Y98D01*
X752Y98D01*
X752Y96D01*
X750Y96D01*
X750Y94D01*
X746Y94D01*
X746Y92D01*
X740Y92D01*
X740Y90D01*
X730Y90D01*
X730Y88D01*
X1016Y88D01*
X1016Y92D01*
X1014Y92D01*
X1014Y102D01*
X1016Y102D01*
X1016Y112D01*
X1018Y112D01*
X1018Y118D01*
X1020Y118D01*
X1020Y124D01*
X1022Y124D01*
X1022Y126D01*
X1024Y126D01*
X1024Y130D01*
X1026Y130D01*
X1026Y132D01*
X1028Y132D01*
X1028Y134D01*
X1030Y134D01*
X1030Y138D01*
X1032Y138D01*
X1032Y140D01*
X1036Y140D01*
X1036Y142D01*
X1038Y142D01*
X1038Y144D01*
X1040Y144D01*
X1040Y146D01*
X1044Y146D01*
X1044Y148D01*
X1048Y148D01*
X1048Y150D01*
X1052Y150D01*
X1052Y152D01*
X1060Y152D01*
X1060Y154D01*
X780Y154D01*
G37*
D02*
G36*
X1770Y114D02*
X1770Y112D01*
X1768Y112D01*
X1768Y110D01*
X1766Y110D01*
X1766Y108D01*
X1764Y108D01*
X1764Y106D01*
X1762Y106D01*
X1762Y104D01*
X1758Y104D01*
X1758Y102D01*
X1752Y102D01*
X1752Y100D01*
X1852Y100D01*
X1852Y102D01*
X1846Y102D01*
X1846Y104D01*
X1842Y104D01*
X1842Y106D01*
X1840Y106D01*
X1840Y108D01*
X1836Y108D01*
X1836Y110D01*
X1834Y110D01*
X1834Y114D01*
X1770Y114D01*
G37*
D02*
G36*
X1674Y106D02*
X1674Y104D01*
X1670Y104D01*
X1670Y102D01*
X1666Y102D01*
X1666Y100D01*
X1702Y100D01*
X1702Y102D01*
X1696Y102D01*
X1696Y104D01*
X1694Y104D01*
X1694Y106D01*
X1674Y106D01*
G37*
D02*
G36*
X460Y104D02*
X460Y102D01*
X458Y102D01*
X458Y100D01*
X456Y100D01*
X456Y98D01*
X452Y98D01*
X452Y96D01*
X450Y96D01*
X450Y94D01*
X446Y94D01*
X446Y92D01*
X440Y92D01*
X440Y90D01*
X430Y90D01*
X430Y88D01*
X514Y88D01*
X514Y90D01*
X504Y90D01*
X504Y92D01*
X498Y92D01*
X498Y94D01*
X494Y94D01*
X494Y96D01*
X492Y96D01*
X492Y98D01*
X488Y98D01*
X488Y100D01*
X486Y100D01*
X486Y102D01*
X484Y102D01*
X484Y104D01*
X460Y104D01*
G37*
D02*
G36*
X560Y104D02*
X560Y102D01*
X558Y102D01*
X558Y100D01*
X556Y100D01*
X556Y98D01*
X552Y98D01*
X552Y96D01*
X550Y96D01*
X550Y94D01*
X546Y94D01*
X546Y92D01*
X540Y92D01*
X540Y90D01*
X530Y90D01*
X530Y88D01*
X614Y88D01*
X614Y90D01*
X604Y90D01*
X604Y92D01*
X598Y92D01*
X598Y94D01*
X594Y94D01*
X594Y96D01*
X592Y96D01*
X592Y98D01*
X588Y98D01*
X588Y100D01*
X586Y100D01*
X586Y102D01*
X584Y102D01*
X584Y104D01*
X560Y104D01*
G37*
D02*
G36*
X660Y104D02*
X660Y102D01*
X658Y102D01*
X658Y100D01*
X656Y100D01*
X656Y98D01*
X652Y98D01*
X652Y96D01*
X650Y96D01*
X650Y94D01*
X646Y94D01*
X646Y92D01*
X640Y92D01*
X640Y90D01*
X630Y90D01*
X630Y88D01*
X714Y88D01*
X714Y90D01*
X704Y90D01*
X704Y92D01*
X698Y92D01*
X698Y94D01*
X694Y94D01*
X694Y96D01*
X692Y96D01*
X692Y98D01*
X688Y98D01*
X688Y100D01*
X686Y100D01*
X686Y102D01*
X684Y102D01*
X684Y104D01*
X660Y104D01*
G37*
D02*
G36*
X1664Y100D02*
X1664Y98D01*
X2182Y98D01*
X2182Y100D01*
X1664Y100D01*
G37*
D02*
G36*
X1664Y100D02*
X1664Y98D01*
X2182Y98D01*
X2182Y100D01*
X1664Y100D01*
G37*
D02*
G36*
X1664Y100D02*
X1664Y98D01*
X2182Y98D01*
X2182Y100D01*
X1664Y100D01*
G37*
D02*
G36*
X1662Y98D02*
X1662Y94D01*
X1660Y94D01*
X1660Y90D01*
X1658Y90D01*
X1658Y84D01*
X2212Y84D01*
X2212Y86D01*
X2202Y86D01*
X2202Y88D01*
X2198Y88D01*
X2198Y90D01*
X2194Y90D01*
X2194Y92D01*
X2190Y92D01*
X2190Y94D01*
X2186Y94D01*
X2186Y96D01*
X2184Y96D01*
X2184Y98D01*
X1662Y98D01*
G37*
D02*
G36*
X242Y88D02*
X242Y86D01*
X1016Y86D01*
X1016Y88D01*
X242Y88D01*
G37*
D02*
G36*
X242Y88D02*
X242Y86D01*
X1016Y86D01*
X1016Y88D01*
X242Y88D01*
G37*
D02*
G36*
X242Y88D02*
X242Y86D01*
X1016Y86D01*
X1016Y88D01*
X242Y88D01*
G37*
D02*
G36*
X242Y88D02*
X242Y86D01*
X1016Y86D01*
X1016Y88D01*
X242Y88D01*
G37*
D02*
G36*
X242Y88D02*
X242Y86D01*
X1016Y86D01*
X1016Y88D01*
X242Y88D01*
G37*
D02*
G36*
X234Y86D02*
X234Y84D01*
X1016Y84D01*
X1016Y86D01*
X234Y86D01*
G37*
D02*
G36*
X40Y84D02*
X40Y82D01*
X1016Y82D01*
X1016Y84D01*
X40Y84D01*
G37*
D02*
G36*
X40Y84D02*
X40Y82D01*
X1016Y82D01*
X1016Y84D01*
X40Y84D01*
G37*
D02*
G36*
X1656Y84D02*
X1656Y82D01*
X2322Y82D01*
X2322Y84D01*
X1656Y84D01*
G37*
D02*
G36*
X1656Y84D02*
X1656Y82D01*
X2322Y82D01*
X2322Y84D01*
X1656Y84D01*
G37*
D02*
G36*
X40Y82D02*
X40Y40D01*
X1030Y40D01*
X1030Y60D01*
X1028Y60D01*
X1028Y62D01*
X1026Y62D01*
X1026Y64D01*
X1024Y64D01*
X1024Y68D01*
X1022Y68D01*
X1022Y72D01*
X1020Y72D01*
X1020Y76D01*
X1018Y76D01*
X1018Y82D01*
X40Y82D01*
G37*
D02*
G36*
X1128Y82D02*
X1128Y80D01*
X2322Y80D01*
X2322Y82D01*
X1128Y82D01*
G37*
D02*
G36*
X1128Y82D02*
X1128Y80D01*
X2322Y80D01*
X2322Y82D01*
X1128Y82D01*
G37*
D02*
G36*
X1126Y80D02*
X1126Y74D01*
X1124Y74D01*
X1124Y70D01*
X1122Y70D01*
X1122Y68D01*
X1120Y68D01*
X1120Y64D01*
X1118Y64D01*
X1118Y62D01*
X1116Y62D01*
X1116Y60D01*
X1114Y60D01*
X1114Y40D01*
X2322Y40D01*
X2322Y80D01*
X1126Y80D01*
G37*
D02*
G36*
X1699Y712D02*
X1744Y712D01*
X1744Y668D01*
X1699Y668D01*
X1699Y712D01*
G37*
D02*
G36*
X1699Y630D02*
X1744Y630D01*
X1744Y588D01*
X1699Y588D01*
X1699Y630D01*
G37*
D02*
G36*
X1658Y671D02*
X1702Y671D01*
X1702Y626D01*
X1658Y626D01*
X1658Y671D01*
G37*
D02*
G36*
X1699Y1112D02*
X1744Y1112D01*
X1744Y1068D01*
X1699Y1068D01*
X1699Y1112D01*
G37*
D02*
G36*
X1699Y1030D02*
X1744Y1030D01*
X1744Y988D01*
X1699Y988D01*
X1699Y1030D01*
G37*
D02*
G36*
X1658Y1071D02*
X1702Y1071D01*
X1702Y1026D01*
X1658Y1026D01*
X1658Y1071D01*
G37*
D02*
G36*
X1809Y642D02*
X1834Y642D01*
X1834Y608D01*
X1809Y608D01*
X1809Y642D01*
G37*
D02*
G36*
X799Y2110D02*
X844Y2110D01*
X844Y2068D01*
X799Y2068D01*
X799Y2110D01*
G37*
D02*
G36*
X599Y2110D02*
X644Y2110D01*
X644Y2068D01*
X599Y2068D01*
X599Y2110D01*
G37*
D02*
G36*
X1809Y1090D02*
X1834Y1090D01*
X1834Y1056D01*
X1809Y1056D01*
X1809Y1090D01*
G37*
D02*
G36*
X1609Y1142D02*
X1634Y1142D01*
X1634Y1108D01*
X1609Y1108D01*
X1609Y1142D01*
G37*
D02*
G36*
X1578Y1161D02*
X1614Y1161D01*
X1614Y1136D01*
X1578Y1136D01*
X1578Y1161D01*
G37*
D02*
G36*
X1628Y1161D02*
X1662Y1161D01*
X1662Y1136D01*
X1628Y1136D01*
X1628Y1161D01*
G37*
D02*
G36*
X1348Y228D02*
X1395Y228D01*
X1395Y186D01*
X1348Y186D01*
X1348Y228D01*
G37*
D02*
G36*
X1308Y272D02*
X1350Y272D01*
X1350Y225D01*
X1308Y225D01*
X1308Y272D01*
G37*
D02*
G36*
X1392Y272D02*
X1434Y272D01*
X1434Y225D01*
X1392Y225D01*
X1392Y272D01*
G37*
D02*
G36*
X909Y2190D02*
X934Y2190D01*
X934Y2156D01*
X909Y2156D01*
X909Y2190D01*
G37*
D02*
G36*
X878Y2161D02*
X914Y2161D01*
X914Y2136D01*
X878Y2136D01*
X878Y2161D01*
G37*
D02*
G36*
X499Y210D02*
X544Y210D01*
X544Y168D01*
X499Y168D01*
X499Y210D01*
G37*
D02*
G36*
X499Y130D02*
X544Y130D01*
X544Y88D01*
X499Y88D01*
X499Y130D01*
G37*
D02*
G36*
X1050Y158D02*
X1093Y158D01*
X1093Y116D01*
X1050Y116D01*
X1050Y158D01*
G37*
D02*
G36*
X1050Y82D02*
X1093Y82D01*
X1093Y40D01*
X1050Y40D01*
X1050Y82D01*
G37*
D02*
G36*
X1010Y120D02*
X1054Y120D01*
X1054Y77D01*
X1010Y77D01*
X1010Y120D01*
G37*
D02*
G36*
X1088Y120D02*
X1130Y120D01*
X1130Y77D01*
X1088Y77D01*
X1088Y120D01*
G37*
D02*
G36*
X1399Y2110D02*
X1444Y2110D01*
X1444Y2068D01*
X1399Y2068D01*
X1399Y2110D01*
G37*
D02*
G36*
X499Y710D02*
X544Y710D01*
X544Y668D01*
X499Y668D01*
X499Y710D01*
G37*
D02*
G36*
X499Y630D02*
X544Y630D01*
X544Y588D01*
X499Y588D01*
X499Y630D01*
G37*
D02*
G36*
X1409Y1942D02*
X1434Y1942D01*
X1434Y1908D01*
X1409Y1908D01*
X1409Y1942D01*
G37*
D02*
G54D21*
X1806Y428D02*
X1814Y428D01*
X1805Y427D02*
X1815Y427D01*
X1804Y426D02*
X1816Y426D01*
X1804Y425D02*
X1816Y425D01*
X1593Y424D02*
X1635Y424D01*
X1804Y424D02*
X1816Y424D01*
X1593Y423D02*
X1636Y423D01*
X1804Y423D02*
X1816Y423D01*
X1593Y422D02*
X1637Y422D01*
X1804Y422D02*
X1816Y422D01*
X1593Y421D02*
X1637Y421D01*
X1804Y421D02*
X1816Y421D01*
X1593Y420D02*
X1637Y420D01*
X1804Y420D02*
X1816Y420D01*
X1593Y419D02*
X1637Y419D01*
X1804Y419D02*
X1816Y419D01*
X1593Y418D02*
X1637Y418D01*
X1804Y418D02*
X1816Y418D01*
X1593Y417D02*
X1636Y417D01*
X1805Y417D02*
X1815Y417D01*
X1593Y416D02*
X1634Y416D01*
X1807Y416D02*
X1813Y416D01*
X1593Y415D02*
X1601Y415D01*
X1593Y414D02*
X1601Y414D01*
X1593Y413D02*
X1601Y413D01*
X1593Y412D02*
X1601Y412D01*
X1593Y411D02*
X1601Y411D01*
X1593Y410D02*
X1601Y410D01*
X1593Y409D02*
X1601Y409D01*
X1593Y408D02*
X1601Y408D01*
X1593Y407D02*
X1601Y407D01*
X1593Y406D02*
X1601Y406D01*
X1593Y405D02*
X1601Y405D01*
X1661Y405D02*
X1665Y405D01*
X1680Y405D02*
X1692Y405D01*
X1727Y405D02*
X1730Y405D01*
X1763Y405D02*
X1766Y405D01*
X1797Y405D02*
X1814Y405D01*
X1858Y405D02*
X1862Y405D01*
X1876Y405D02*
X1890Y405D01*
X1934Y405D02*
X1953Y405D01*
X1593Y404D02*
X1601Y404D01*
X1660Y404D02*
X1666Y404D01*
X1678Y404D02*
X1695Y404D01*
X1726Y404D02*
X1731Y404D01*
X1762Y404D02*
X1767Y404D01*
X1796Y404D02*
X1815Y404D01*
X1857Y404D02*
X1863Y404D01*
X1875Y404D02*
X1893Y404D01*
X1932Y404D02*
X1955Y404D01*
X1593Y403D02*
X1601Y403D01*
X1659Y403D02*
X1666Y403D01*
X1676Y403D02*
X1696Y403D01*
X1725Y403D02*
X1732Y403D01*
X1761Y403D02*
X1768Y403D01*
X1795Y403D02*
X1816Y403D01*
X1856Y403D02*
X1863Y403D01*
X1873Y403D02*
X1894Y403D01*
X1930Y403D02*
X1957Y403D01*
X1593Y402D02*
X1601Y402D01*
X1659Y402D02*
X1667Y402D01*
X1674Y402D02*
X1697Y402D01*
X1725Y402D02*
X1732Y402D01*
X1761Y402D02*
X1768Y402D01*
X1795Y402D02*
X1816Y402D01*
X1856Y402D02*
X1864Y402D01*
X1872Y402D02*
X1896Y402D01*
X1929Y402D02*
X1958Y402D01*
X1593Y401D02*
X1601Y401D01*
X1659Y401D02*
X1667Y401D01*
X1673Y401D02*
X1698Y401D01*
X1724Y401D02*
X1733Y401D01*
X1760Y401D02*
X1769Y401D01*
X1795Y401D02*
X1816Y401D01*
X1856Y401D02*
X1864Y401D01*
X1871Y401D02*
X1896Y401D01*
X1928Y401D02*
X1959Y401D01*
X1593Y400D02*
X1601Y400D01*
X1659Y400D02*
X1667Y400D01*
X1671Y400D02*
X1699Y400D01*
X1724Y400D02*
X1733Y400D01*
X1760Y400D02*
X1769Y400D01*
X1795Y400D02*
X1816Y400D01*
X1856Y400D02*
X1864Y400D01*
X1870Y400D02*
X1897Y400D01*
X1927Y400D02*
X1960Y400D01*
X1593Y399D02*
X1601Y399D01*
X1659Y399D02*
X1667Y399D01*
X1670Y399D02*
X1700Y399D01*
X1724Y399D02*
X1733Y399D01*
X1760Y399D02*
X1769Y399D01*
X1795Y399D02*
X1816Y399D01*
X1856Y399D02*
X1864Y399D01*
X1869Y399D02*
X1898Y399D01*
X1926Y399D02*
X1961Y399D01*
X1593Y398D02*
X1601Y398D01*
X1659Y398D02*
X1700Y398D01*
X1724Y398D02*
X1733Y398D01*
X1760Y398D02*
X1769Y398D01*
X1796Y398D02*
X1816Y398D01*
X1856Y398D02*
X1864Y398D01*
X1868Y398D02*
X1899Y398D01*
X1925Y398D02*
X1962Y398D01*
X1593Y397D02*
X1601Y397D01*
X1659Y397D02*
X1701Y397D01*
X1724Y397D02*
X1733Y397D01*
X1760Y397D02*
X1769Y397D01*
X1797Y397D02*
X1816Y397D01*
X1856Y397D02*
X1864Y397D01*
X1866Y397D02*
X1899Y397D01*
X1924Y397D02*
X1963Y397D01*
X1593Y396D02*
X1601Y396D01*
X1659Y396D02*
X1681Y396D01*
X1691Y396D02*
X1701Y396D01*
X1724Y396D02*
X1733Y396D01*
X1760Y396D02*
X1769Y396D01*
X1808Y396D02*
X1816Y396D01*
X1856Y396D02*
X1878Y396D01*
X1889Y396D02*
X1899Y396D01*
X1923Y396D02*
X1935Y396D01*
X1952Y396D02*
X1964Y396D01*
X1593Y395D02*
X1601Y395D01*
X1659Y395D02*
X1679Y395D01*
X1692Y395D02*
X1701Y395D01*
X1724Y395D02*
X1733Y395D01*
X1760Y395D02*
X1769Y395D01*
X1808Y395D02*
X1816Y395D01*
X1856Y395D02*
X1877Y395D01*
X1891Y395D02*
X1900Y395D01*
X1923Y395D02*
X1934Y395D01*
X1953Y395D02*
X1964Y395D01*
X1593Y394D02*
X1615Y394D01*
X1659Y394D02*
X1678Y394D01*
X1693Y394D02*
X1702Y394D01*
X1724Y394D02*
X1733Y394D01*
X1760Y394D02*
X1769Y394D01*
X1808Y394D02*
X1816Y394D01*
X1856Y394D02*
X1876Y394D01*
X1891Y394D02*
X1900Y394D01*
X1922Y394D02*
X1933Y394D01*
X1955Y394D02*
X1965Y394D01*
X1593Y393D02*
X1617Y393D01*
X1659Y393D02*
X1676Y393D01*
X1693Y393D02*
X1702Y393D01*
X1724Y393D02*
X1733Y393D01*
X1760Y393D02*
X1769Y393D01*
X1808Y393D02*
X1816Y393D01*
X1856Y393D02*
X1875Y393D01*
X1892Y393D02*
X1900Y393D01*
X1922Y393D02*
X1932Y393D01*
X1956Y393D02*
X1965Y393D01*
X1593Y392D02*
X1618Y392D01*
X1659Y392D02*
X1675Y392D01*
X1694Y392D02*
X1702Y392D01*
X1725Y392D02*
X1734Y392D01*
X1759Y392D02*
X1768Y392D01*
X1808Y392D02*
X1816Y392D01*
X1856Y392D02*
X1874Y392D01*
X1892Y392D02*
X1900Y392D01*
X1922Y392D02*
X1931Y392D01*
X1956Y392D02*
X1965Y392D01*
X1593Y391D02*
X1619Y391D01*
X1659Y391D02*
X1673Y391D01*
X1694Y391D02*
X1702Y391D01*
X1725Y391D02*
X1734Y391D01*
X1759Y391D02*
X1768Y391D01*
X1808Y391D02*
X1816Y391D01*
X1856Y391D02*
X1873Y391D01*
X1892Y391D02*
X1900Y391D01*
X1922Y391D02*
X1930Y391D01*
X1957Y391D02*
X1966Y391D01*
X1593Y390D02*
X1619Y390D01*
X1659Y390D02*
X1672Y390D01*
X1694Y390D02*
X1702Y390D01*
X1725Y390D02*
X1734Y390D01*
X1759Y390D02*
X1768Y390D01*
X1808Y390D02*
X1816Y390D01*
X1856Y390D02*
X1871Y390D01*
X1892Y390D02*
X1900Y390D01*
X1922Y390D02*
X1930Y390D01*
X1957Y390D02*
X1966Y390D01*
X1593Y389D02*
X1619Y389D01*
X1659Y389D02*
X1670Y389D01*
X1694Y389D02*
X1702Y389D01*
X1726Y389D02*
X1735Y389D01*
X1758Y389D02*
X1767Y389D01*
X1808Y389D02*
X1816Y389D01*
X1856Y389D02*
X1870Y389D01*
X1892Y389D02*
X1900Y389D01*
X1921Y389D02*
X1930Y389D01*
X1958Y389D02*
X1966Y389D01*
X1593Y388D02*
X1619Y388D01*
X1659Y388D02*
X1669Y388D01*
X1694Y388D02*
X1702Y388D01*
X1726Y388D02*
X1735Y388D01*
X1758Y388D02*
X1767Y388D01*
X1808Y388D02*
X1816Y388D01*
X1856Y388D02*
X1869Y388D01*
X1892Y388D02*
X1900Y388D01*
X1921Y388D02*
X1930Y388D01*
X1958Y388D02*
X1966Y388D01*
X1593Y387D02*
X1618Y387D01*
X1659Y387D02*
X1667Y387D01*
X1694Y387D02*
X1702Y387D01*
X1727Y387D02*
X1736Y387D01*
X1757Y387D02*
X1766Y387D01*
X1808Y387D02*
X1816Y387D01*
X1856Y387D02*
X1868Y387D01*
X1893Y387D02*
X1899Y387D01*
X1921Y387D02*
X1930Y387D01*
X1958Y387D02*
X1966Y387D01*
X1593Y386D02*
X1617Y386D01*
X1659Y386D02*
X1667Y386D01*
X1694Y386D02*
X1702Y386D01*
X1727Y386D02*
X1736Y386D01*
X1757Y386D02*
X1766Y386D01*
X1808Y386D02*
X1816Y386D01*
X1856Y386D02*
X1867Y386D01*
X1894Y386D02*
X1898Y386D01*
X1921Y386D02*
X1930Y386D01*
X1958Y386D02*
X1966Y386D01*
X1593Y385D02*
X1615Y385D01*
X1659Y385D02*
X1667Y385D01*
X1694Y385D02*
X1702Y385D01*
X1728Y385D02*
X1737Y385D01*
X1756Y385D02*
X1765Y385D01*
X1808Y385D02*
X1816Y385D01*
X1856Y385D02*
X1866Y385D01*
X1896Y385D02*
X1896Y385D01*
X1921Y385D02*
X1930Y385D01*
X1958Y385D02*
X1966Y385D01*
X1593Y384D02*
X1601Y384D01*
X1659Y384D02*
X1667Y384D01*
X1694Y384D02*
X1702Y384D01*
X1728Y384D02*
X1737Y384D01*
X1756Y384D02*
X1765Y384D01*
X1808Y384D02*
X1816Y384D01*
X1856Y384D02*
X1865Y384D01*
X1921Y384D02*
X1930Y384D01*
X1958Y384D02*
X1966Y384D01*
X1593Y383D02*
X1601Y383D01*
X1659Y383D02*
X1667Y383D01*
X1694Y383D02*
X1702Y383D01*
X1728Y383D02*
X1737Y383D01*
X1756Y383D02*
X1764Y383D01*
X1808Y383D02*
X1816Y383D01*
X1856Y383D02*
X1864Y383D01*
X1921Y383D02*
X1930Y383D01*
X1958Y383D02*
X1966Y383D01*
X1593Y382D02*
X1601Y382D01*
X1659Y382D02*
X1667Y382D01*
X1694Y382D02*
X1702Y382D01*
X1729Y382D02*
X1738Y382D01*
X1755Y382D02*
X1764Y382D01*
X1808Y382D02*
X1816Y382D01*
X1856Y382D02*
X1864Y382D01*
X1921Y382D02*
X1930Y382D01*
X1958Y382D02*
X1966Y382D01*
X1593Y381D02*
X1601Y381D01*
X1659Y381D02*
X1667Y381D01*
X1694Y381D02*
X1702Y381D01*
X1729Y381D02*
X1738Y381D01*
X1755Y381D02*
X1764Y381D01*
X1808Y381D02*
X1816Y381D01*
X1856Y381D02*
X1864Y381D01*
X1921Y381D02*
X1930Y381D01*
X1958Y381D02*
X1966Y381D01*
X1593Y380D02*
X1601Y380D01*
X1659Y380D02*
X1667Y380D01*
X1694Y380D02*
X1702Y380D01*
X1730Y380D02*
X1739Y380D01*
X1754Y380D02*
X1763Y380D01*
X1808Y380D02*
X1816Y380D01*
X1856Y380D02*
X1864Y380D01*
X1921Y380D02*
X1930Y380D01*
X1958Y380D02*
X1966Y380D01*
X1593Y379D02*
X1601Y379D01*
X1659Y379D02*
X1667Y379D01*
X1694Y379D02*
X1702Y379D01*
X1730Y379D02*
X1739Y379D01*
X1754Y379D02*
X1763Y379D01*
X1808Y379D02*
X1816Y379D01*
X1856Y379D02*
X1864Y379D01*
X1921Y379D02*
X1930Y379D01*
X1958Y379D02*
X1966Y379D01*
X1593Y378D02*
X1601Y378D01*
X1659Y378D02*
X1667Y378D01*
X1694Y378D02*
X1702Y378D01*
X1731Y378D02*
X1740Y378D01*
X1753Y378D02*
X1762Y378D01*
X1808Y378D02*
X1816Y378D01*
X1856Y378D02*
X1864Y378D01*
X1921Y378D02*
X1930Y378D01*
X1958Y378D02*
X1966Y378D01*
X1593Y377D02*
X1601Y377D01*
X1659Y377D02*
X1667Y377D01*
X1694Y377D02*
X1702Y377D01*
X1731Y377D02*
X1740Y377D01*
X1753Y377D02*
X1762Y377D01*
X1808Y377D02*
X1816Y377D01*
X1856Y377D02*
X1864Y377D01*
X1921Y377D02*
X1930Y377D01*
X1958Y377D02*
X1966Y377D01*
X1593Y376D02*
X1601Y376D01*
X1659Y376D02*
X1667Y376D01*
X1694Y376D02*
X1702Y376D01*
X1732Y376D02*
X1741Y376D01*
X1752Y376D02*
X1761Y376D01*
X1808Y376D02*
X1816Y376D01*
X1856Y376D02*
X1864Y376D01*
X1921Y376D02*
X1930Y376D01*
X1958Y376D02*
X1966Y376D01*
X1593Y375D02*
X1601Y375D01*
X1659Y375D02*
X1667Y375D01*
X1694Y375D02*
X1702Y375D01*
X1732Y375D02*
X1741Y375D01*
X1752Y375D02*
X1761Y375D01*
X1808Y375D02*
X1816Y375D01*
X1856Y375D02*
X1864Y375D01*
X1921Y375D02*
X1930Y375D01*
X1958Y375D02*
X1966Y375D01*
X1593Y374D02*
X1601Y374D01*
X1659Y374D02*
X1667Y374D01*
X1694Y374D02*
X1702Y374D01*
X1732Y374D02*
X1741Y374D01*
X1752Y374D02*
X1761Y374D01*
X1808Y374D02*
X1816Y374D01*
X1856Y374D02*
X1864Y374D01*
X1921Y374D02*
X1930Y374D01*
X1958Y374D02*
X1966Y374D01*
X1593Y373D02*
X1601Y373D01*
X1659Y373D02*
X1667Y373D01*
X1694Y373D02*
X1702Y373D01*
X1733Y373D02*
X1742Y373D01*
X1751Y373D02*
X1760Y373D01*
X1808Y373D02*
X1816Y373D01*
X1856Y373D02*
X1864Y373D01*
X1921Y373D02*
X1930Y373D01*
X1958Y373D02*
X1966Y373D01*
X1593Y372D02*
X1601Y372D01*
X1659Y372D02*
X1667Y372D01*
X1694Y372D02*
X1702Y372D01*
X1733Y372D02*
X1742Y372D01*
X1751Y372D02*
X1760Y372D01*
X1808Y372D02*
X1816Y372D01*
X1856Y372D02*
X1864Y372D01*
X1921Y372D02*
X1930Y372D01*
X1958Y372D02*
X1966Y372D01*
X1593Y371D02*
X1601Y371D01*
X1659Y371D02*
X1667Y371D01*
X1694Y371D02*
X1702Y371D01*
X1734Y371D02*
X1743Y371D01*
X1750Y371D02*
X1759Y371D01*
X1808Y371D02*
X1816Y371D01*
X1856Y371D02*
X1864Y371D01*
X1921Y371D02*
X1930Y371D01*
X1958Y371D02*
X1966Y371D01*
X1593Y370D02*
X1601Y370D01*
X1659Y370D02*
X1667Y370D01*
X1694Y370D02*
X1703Y370D01*
X1734Y370D02*
X1743Y370D01*
X1750Y370D02*
X1759Y370D01*
X1808Y370D02*
X1816Y370D01*
X1856Y370D02*
X1864Y370D01*
X1921Y370D02*
X1930Y370D01*
X1957Y370D02*
X1966Y370D01*
X1593Y369D02*
X1601Y369D01*
X1659Y369D02*
X1667Y369D01*
X1694Y369D02*
X1703Y369D01*
X1735Y369D02*
X1744Y369D01*
X1749Y369D02*
X1758Y369D01*
X1808Y369D02*
X1816Y369D01*
X1856Y369D02*
X1864Y369D01*
X1922Y369D02*
X1930Y369D01*
X1957Y369D02*
X1966Y369D01*
X1593Y368D02*
X1601Y368D01*
X1659Y368D02*
X1667Y368D01*
X1694Y368D02*
X1703Y368D01*
X1735Y368D02*
X1744Y368D01*
X1749Y368D02*
X1758Y368D01*
X1808Y368D02*
X1816Y368D01*
X1856Y368D02*
X1864Y368D01*
X1922Y368D02*
X1930Y368D01*
X1957Y368D02*
X1966Y368D01*
X1593Y367D02*
X1601Y367D01*
X1659Y367D02*
X1667Y367D01*
X1694Y367D02*
X1703Y367D01*
X1735Y367D02*
X1744Y367D01*
X1748Y367D02*
X1757Y367D01*
X1808Y367D02*
X1816Y367D01*
X1856Y367D02*
X1864Y367D01*
X1922Y367D02*
X1931Y367D01*
X1956Y367D02*
X1965Y367D01*
X1593Y366D02*
X1601Y366D01*
X1659Y366D02*
X1667Y366D01*
X1695Y366D02*
X1703Y366D01*
X1736Y366D02*
X1745Y366D01*
X1748Y366D02*
X1757Y366D01*
X1808Y366D02*
X1816Y366D01*
X1856Y366D02*
X1864Y366D01*
X1922Y366D02*
X1932Y366D01*
X1955Y366D02*
X1965Y366D01*
X1593Y365D02*
X1601Y365D01*
X1659Y365D02*
X1667Y365D01*
X1695Y365D02*
X1703Y365D01*
X1736Y365D02*
X1745Y365D01*
X1748Y365D02*
X1757Y365D01*
X1808Y365D02*
X1816Y365D01*
X1856Y365D02*
X1864Y365D01*
X1923Y365D02*
X1934Y365D01*
X1953Y365D02*
X1964Y365D01*
X1593Y364D02*
X1601Y364D01*
X1659Y364D02*
X1667Y364D01*
X1695Y364D02*
X1703Y364D01*
X1737Y364D02*
X1756Y364D01*
X1808Y364D02*
X1816Y364D01*
X1856Y364D02*
X1864Y364D01*
X1923Y364D02*
X1935Y364D01*
X1952Y364D02*
X1964Y364D01*
X1593Y363D02*
X1634Y363D01*
X1659Y363D02*
X1667Y363D01*
X1695Y363D02*
X1703Y363D01*
X1737Y363D02*
X1756Y363D01*
X1798Y363D02*
X1826Y363D01*
X1856Y363D02*
X1864Y363D01*
X1924Y363D02*
X1963Y363D01*
X1593Y362D02*
X1636Y362D01*
X1659Y362D02*
X1667Y362D01*
X1695Y362D02*
X1703Y362D01*
X1738Y362D02*
X1755Y362D01*
X1796Y362D02*
X1828Y362D01*
X1856Y362D02*
X1864Y362D01*
X1924Y362D02*
X1962Y362D01*
X1593Y361D02*
X1637Y361D01*
X1659Y361D02*
X1667Y361D01*
X1695Y361D02*
X1703Y361D01*
X1738Y361D02*
X1755Y361D01*
X1795Y361D02*
X1829Y361D01*
X1856Y361D02*
X1864Y361D01*
X1925Y361D02*
X1962Y361D01*
X1593Y360D02*
X1637Y360D01*
X1659Y360D02*
X1667Y360D01*
X1695Y360D02*
X1703Y360D01*
X1739Y360D02*
X1754Y360D01*
X1795Y360D02*
X1830Y360D01*
X1856Y360D02*
X1864Y360D01*
X1926Y360D02*
X1961Y360D01*
X1593Y359D02*
X1637Y359D01*
X1659Y359D02*
X1667Y359D01*
X1695Y359D02*
X1703Y359D01*
X1739Y359D02*
X1754Y359D01*
X1795Y359D02*
X1830Y359D01*
X1856Y359D02*
X1864Y359D01*
X1928Y359D02*
X1959Y359D01*
X1593Y358D02*
X1637Y358D01*
X1659Y358D02*
X1667Y358D01*
X1695Y358D02*
X1703Y358D01*
X1739Y358D02*
X1754Y358D01*
X1795Y358D02*
X1830Y358D01*
X1856Y358D02*
X1864Y358D01*
X1929Y358D02*
X1958Y358D01*
X1593Y357D02*
X1637Y357D01*
X1659Y357D02*
X1667Y357D01*
X1695Y357D02*
X1703Y357D01*
X1740Y357D02*
X1753Y357D01*
X1795Y357D02*
X1829Y357D01*
X1856Y357D02*
X1864Y357D01*
X1930Y357D02*
X1957Y357D01*
X1593Y356D02*
X1636Y356D01*
X1660Y356D02*
X1666Y356D01*
X1696Y356D02*
X1702Y356D01*
X1740Y356D02*
X1753Y356D01*
X1796Y356D02*
X1829Y356D01*
X1857Y356D02*
X1863Y356D01*
X1931Y356D02*
X1956Y356D01*
X1593Y355D02*
X1635Y355D01*
X1661Y355D02*
X1665Y355D01*
X1697Y355D02*
X1701Y355D01*
X1741Y355D02*
X1752Y355D01*
X1797Y355D02*
X1828Y355D01*
X1858Y355D02*
X1862Y355D01*
X1933Y355D02*
X1954Y355D01*
X1804Y322D02*
X1809Y322D01*
X1802Y321D02*
X1811Y321D01*
X1801Y320D02*
X1812Y320D01*
X1800Y319D02*
X1812Y319D01*
X1590Y318D02*
X1600Y318D01*
X1623Y318D02*
X1634Y318D01*
X1800Y318D02*
X1813Y318D01*
X1590Y317D02*
X1601Y317D01*
X1622Y317D02*
X1634Y317D01*
X1800Y317D02*
X1813Y317D01*
X1590Y316D02*
X1602Y316D01*
X1622Y316D02*
X1634Y316D01*
X1800Y316D02*
X1813Y316D01*
X1590Y315D02*
X1602Y315D01*
X1621Y315D02*
X1634Y315D01*
X1800Y315D02*
X1813Y315D01*
X1590Y314D02*
X1603Y314D01*
X1620Y314D02*
X1634Y314D01*
X1800Y314D02*
X1813Y314D01*
X1864Y314D02*
X1867Y314D01*
X1590Y313D02*
X1604Y313D01*
X1620Y313D02*
X1634Y313D01*
X1800Y313D02*
X1813Y313D01*
X1863Y313D02*
X1868Y313D01*
X1590Y312D02*
X1604Y312D01*
X1619Y312D02*
X1634Y312D01*
X1800Y312D02*
X1812Y312D01*
X1862Y312D02*
X1869Y312D01*
X1590Y311D02*
X1605Y311D01*
X1618Y311D02*
X1634Y311D01*
X1801Y311D02*
X1812Y311D01*
X1861Y311D02*
X1869Y311D01*
X1590Y310D02*
X1606Y310D01*
X1617Y310D02*
X1634Y310D01*
X1802Y310D02*
X1811Y310D01*
X1861Y310D02*
X1869Y310D01*
X1590Y309D02*
X1606Y309D01*
X1617Y309D02*
X1634Y309D01*
X1861Y309D02*
X1869Y309D01*
X1590Y308D02*
X1607Y308D01*
X1616Y308D02*
X1634Y308D01*
X1861Y308D02*
X1869Y308D01*
X1590Y307D02*
X1608Y307D01*
X1615Y307D02*
X1634Y307D01*
X1861Y307D02*
X1869Y307D01*
X1590Y306D02*
X1609Y306D01*
X1615Y306D02*
X1634Y306D01*
X1861Y306D02*
X1869Y306D01*
X1590Y305D02*
X1609Y305D01*
X1614Y305D02*
X1634Y305D01*
X1861Y305D02*
X1869Y305D01*
X1590Y304D02*
X1598Y304D01*
X1600Y304D02*
X1610Y304D01*
X1613Y304D02*
X1623Y304D01*
X1626Y304D02*
X1634Y304D01*
X1861Y304D02*
X1869Y304D01*
X1590Y303D02*
X1598Y303D01*
X1600Y303D02*
X1611Y303D01*
X1613Y303D02*
X1623Y303D01*
X1626Y303D02*
X1634Y303D01*
X1861Y303D02*
X1869Y303D01*
X1590Y302D02*
X1598Y302D01*
X1601Y302D02*
X1622Y302D01*
X1626Y302D02*
X1634Y302D01*
X1861Y302D02*
X1869Y302D01*
X1590Y301D02*
X1598Y301D01*
X1602Y301D02*
X1621Y301D01*
X1626Y301D02*
X1634Y301D01*
X1861Y301D02*
X1869Y301D01*
X1590Y300D02*
X1598Y300D01*
X1603Y300D02*
X1621Y300D01*
X1626Y300D02*
X1634Y300D01*
X1861Y300D02*
X1869Y300D01*
X1590Y299D02*
X1598Y299D01*
X1603Y299D02*
X1620Y299D01*
X1626Y299D02*
X1634Y299D01*
X1861Y299D02*
X1870Y299D01*
X1590Y298D02*
X1598Y298D01*
X1604Y298D02*
X1619Y298D01*
X1626Y298D02*
X1634Y298D01*
X1667Y298D02*
X1687Y298D01*
X1723Y298D02*
X1727Y298D01*
X1741Y298D02*
X1755Y298D01*
X1793Y298D02*
X1811Y298D01*
X1854Y298D02*
X1890Y298D01*
X1930Y298D02*
X1950Y298D01*
X1985Y298D02*
X1990Y298D01*
X2003Y298D02*
X2019Y298D01*
X1590Y297D02*
X1598Y297D01*
X1605Y297D02*
X1619Y297D01*
X1626Y297D02*
X1634Y297D01*
X1665Y297D02*
X1689Y297D01*
X1722Y297D02*
X1728Y297D01*
X1739Y297D02*
X1757Y297D01*
X1792Y297D02*
X1812Y297D01*
X1853Y297D02*
X1891Y297D01*
X1928Y297D02*
X1952Y297D01*
X1985Y297D02*
X1991Y297D01*
X2002Y297D02*
X2021Y297D01*
X1590Y296D02*
X1598Y296D01*
X1605Y296D02*
X1618Y296D01*
X1626Y296D02*
X1634Y296D01*
X1664Y296D02*
X1691Y296D01*
X1721Y296D02*
X1729Y296D01*
X1738Y296D02*
X1759Y296D01*
X1791Y296D02*
X1812Y296D01*
X1853Y296D02*
X1892Y296D01*
X1926Y296D02*
X1954Y296D01*
X1984Y296D02*
X1991Y296D01*
X2001Y296D02*
X2023Y296D01*
X1590Y295D02*
X1598Y295D01*
X1606Y295D02*
X1617Y295D01*
X1626Y295D02*
X1634Y295D01*
X1662Y295D02*
X1692Y295D01*
X1721Y295D02*
X1729Y295D01*
X1736Y295D02*
X1760Y295D01*
X1791Y295D02*
X1813Y295D01*
X1852Y295D02*
X1892Y295D01*
X1925Y295D02*
X1955Y295D01*
X1984Y295D02*
X1992Y295D01*
X2000Y295D02*
X2024Y295D01*
X1590Y294D02*
X1598Y294D01*
X1607Y294D02*
X1616Y294D01*
X1626Y294D02*
X1634Y294D01*
X1661Y294D02*
X1693Y294D01*
X1721Y294D02*
X1729Y294D01*
X1734Y294D02*
X1761Y294D01*
X1791Y294D02*
X1813Y294D01*
X1852Y294D02*
X1892Y294D01*
X1924Y294D02*
X1956Y294D01*
X1984Y294D02*
X1992Y294D01*
X1999Y294D02*
X2025Y294D01*
X1590Y293D02*
X1598Y293D01*
X1607Y293D02*
X1616Y293D01*
X1626Y293D02*
X1634Y293D01*
X1660Y293D02*
X1695Y293D01*
X1721Y293D02*
X1729Y293D01*
X1733Y293D02*
X1762Y293D01*
X1791Y293D02*
X1813Y293D01*
X1852Y293D02*
X1892Y293D01*
X1923Y293D02*
X1957Y293D01*
X1984Y293D02*
X1992Y293D01*
X1997Y293D02*
X2025Y293D01*
X1590Y292D02*
X1598Y292D01*
X1608Y292D02*
X1616Y292D01*
X1626Y292D02*
X1634Y292D01*
X1659Y292D02*
X1696Y292D01*
X1721Y292D02*
X1729Y292D01*
X1731Y292D02*
X1762Y292D01*
X1792Y292D02*
X1813Y292D01*
X1853Y292D02*
X1891Y292D01*
X1922Y292D02*
X1958Y292D01*
X1984Y292D02*
X1992Y292D01*
X1996Y292D02*
X2026Y292D01*
X1590Y291D02*
X1598Y291D01*
X1608Y291D02*
X1616Y291D01*
X1626Y291D02*
X1634Y291D01*
X1658Y291D02*
X1696Y291D01*
X1721Y291D02*
X1763Y291D01*
X1793Y291D02*
X1813Y291D01*
X1854Y291D02*
X1890Y291D01*
X1921Y291D02*
X1959Y291D01*
X1984Y291D02*
X1992Y291D01*
X1995Y291D02*
X2027Y291D01*
X1590Y290D02*
X1598Y290D01*
X1608Y290D02*
X1616Y290D01*
X1626Y290D02*
X1634Y290D01*
X1658Y290D02*
X1697Y290D01*
X1721Y290D02*
X1763Y290D01*
X1795Y290D02*
X1813Y290D01*
X1856Y290D02*
X1888Y290D01*
X1920Y290D02*
X1960Y290D01*
X1984Y290D02*
X1992Y290D01*
X1994Y290D02*
X2027Y290D01*
X1590Y289D02*
X1598Y289D01*
X1608Y289D02*
X1615Y289D01*
X1626Y289D02*
X1634Y289D01*
X1657Y289D02*
X1669Y289D01*
X1686Y289D02*
X1698Y289D01*
X1721Y289D02*
X1743Y289D01*
X1754Y289D02*
X1763Y289D01*
X1805Y289D02*
X1813Y289D01*
X1861Y289D02*
X1869Y289D01*
X1920Y289D02*
X1931Y289D01*
X1949Y289D02*
X1960Y289D01*
X1984Y289D02*
X2006Y289D01*
X2018Y289D02*
X2027Y289D01*
X1590Y288D02*
X1598Y288D01*
X1608Y288D02*
X1615Y288D01*
X1626Y288D02*
X1634Y288D01*
X1656Y288D02*
X1667Y288D01*
X1688Y288D02*
X1698Y288D01*
X1721Y288D02*
X1741Y288D01*
X1755Y288D02*
X1764Y288D01*
X1805Y288D02*
X1813Y288D01*
X1861Y288D02*
X1869Y288D01*
X1919Y288D02*
X1930Y288D01*
X1950Y288D02*
X1961Y288D01*
X1984Y288D02*
X2005Y288D01*
X2019Y288D02*
X2028Y288D01*
X1590Y287D02*
X1598Y287D01*
X1609Y287D02*
X1614Y287D01*
X1626Y287D02*
X1634Y287D01*
X1656Y287D02*
X1666Y287D01*
X1689Y287D02*
X1699Y287D01*
X1721Y287D02*
X1740Y287D01*
X1755Y287D02*
X1764Y287D01*
X1805Y287D02*
X1813Y287D01*
X1861Y287D02*
X1869Y287D01*
X1919Y287D02*
X1929Y287D01*
X1952Y287D02*
X1961Y287D01*
X1984Y287D02*
X2004Y287D01*
X2019Y287D02*
X2028Y287D01*
X1590Y286D02*
X1598Y286D01*
X1612Y286D02*
X1612Y286D01*
X1626Y286D02*
X1634Y286D01*
X1656Y286D02*
X1665Y286D01*
X1690Y286D02*
X1699Y286D01*
X1721Y286D02*
X1738Y286D01*
X1756Y286D02*
X1764Y286D01*
X1805Y286D02*
X1813Y286D01*
X1861Y286D02*
X1869Y286D01*
X1918Y286D02*
X1928Y286D01*
X1952Y286D02*
X1962Y286D01*
X1984Y286D02*
X2002Y286D01*
X2020Y286D02*
X2028Y286D01*
X1590Y285D02*
X1598Y285D01*
X1626Y285D02*
X1634Y285D01*
X1656Y285D02*
X1664Y285D01*
X1690Y285D02*
X1699Y285D01*
X1721Y285D02*
X1736Y285D01*
X1756Y285D02*
X1764Y285D01*
X1805Y285D02*
X1813Y285D01*
X1861Y285D02*
X1869Y285D01*
X1918Y285D02*
X1927Y285D01*
X1953Y285D02*
X1962Y285D01*
X1984Y285D02*
X2001Y285D01*
X2020Y285D02*
X2028Y285D01*
X1590Y284D02*
X1598Y284D01*
X1626Y284D02*
X1634Y284D01*
X1655Y284D02*
X1664Y284D01*
X1691Y284D02*
X1699Y284D01*
X1721Y284D02*
X1735Y284D01*
X1756Y284D02*
X1764Y284D01*
X1805Y284D02*
X1813Y284D01*
X1861Y284D02*
X1869Y284D01*
X1918Y284D02*
X1926Y284D01*
X1954Y284D02*
X1962Y284D01*
X1984Y284D02*
X2000Y284D01*
X2020Y284D02*
X2028Y284D01*
X1590Y283D02*
X1598Y283D01*
X1626Y283D02*
X1634Y283D01*
X1655Y283D02*
X1663Y283D01*
X1691Y283D02*
X1699Y283D01*
X1721Y283D02*
X1733Y283D01*
X1756Y283D02*
X1764Y283D01*
X1805Y283D02*
X1813Y283D01*
X1861Y283D02*
X1869Y283D01*
X1918Y283D02*
X1926Y283D01*
X1954Y283D02*
X1962Y283D01*
X1984Y283D02*
X1999Y283D01*
X2020Y283D02*
X2028Y283D01*
X1590Y282D02*
X1598Y282D01*
X1626Y282D02*
X1634Y282D01*
X1655Y282D02*
X1663Y282D01*
X1691Y282D02*
X1699Y282D01*
X1721Y282D02*
X1732Y282D01*
X1756Y282D02*
X1764Y282D01*
X1805Y282D02*
X1813Y282D01*
X1861Y282D02*
X1869Y282D01*
X1918Y282D02*
X1926Y282D01*
X1954Y282D02*
X1962Y282D01*
X1984Y282D02*
X1998Y282D01*
X2020Y282D02*
X2028Y282D01*
X1590Y281D02*
X1598Y281D01*
X1626Y281D02*
X1634Y281D01*
X1655Y281D02*
X1663Y281D01*
X1691Y281D02*
X1699Y281D01*
X1721Y281D02*
X1730Y281D01*
X1756Y281D02*
X1764Y281D01*
X1805Y281D02*
X1813Y281D01*
X1861Y281D02*
X1869Y281D01*
X1918Y281D02*
X1926Y281D01*
X1954Y281D02*
X1962Y281D01*
X1984Y281D02*
X1997Y281D01*
X2020Y281D02*
X2027Y281D01*
X1590Y280D02*
X1598Y280D01*
X1626Y280D02*
X1634Y280D01*
X1655Y280D02*
X1663Y280D01*
X1691Y280D02*
X1699Y280D01*
X1721Y280D02*
X1729Y280D01*
X1756Y280D02*
X1764Y280D01*
X1805Y280D02*
X1813Y280D01*
X1861Y280D02*
X1869Y280D01*
X1918Y280D02*
X1926Y280D01*
X1954Y280D02*
X1962Y280D01*
X1984Y280D02*
X1995Y280D01*
X2021Y280D02*
X2027Y280D01*
X1590Y279D02*
X1598Y279D01*
X1626Y279D02*
X1634Y279D01*
X1655Y279D02*
X1663Y279D01*
X1691Y279D02*
X1699Y279D01*
X1721Y279D02*
X1729Y279D01*
X1756Y279D02*
X1764Y279D01*
X1805Y279D02*
X1813Y279D01*
X1861Y279D02*
X1869Y279D01*
X1918Y279D02*
X1926Y279D01*
X1954Y279D02*
X1962Y279D01*
X1984Y279D02*
X1994Y279D01*
X2022Y279D02*
X2026Y279D01*
X1590Y278D02*
X1598Y278D01*
X1626Y278D02*
X1634Y278D01*
X1655Y278D02*
X1663Y278D01*
X1691Y278D02*
X1699Y278D01*
X1721Y278D02*
X1729Y278D01*
X1756Y278D02*
X1764Y278D01*
X1805Y278D02*
X1813Y278D01*
X1861Y278D02*
X1869Y278D01*
X1918Y278D02*
X1926Y278D01*
X1954Y278D02*
X1962Y278D01*
X1984Y278D02*
X1993Y278D01*
X1590Y277D02*
X1598Y277D01*
X1626Y277D02*
X1634Y277D01*
X1655Y277D02*
X1663Y277D01*
X1691Y277D02*
X1699Y277D01*
X1721Y277D02*
X1729Y277D01*
X1756Y277D02*
X1764Y277D01*
X1805Y277D02*
X1813Y277D01*
X1861Y277D02*
X1869Y277D01*
X1918Y277D02*
X1926Y277D01*
X1954Y277D02*
X1962Y277D01*
X1984Y277D02*
X1992Y277D01*
X1590Y276D02*
X1598Y276D01*
X1626Y276D02*
X1634Y276D01*
X1655Y276D02*
X1663Y276D01*
X1691Y276D02*
X1699Y276D01*
X1721Y276D02*
X1729Y276D01*
X1756Y276D02*
X1764Y276D01*
X1805Y276D02*
X1813Y276D01*
X1861Y276D02*
X1869Y276D01*
X1918Y276D02*
X1926Y276D01*
X1954Y276D02*
X1962Y276D01*
X1984Y276D02*
X1992Y276D01*
X1590Y275D02*
X1598Y275D01*
X1626Y275D02*
X1634Y275D01*
X1655Y275D02*
X1663Y275D01*
X1691Y275D02*
X1699Y275D01*
X1721Y275D02*
X1729Y275D01*
X1756Y275D02*
X1764Y275D01*
X1805Y275D02*
X1813Y275D01*
X1861Y275D02*
X1869Y275D01*
X1918Y275D02*
X1926Y275D01*
X1954Y275D02*
X1962Y275D01*
X1984Y275D02*
X1992Y275D01*
X1590Y274D02*
X1598Y274D01*
X1626Y274D02*
X1634Y274D01*
X1655Y274D02*
X1663Y274D01*
X1691Y274D02*
X1699Y274D01*
X1721Y274D02*
X1729Y274D01*
X1756Y274D02*
X1764Y274D01*
X1805Y274D02*
X1813Y274D01*
X1861Y274D02*
X1869Y274D01*
X1918Y274D02*
X1926Y274D01*
X1954Y274D02*
X1962Y274D01*
X1984Y274D02*
X1992Y274D01*
X1590Y273D02*
X1598Y273D01*
X1626Y273D02*
X1634Y273D01*
X1655Y273D02*
X1663Y273D01*
X1691Y273D02*
X1699Y273D01*
X1721Y273D02*
X1729Y273D01*
X1756Y273D02*
X1764Y273D01*
X1805Y273D02*
X1813Y273D01*
X1861Y273D02*
X1869Y273D01*
X1918Y273D02*
X1926Y273D01*
X1954Y273D02*
X1962Y273D01*
X1984Y273D02*
X1992Y273D01*
X1590Y272D02*
X1598Y272D01*
X1626Y272D02*
X1634Y272D01*
X1655Y272D02*
X1663Y272D01*
X1691Y272D02*
X1699Y272D01*
X1721Y272D02*
X1729Y272D01*
X1756Y272D02*
X1764Y272D01*
X1805Y272D02*
X1813Y272D01*
X1861Y272D02*
X1869Y272D01*
X1918Y272D02*
X1926Y272D01*
X1954Y272D02*
X1962Y272D01*
X1984Y272D02*
X1992Y272D01*
X1590Y271D02*
X1598Y271D01*
X1626Y271D02*
X1634Y271D01*
X1655Y271D02*
X1663Y271D01*
X1691Y271D02*
X1699Y271D01*
X1721Y271D02*
X1729Y271D01*
X1756Y271D02*
X1764Y271D01*
X1805Y271D02*
X1813Y271D01*
X1861Y271D02*
X1869Y271D01*
X1918Y271D02*
X1926Y271D01*
X1954Y271D02*
X1962Y271D01*
X1984Y271D02*
X1992Y271D01*
X1590Y270D02*
X1598Y270D01*
X1626Y270D02*
X1634Y270D01*
X1655Y270D02*
X1663Y270D01*
X1691Y270D02*
X1699Y270D01*
X1721Y270D02*
X1729Y270D01*
X1756Y270D02*
X1764Y270D01*
X1805Y270D02*
X1813Y270D01*
X1861Y270D02*
X1869Y270D01*
X1918Y270D02*
X1926Y270D01*
X1954Y270D02*
X1962Y270D01*
X1984Y270D02*
X1992Y270D01*
X1590Y269D02*
X1598Y269D01*
X1626Y269D02*
X1634Y269D01*
X1655Y269D02*
X1663Y269D01*
X1691Y269D02*
X1699Y269D01*
X1721Y269D02*
X1729Y269D01*
X1756Y269D02*
X1764Y269D01*
X1805Y269D02*
X1813Y269D01*
X1861Y269D02*
X1869Y269D01*
X1918Y269D02*
X1926Y269D01*
X1954Y269D02*
X1962Y269D01*
X1984Y269D02*
X1992Y269D01*
X1590Y268D02*
X1598Y268D01*
X1626Y268D02*
X1634Y268D01*
X1655Y268D02*
X1663Y268D01*
X1691Y268D02*
X1699Y268D01*
X1721Y268D02*
X1729Y268D01*
X1756Y268D02*
X1765Y268D01*
X1805Y268D02*
X1813Y268D01*
X1861Y268D02*
X1869Y268D01*
X1918Y268D02*
X1926Y268D01*
X1954Y268D02*
X1962Y268D01*
X1984Y268D02*
X1992Y268D01*
X1590Y267D02*
X1598Y267D01*
X1626Y267D02*
X1634Y267D01*
X1655Y267D02*
X1663Y267D01*
X1691Y267D02*
X1699Y267D01*
X1721Y267D02*
X1729Y267D01*
X1756Y267D02*
X1765Y267D01*
X1805Y267D02*
X1813Y267D01*
X1861Y267D02*
X1869Y267D01*
X1918Y267D02*
X1926Y267D01*
X1954Y267D02*
X1962Y267D01*
X1984Y267D02*
X1992Y267D01*
X1590Y266D02*
X1598Y266D01*
X1626Y266D02*
X1634Y266D01*
X1655Y266D02*
X1663Y266D01*
X1691Y266D02*
X1699Y266D01*
X1721Y266D02*
X1729Y266D01*
X1756Y266D02*
X1765Y266D01*
X1805Y266D02*
X1813Y266D01*
X1861Y266D02*
X1869Y266D01*
X1918Y266D02*
X1926Y266D01*
X1954Y266D02*
X1962Y266D01*
X1984Y266D02*
X1992Y266D01*
X1590Y265D02*
X1598Y265D01*
X1626Y265D02*
X1634Y265D01*
X1655Y265D02*
X1663Y265D01*
X1691Y265D02*
X1699Y265D01*
X1721Y265D02*
X1729Y265D01*
X1756Y265D02*
X1765Y265D01*
X1805Y265D02*
X1813Y265D01*
X1861Y265D02*
X1869Y265D01*
X1918Y265D02*
X1926Y265D01*
X1954Y265D02*
X1962Y265D01*
X1984Y265D02*
X1992Y265D01*
X1590Y264D02*
X1598Y264D01*
X1626Y264D02*
X1634Y264D01*
X1655Y264D02*
X1663Y264D01*
X1691Y264D02*
X1699Y264D01*
X1721Y264D02*
X1729Y264D01*
X1757Y264D02*
X1765Y264D01*
X1805Y264D02*
X1813Y264D01*
X1861Y264D02*
X1869Y264D01*
X1891Y264D02*
X1893Y264D01*
X1918Y264D02*
X1926Y264D01*
X1954Y264D02*
X1962Y264D01*
X1984Y264D02*
X1992Y264D01*
X1590Y263D02*
X1598Y263D01*
X1626Y263D02*
X1634Y263D01*
X1655Y263D02*
X1664Y263D01*
X1691Y263D02*
X1699Y263D01*
X1721Y263D02*
X1729Y263D01*
X1757Y263D02*
X1765Y263D01*
X1805Y263D02*
X1813Y263D01*
X1861Y263D02*
X1869Y263D01*
X1890Y263D02*
X1895Y263D01*
X1918Y263D02*
X1926Y263D01*
X1954Y263D02*
X1962Y263D01*
X1984Y263D02*
X1992Y263D01*
X1590Y262D02*
X1598Y262D01*
X1626Y262D02*
X1634Y262D01*
X1655Y262D02*
X1664Y262D01*
X1691Y262D02*
X1699Y262D01*
X1721Y262D02*
X1729Y262D01*
X1757Y262D02*
X1765Y262D01*
X1805Y262D02*
X1813Y262D01*
X1861Y262D02*
X1869Y262D01*
X1889Y262D02*
X1896Y262D01*
X1918Y262D02*
X1927Y262D01*
X1954Y262D02*
X1962Y262D01*
X1984Y262D02*
X1992Y262D01*
X1590Y261D02*
X1598Y261D01*
X1626Y261D02*
X1634Y261D01*
X1655Y261D02*
X1664Y261D01*
X1690Y261D02*
X1699Y261D01*
X1721Y261D02*
X1729Y261D01*
X1757Y261D02*
X1765Y261D01*
X1805Y261D02*
X1813Y261D01*
X1861Y261D02*
X1869Y261D01*
X1889Y261D02*
X1896Y261D01*
X1918Y261D02*
X1927Y261D01*
X1953Y261D02*
X1962Y261D01*
X1984Y261D02*
X1992Y261D01*
X1590Y260D02*
X1598Y260D01*
X1626Y260D02*
X1634Y260D01*
X1656Y260D02*
X1665Y260D01*
X1689Y260D02*
X1699Y260D01*
X1721Y260D02*
X1729Y260D01*
X1757Y260D02*
X1765Y260D01*
X1805Y260D02*
X1813Y260D01*
X1861Y260D02*
X1870Y260D01*
X1888Y260D02*
X1896Y260D01*
X1918Y260D02*
X1928Y260D01*
X1952Y260D02*
X1962Y260D01*
X1984Y260D02*
X1992Y260D01*
X1590Y259D02*
X1598Y259D01*
X1626Y259D02*
X1634Y259D01*
X1656Y259D02*
X1666Y259D01*
X1688Y259D02*
X1699Y259D01*
X1721Y259D02*
X1729Y259D01*
X1757Y259D02*
X1765Y259D01*
X1805Y259D02*
X1813Y259D01*
X1861Y259D02*
X1870Y259D01*
X1888Y259D02*
X1896Y259D01*
X1919Y259D02*
X1929Y259D01*
X1951Y259D02*
X1961Y259D01*
X1984Y259D02*
X1992Y259D01*
X1590Y258D02*
X1598Y258D01*
X1626Y258D02*
X1634Y258D01*
X1656Y258D02*
X1668Y258D01*
X1687Y258D02*
X1698Y258D01*
X1721Y258D02*
X1729Y258D01*
X1757Y258D02*
X1765Y258D01*
X1805Y258D02*
X1813Y258D01*
X1862Y258D02*
X1871Y258D01*
X1887Y258D02*
X1896Y258D01*
X1919Y258D02*
X1930Y258D01*
X1950Y258D02*
X1961Y258D01*
X1984Y258D02*
X1992Y258D01*
X1590Y257D02*
X1598Y257D01*
X1626Y257D02*
X1634Y257D01*
X1657Y257D02*
X1669Y257D01*
X1685Y257D02*
X1698Y257D01*
X1721Y257D02*
X1729Y257D01*
X1757Y257D02*
X1765Y257D01*
X1805Y257D02*
X1813Y257D01*
X1862Y257D02*
X1872Y257D01*
X1886Y257D02*
X1896Y257D01*
X1920Y257D02*
X1932Y257D01*
X1948Y257D02*
X1960Y257D01*
X1984Y257D02*
X1992Y257D01*
X1590Y256D02*
X1598Y256D01*
X1626Y256D02*
X1634Y256D01*
X1658Y256D02*
X1697Y256D01*
X1721Y256D02*
X1729Y256D01*
X1757Y256D02*
X1765Y256D01*
X1794Y256D02*
X1824Y256D01*
X1862Y256D02*
X1896Y256D01*
X1920Y256D02*
X1960Y256D01*
X1984Y256D02*
X1992Y256D01*
X1590Y255D02*
X1598Y255D01*
X1626Y255D02*
X1634Y255D01*
X1658Y255D02*
X1696Y255D01*
X1721Y255D02*
X1729Y255D01*
X1757Y255D02*
X1765Y255D01*
X1792Y255D02*
X1825Y255D01*
X1863Y255D02*
X1895Y255D01*
X1921Y255D02*
X1959Y255D01*
X1984Y255D02*
X1992Y255D01*
X1590Y254D02*
X1598Y254D01*
X1626Y254D02*
X1634Y254D01*
X1659Y254D02*
X1695Y254D01*
X1721Y254D02*
X1729Y254D01*
X1757Y254D02*
X1765Y254D01*
X1792Y254D02*
X1826Y254D01*
X1863Y254D02*
X1894Y254D01*
X1922Y254D02*
X1958Y254D01*
X1984Y254D02*
X1992Y254D01*
X1590Y253D02*
X1598Y253D01*
X1626Y253D02*
X1634Y253D01*
X1660Y253D02*
X1694Y253D01*
X1721Y253D02*
X1729Y253D01*
X1757Y253D02*
X1765Y253D01*
X1791Y253D02*
X1826Y253D01*
X1864Y253D02*
X1894Y253D01*
X1923Y253D02*
X1957Y253D01*
X1984Y253D02*
X1992Y253D01*
X1590Y252D02*
X1598Y252D01*
X1626Y252D02*
X1634Y252D01*
X1662Y252D02*
X1693Y252D01*
X1721Y252D02*
X1729Y252D01*
X1757Y252D02*
X1765Y252D01*
X1791Y252D02*
X1826Y252D01*
X1865Y252D02*
X1893Y252D01*
X1924Y252D02*
X1956Y252D01*
X1984Y252D02*
X1992Y252D01*
X1590Y251D02*
X1598Y251D01*
X1626Y251D02*
X1634Y251D01*
X1663Y251D02*
X1692Y251D01*
X1721Y251D02*
X1729Y251D01*
X1757Y251D02*
X1765Y251D01*
X1791Y251D02*
X1826Y251D01*
X1866Y251D02*
X1892Y251D01*
X1926Y251D02*
X1954Y251D01*
X1984Y251D02*
X1992Y251D01*
X1590Y250D02*
X1597Y250D01*
X1626Y250D02*
X1633Y250D01*
X1664Y250D02*
X1690Y250D01*
X1721Y250D02*
X1729Y250D01*
X1757Y250D02*
X1765Y250D01*
X1792Y250D02*
X1826Y250D01*
X1867Y250D02*
X1891Y250D01*
X1927Y250D02*
X1953Y250D01*
X1984Y250D02*
X1991Y250D01*
X1591Y249D02*
X1596Y249D01*
X1627Y249D02*
X1633Y249D01*
X1666Y249D02*
X1689Y249D01*
X1722Y249D02*
X1728Y249D01*
X1758Y249D02*
X1764Y249D01*
X1792Y249D02*
X1825Y249D01*
X1869Y249D02*
X1889Y249D01*
X1929Y249D02*
X1952Y249D01*
X1985Y249D02*
X1991Y249D01*
X1592Y248D02*
X1595Y248D01*
X1628Y248D02*
X1631Y248D01*
X1668Y248D02*
X1686Y248D01*
X1723Y248D02*
X1727Y248D01*
X1759Y248D02*
X1763Y248D01*
X1793Y248D02*
X1824Y248D01*
X1871Y248D02*
X1887Y248D01*
X1931Y248D02*
X1949Y248D01*
X1986Y248D02*
X1989Y248D01*
X1708Y199D02*
X1731Y199D01*
X1857Y199D02*
X1886Y199D01*
X1705Y198D02*
X1732Y198D01*
X1853Y198D02*
X1890Y198D01*
X1704Y197D02*
X1732Y197D01*
X1852Y197D02*
X1892Y197D01*
X1703Y196D02*
X1732Y196D01*
X1850Y196D02*
X1893Y196D01*
X1703Y195D02*
X1732Y195D01*
X1849Y195D02*
X1894Y195D01*
X1703Y194D02*
X1732Y194D01*
X1849Y194D02*
X1895Y194D01*
X1703Y193D02*
X1732Y193D01*
X1848Y193D02*
X1895Y193D01*
X1703Y192D02*
X1732Y192D01*
X1848Y192D02*
X1896Y192D01*
X1704Y191D02*
X1732Y191D01*
X1848Y191D02*
X1896Y191D01*
X1705Y190D02*
X1732Y190D01*
X1847Y190D02*
X1896Y190D01*
X1707Y189D02*
X1732Y189D01*
X1847Y189D02*
X1896Y189D01*
X1723Y188D02*
X1732Y188D01*
X1847Y188D02*
X1856Y188D01*
X1887Y188D02*
X1896Y188D01*
X1723Y187D02*
X1732Y187D01*
X1847Y187D02*
X1856Y187D01*
X1887Y187D02*
X1896Y187D01*
X1723Y186D02*
X1732Y186D01*
X1847Y186D02*
X1856Y186D01*
X1887Y186D02*
X1896Y186D01*
X1723Y185D02*
X1732Y185D01*
X1847Y185D02*
X1856Y185D01*
X1887Y185D02*
X1896Y185D01*
X1723Y184D02*
X1732Y184D01*
X1847Y184D02*
X1856Y184D01*
X1887Y184D02*
X1896Y184D01*
X1723Y183D02*
X1732Y183D01*
X1847Y183D02*
X1856Y183D01*
X1887Y183D02*
X1896Y183D01*
X1723Y182D02*
X1732Y182D01*
X1847Y182D02*
X1856Y182D01*
X1887Y182D02*
X1896Y182D01*
X1723Y181D02*
X1732Y181D01*
X1847Y181D02*
X1856Y181D01*
X1887Y181D02*
X1896Y181D01*
X1723Y180D02*
X1732Y180D01*
X1847Y180D02*
X1856Y180D01*
X1887Y180D02*
X1896Y180D01*
X1723Y179D02*
X1732Y179D01*
X1847Y179D02*
X1856Y179D01*
X1887Y179D02*
X1896Y179D01*
X1723Y178D02*
X1732Y178D01*
X1847Y178D02*
X1856Y178D01*
X1887Y178D02*
X1896Y178D01*
X1633Y177D02*
X1637Y177D01*
X1673Y177D02*
X1677Y177D01*
X1723Y177D02*
X1732Y177D01*
X1847Y177D02*
X1856Y177D01*
X1887Y177D02*
X1896Y177D01*
X1632Y176D02*
X1638Y176D01*
X1671Y176D02*
X1678Y176D01*
X1723Y176D02*
X1732Y176D01*
X1847Y176D02*
X1856Y176D01*
X1887Y176D02*
X1896Y176D01*
X1631Y175D02*
X1639Y175D01*
X1671Y175D02*
X1679Y175D01*
X1723Y175D02*
X1732Y175D01*
X1847Y175D02*
X1856Y175D01*
X1887Y175D02*
X1896Y175D01*
X1631Y174D02*
X1639Y174D01*
X1670Y174D02*
X1679Y174D01*
X1723Y174D02*
X1732Y174D01*
X1847Y174D02*
X1856Y174D01*
X1887Y174D02*
X1896Y174D01*
X1631Y173D02*
X1640Y173D01*
X1670Y173D02*
X1679Y173D01*
X1723Y173D02*
X1732Y173D01*
X1847Y173D02*
X1856Y173D01*
X1887Y173D02*
X1896Y173D01*
X1630Y172D02*
X1640Y172D01*
X1670Y172D02*
X1679Y172D01*
X1723Y172D02*
X1732Y172D01*
X1847Y172D02*
X1856Y172D01*
X1887Y172D02*
X1896Y172D01*
X1630Y171D02*
X1640Y171D01*
X1670Y171D02*
X1679Y171D01*
X1723Y171D02*
X1732Y171D01*
X1847Y171D02*
X1856Y171D01*
X1887Y171D02*
X1896Y171D01*
X1630Y170D02*
X1640Y170D01*
X1670Y170D02*
X1679Y170D01*
X1723Y170D02*
X1732Y170D01*
X1847Y170D02*
X1856Y170D01*
X1887Y170D02*
X1896Y170D01*
X1630Y169D02*
X1640Y169D01*
X1670Y169D02*
X1679Y169D01*
X1723Y169D02*
X1732Y169D01*
X1847Y169D02*
X1856Y169D01*
X1887Y169D02*
X1896Y169D01*
X1630Y168D02*
X1640Y168D01*
X1670Y168D02*
X1679Y168D01*
X1723Y168D02*
X1732Y168D01*
X1847Y168D02*
X1856Y168D01*
X1887Y168D02*
X1896Y168D01*
X1630Y167D02*
X1640Y167D01*
X1670Y167D02*
X1679Y167D01*
X1723Y167D02*
X1732Y167D01*
X1847Y167D02*
X1856Y167D01*
X1887Y167D02*
X1896Y167D01*
X1630Y166D02*
X1640Y166D01*
X1670Y166D02*
X1679Y166D01*
X1723Y166D02*
X1732Y166D01*
X1847Y166D02*
X1856Y166D01*
X1887Y166D02*
X1896Y166D01*
X1630Y165D02*
X1640Y165D01*
X1670Y165D02*
X1679Y165D01*
X1723Y165D02*
X1732Y165D01*
X1847Y165D02*
X1856Y165D01*
X1887Y165D02*
X1896Y165D01*
X1630Y164D02*
X1640Y164D01*
X1670Y164D02*
X1679Y164D01*
X1723Y164D02*
X1732Y164D01*
X1847Y164D02*
X1856Y164D01*
X1887Y164D02*
X1896Y164D01*
X1631Y163D02*
X1641Y163D01*
X1669Y163D02*
X1679Y163D01*
X1723Y163D02*
X1732Y163D01*
X1847Y163D02*
X1856Y163D01*
X1887Y163D02*
X1896Y163D01*
X1631Y162D02*
X1641Y162D01*
X1669Y162D02*
X1679Y162D01*
X1723Y162D02*
X1732Y162D01*
X1847Y162D02*
X1856Y162D01*
X1887Y162D02*
X1896Y162D01*
X1631Y161D02*
X1641Y161D01*
X1668Y161D02*
X1678Y161D01*
X1723Y161D02*
X1732Y161D01*
X1847Y161D02*
X1856Y161D01*
X1887Y161D02*
X1896Y161D01*
X1632Y160D02*
X1642Y160D01*
X1668Y160D02*
X1678Y160D01*
X1723Y160D02*
X1732Y160D01*
X1847Y160D02*
X1856Y160D01*
X1887Y160D02*
X1896Y160D01*
X1632Y159D02*
X1642Y159D01*
X1667Y159D02*
X1677Y159D01*
X1723Y159D02*
X1732Y159D01*
X1847Y159D02*
X1856Y159D01*
X1887Y159D02*
X1896Y159D01*
X1633Y158D02*
X1643Y158D01*
X1667Y158D02*
X1677Y158D01*
X1723Y158D02*
X1732Y158D01*
X1847Y158D02*
X1856Y158D01*
X1887Y158D02*
X1896Y158D01*
X1633Y157D02*
X1643Y157D01*
X1666Y157D02*
X1676Y157D01*
X1723Y157D02*
X1732Y157D01*
X1847Y157D02*
X1856Y157D01*
X1887Y157D02*
X1896Y157D01*
X1634Y156D02*
X1644Y156D01*
X1666Y156D02*
X1676Y156D01*
X1723Y156D02*
X1732Y156D01*
X1745Y156D02*
X1749Y156D01*
X1847Y156D02*
X1856Y156D01*
X1887Y156D02*
X1896Y156D01*
X1634Y155D02*
X1644Y155D01*
X1666Y155D02*
X1676Y155D01*
X1723Y155D02*
X1732Y155D01*
X1744Y155D02*
X1750Y155D01*
X1847Y155D02*
X1856Y155D01*
X1887Y155D02*
X1896Y155D01*
X1634Y154D02*
X1644Y154D01*
X1665Y154D02*
X1675Y154D01*
X1723Y154D02*
X1732Y154D01*
X1743Y154D02*
X1751Y154D01*
X1847Y154D02*
X1856Y154D01*
X1887Y154D02*
X1896Y154D01*
X1635Y153D02*
X1645Y153D01*
X1665Y153D02*
X1675Y153D01*
X1723Y153D02*
X1732Y153D01*
X1743Y153D02*
X1751Y153D01*
X1847Y153D02*
X1856Y153D01*
X1887Y153D02*
X1896Y153D01*
X1635Y152D02*
X1645Y152D01*
X1664Y152D02*
X1674Y152D01*
X1723Y152D02*
X1732Y152D01*
X1743Y152D02*
X1751Y152D01*
X1793Y152D02*
X1805Y152D01*
X1847Y152D02*
X1856Y152D01*
X1887Y152D02*
X1896Y152D01*
X1636Y151D02*
X1646Y151D01*
X1664Y151D02*
X1674Y151D01*
X1723Y151D02*
X1732Y151D01*
X1742Y151D02*
X1752Y151D01*
X1792Y151D02*
X1807Y151D01*
X1847Y151D02*
X1856Y151D01*
X1887Y151D02*
X1896Y151D01*
X1636Y150D02*
X1646Y150D01*
X1663Y150D02*
X1673Y150D01*
X1723Y150D02*
X1732Y150D01*
X1742Y150D02*
X1752Y150D01*
X1791Y150D02*
X1808Y150D01*
X1847Y150D02*
X1856Y150D01*
X1887Y150D02*
X1896Y150D01*
X1637Y149D02*
X1647Y149D01*
X1663Y149D02*
X1673Y149D01*
X1723Y149D02*
X1732Y149D01*
X1742Y149D02*
X1752Y149D01*
X1790Y149D02*
X1809Y149D01*
X1847Y149D02*
X1856Y149D01*
X1887Y149D02*
X1896Y149D01*
X1637Y148D02*
X1647Y148D01*
X1663Y148D02*
X1673Y148D01*
X1723Y148D02*
X1732Y148D01*
X1742Y148D02*
X1752Y148D01*
X1790Y148D02*
X1809Y148D01*
X1847Y148D02*
X1856Y148D01*
X1887Y148D02*
X1896Y148D01*
X1638Y147D02*
X1648Y147D01*
X1662Y147D02*
X1672Y147D01*
X1723Y147D02*
X1732Y147D01*
X1742Y147D02*
X1752Y147D01*
X1790Y147D02*
X1809Y147D01*
X1847Y147D02*
X1856Y147D01*
X1887Y147D02*
X1896Y147D01*
X1638Y146D02*
X1648Y146D01*
X1662Y146D02*
X1672Y146D01*
X1723Y146D02*
X1732Y146D01*
X1742Y146D02*
X1752Y146D01*
X1790Y146D02*
X1809Y146D01*
X1847Y146D02*
X1856Y146D01*
X1887Y146D02*
X1896Y146D01*
X1638Y145D02*
X1648Y145D01*
X1661Y145D02*
X1671Y145D01*
X1723Y145D02*
X1732Y145D01*
X1742Y145D02*
X1752Y145D01*
X1790Y145D02*
X1809Y145D01*
X1847Y145D02*
X1856Y145D01*
X1887Y145D02*
X1896Y145D01*
X1639Y144D02*
X1649Y144D01*
X1661Y144D02*
X1671Y144D01*
X1723Y144D02*
X1732Y144D01*
X1742Y144D02*
X1752Y144D01*
X1790Y144D02*
X1809Y144D01*
X1847Y144D02*
X1856Y144D01*
X1887Y144D02*
X1896Y144D01*
X1639Y143D02*
X1649Y143D01*
X1660Y143D02*
X1670Y143D01*
X1723Y143D02*
X1732Y143D01*
X1742Y143D02*
X1752Y143D01*
X1790Y143D02*
X1809Y143D01*
X1847Y143D02*
X1856Y143D01*
X1887Y143D02*
X1896Y143D01*
X1640Y142D02*
X1650Y142D01*
X1660Y142D02*
X1670Y142D01*
X1723Y142D02*
X1732Y142D01*
X1742Y142D02*
X1752Y142D01*
X1790Y142D02*
X1809Y142D01*
X1847Y142D02*
X1856Y142D01*
X1887Y142D02*
X1896Y142D01*
X1640Y141D02*
X1650Y141D01*
X1659Y141D02*
X1669Y141D01*
X1723Y141D02*
X1732Y141D01*
X1742Y141D02*
X1752Y141D01*
X1790Y141D02*
X1809Y141D01*
X1847Y141D02*
X1856Y141D01*
X1887Y141D02*
X1896Y141D01*
X1641Y140D02*
X1651Y140D01*
X1659Y140D02*
X1669Y140D01*
X1723Y140D02*
X1732Y140D01*
X1742Y140D02*
X1752Y140D01*
X1790Y140D02*
X1809Y140D01*
X1847Y140D02*
X1856Y140D01*
X1887Y140D02*
X1896Y140D01*
X1641Y139D02*
X1651Y139D01*
X1659Y139D02*
X1669Y139D01*
X1723Y139D02*
X1732Y139D01*
X1742Y139D02*
X1752Y139D01*
X1790Y139D02*
X1809Y139D01*
X1847Y139D02*
X1856Y139D01*
X1887Y139D02*
X1896Y139D01*
X1641Y138D02*
X1651Y138D01*
X1658Y138D02*
X1668Y138D01*
X1723Y138D02*
X1732Y138D01*
X1742Y138D02*
X1752Y138D01*
X1790Y138D02*
X1809Y138D01*
X1847Y138D02*
X1856Y138D01*
X1887Y138D02*
X1896Y138D01*
X1642Y137D02*
X1652Y137D01*
X1658Y137D02*
X1668Y137D01*
X1723Y137D02*
X1732Y137D01*
X1742Y137D02*
X1752Y137D01*
X1790Y137D02*
X1809Y137D01*
X1847Y137D02*
X1856Y137D01*
X1887Y137D02*
X1896Y137D01*
X1642Y136D02*
X1652Y136D01*
X1657Y136D02*
X1667Y136D01*
X1723Y136D02*
X1732Y136D01*
X1742Y136D02*
X1752Y136D01*
X1791Y136D02*
X1808Y136D01*
X1847Y136D02*
X1856Y136D01*
X1887Y136D02*
X1896Y136D01*
X1643Y135D02*
X1653Y135D01*
X1657Y135D02*
X1667Y135D01*
X1723Y135D02*
X1732Y135D01*
X1742Y135D02*
X1752Y135D01*
X1792Y135D02*
X1807Y135D01*
X1847Y135D02*
X1856Y135D01*
X1887Y135D02*
X1896Y135D01*
X1643Y134D02*
X1653Y134D01*
X1656Y134D02*
X1666Y134D01*
X1723Y134D02*
X1732Y134D01*
X1742Y134D02*
X1752Y134D01*
X1793Y134D02*
X1805Y134D01*
X1847Y134D02*
X1856Y134D01*
X1887Y134D02*
X1896Y134D01*
X1644Y133D02*
X1654Y133D01*
X1656Y133D02*
X1666Y133D01*
X1723Y133D02*
X1732Y133D01*
X1742Y133D02*
X1752Y133D01*
X1847Y133D02*
X1856Y133D01*
X1887Y133D02*
X1896Y133D01*
X1644Y132D02*
X1666Y132D01*
X1723Y132D02*
X1732Y132D01*
X1742Y132D02*
X1752Y132D01*
X1847Y132D02*
X1856Y132D01*
X1887Y132D02*
X1896Y132D01*
X1645Y131D02*
X1665Y131D01*
X1707Y131D02*
X1752Y131D01*
X1847Y131D02*
X1896Y131D01*
X1645Y130D02*
X1665Y130D01*
X1705Y130D02*
X1752Y130D01*
X1847Y130D02*
X1896Y130D01*
X1645Y129D02*
X1664Y129D01*
X1704Y129D02*
X1752Y129D01*
X1848Y129D02*
X1896Y129D01*
X1646Y128D02*
X1664Y128D01*
X1703Y128D02*
X1752Y128D01*
X1848Y128D02*
X1896Y128D01*
X1646Y127D02*
X1663Y127D01*
X1703Y127D02*
X1752Y127D01*
X1848Y127D02*
X1895Y127D01*
X1647Y126D02*
X1663Y126D01*
X1703Y126D02*
X1752Y126D01*
X1849Y126D02*
X1895Y126D01*
X1647Y125D02*
X1662Y125D01*
X1703Y125D02*
X1751Y125D01*
X1850Y125D02*
X1894Y125D01*
X1648Y124D02*
X1662Y124D01*
X1703Y124D02*
X1751Y124D01*
X1850Y124D02*
X1893Y124D01*
X1648Y123D02*
X1661Y123D01*
X1704Y123D02*
X1750Y123D01*
X1852Y123D02*
X1892Y123D01*
X1649Y122D02*
X1660Y122D01*
X1705Y122D02*
X1749Y122D01*
X1853Y122D02*
X1890Y122D01*
D02*
G04 End of Copper1*
M02*