; NON-PLATED HOLES START AT T1
; THROUGH (PLATED) HOLES START AT T100
M48
INCH
T1C0.086614
T100C0.042000
T101C0.015748
T102C0.038000
T103C0.040000
T104C0.039391
T105C0.035000
%
T1
X002222Y022473
X002222Y001473
X022222Y022473
X022222Y001473
T100
X013722Y004473
X013722Y002473
X013722Y003473
T101
X007222Y002473
X006222Y002473
X016222Y011473
X013222Y021473
X018222Y012473
X007222Y021473
X007222Y007473
X014222Y019473
X011222Y022473
X016222Y020473
X004222Y007473
X017222Y018473
X009222Y021473
X018222Y019473
X011222Y017473
X016222Y008473
X009222Y004473
X008222Y004473
X007222Y018473
X018222Y006473
X009222Y019473
X018222Y010473
X020222Y021473
T102
X008222Y020473
X007222Y001473
X010222Y020473
X009222Y020473
X002222Y020473
X003222Y020473
X013222Y020473
X004222Y020473
X005222Y020473
X004222Y001473
X006222Y020473
X014222Y020473
X005222Y001473
X015222Y020473
X006222Y001473
X007222Y020473
T103
X017222Y006473
X017222Y016473
X017222Y010473
X018222Y020473
X017222Y008473
X020362Y020473
X017222Y012473
X019292Y020473
X017222Y014473
T104
X009222Y015473
X010222Y006473
X011222Y006473
X009222Y006473
X004222Y015473
X005222Y015473
X006222Y015473
X004222Y006473
X005222Y006473
X006222Y006473
X007222Y015473
X008222Y015473
X007222Y006473
X008222Y006473
X010222Y015473
X011222Y015473
T105
X010722Y004973
X015222Y018473
X008222Y010473
X010722Y000973
X011222Y018473
X004222Y010473
T00
M30
